<svg width="45" height="67" viewBox="0 0 45 67" fill="none" xmlns="http://www.w3.org/2000/svg">
<path d="M39.5 44.1562C39.5 44.5126 39.3551 44.8544 39.0973 45.1064C38.8394 45.3584 38.4897 45.5 38.125 45.5H11.1943L17.0957 51.2673C17.3462 51.5208 17.4848 51.8602 17.4817 52.2125C17.4785 52.5649 17.3339 52.9019 17.079 53.151C16.8241 53.4002 16.4792 53.5415 16.1187 53.5446C15.7582 53.5476 15.4108 53.4122 15.1515 53.1674L6.9015 45.1049C6.77427 44.9813 6.6733 44.8343 6.60439 44.6724C6.53549 44.5105 6.50001 44.3369 6.5 44.1616V44.1562C6.5 43.9815 6.53575 43.8068 6.60725 43.6429C6.67578 43.48 6.77673 43.332 6.90425 43.2075L15.1543 35.145C15.4136 34.9003 15.7609 34.7648 16.1214 34.7679C16.4819 34.7709 16.8268 34.9123 17.0817 35.1614C17.3367 35.4105 17.4813 35.7476 17.4844 36.0999C17.4876 36.4522 17.349 36.7917 17.0985 37.0451L11.1943 42.8125H38.125C38.4897 42.8125 38.8394 42.954 39.0973 43.206C39.3551 43.458 39.5 43.7998 39.5 44.1562Z" fill="#907AF9"/>
<path d="M5.5 20.1562C5.5 20.5126 5.64487 20.8544 5.90273 21.1064C6.16059 21.3584 6.51033 21.5 6.875 21.5H33.8057L27.9043 27.2673C27.6538 27.5208 27.5152 27.8602 27.5183 28.2125C27.5215 28.5649 27.6661 28.9019 27.921 29.151C28.1759 29.4002 28.5208 29.5415 28.8813 29.5446C29.2418 29.5476 29.5892 29.4122 29.8485 29.1674L38.0985 21.1049C38.2257 20.9813 38.3267 20.8343 38.3956 20.6724C38.4645 20.5105 38.5 20.3369 38.5 20.1616V20.1562C38.5 19.9815 38.4643 19.8068 38.3927 19.6429C38.3242 19.48 38.2233 19.332 38.0957 19.2075L29.8457 11.145C29.5864 10.9003 29.2391 10.7648 28.8786 10.7679C28.5181 10.7709 28.1732 10.9123 27.9183 11.1614C27.6633 11.4105 27.5187 11.7476 27.5156 12.0999C27.5124 12.4522 27.651 12.7917 27.9015 13.0451L33.8057 18.8125H6.875C6.51033 18.8125 6.16059 18.954 5.90273 19.206C5.64487 19.458 5.5 19.7998 5.5 20.1562Z" fill="#907AF9"/>
</svg>
