<svg width="404" height="417" viewBox="0 0 404 417" fill="none" xmlns="http://www.w3.org/2000/svg">
<path d="M307.033 237.779C305.282 237.779 303.52 237.675 301.788 237.466C301.043 237.377 300.359 236.996 299.876 236.404C299.394 235.811 299.149 235.05 299.192 234.277C299.42 230.103 297.075 226.219 293.356 224.612C289.814 223.08 285.194 224.153 282.602 227.111C281.554 228.304 279.785 228.447 278.577 227.439C275.906 225.219 273.482 222.69 271.372 219.917C270.426 218.678 270.568 216.871 271.694 215.805C274.645 213.014 275.614 208.589 274.107 204.793C272.614 201.044 269.042 198.592 265.237 198.693C263.76 198.693 262.009 197.589 261.837 196.005C261.452 192.438 261.455 188.839 261.856 185.318C262.046 183.685 263.303 182.584 264.904 182.638C269.12 182.638 272.816 180.275 274.305 176.619C275.865 172.781 274.896 168.317 271.892 165.51C270.744 164.429 270.605 162.607 271.578 161.36C273.729 158.587 276.209 156.058 278.943 153.842C280.152 152.869 281.902 153.024 282.935 154.19C285.505 157.105 290.095 158.186 293.615 156.699C297.288 155.147 299.66 151.329 299.521 147.197C299.469 145.618 300.621 144.247 302.14 144.074C305.544 143.685 308.98 143.694 312.382 144.101C313.931 144.286 315.071 145.687 314.978 147.29C314.75 151.46 317.091 155.344 320.806 156.958C324.356 158.487 328.983 157.414 331.564 154.464C332.608 153.271 334.374 153.124 335.586 154.128C338.242 156.321 340.666 158.854 342.802 161.649C343.752 162.893 343.61 164.7 342.48 165.765C339.532 168.557 338.563 172.982 340.067 176.777C341.537 180.484 345.046 182.878 349.004 182.878C350.44 182.878 352.161 183.982 352.333 185.569C352.718 189.137 352.715 192.735 352.314 196.256C352.131 197.859 350.739 199.063 349.21 198.932L348.675 198.917C344.874 198.917 341.324 201.342 339.861 204.952C338.301 208.786 339.274 213.249 342.278 216.06C343.43 217.137 343.568 218.96 342.596 220.211C340.426 222.998 337.955 225.52 335.23 227.728C334 228.709 332.286 228.562 331.239 227.385C328.665 224.47 324.072 223.388 320.552 224.875C316.878 226.427 314.507 230.246 314.649 234.373C314.701 235.953 313.549 237.327 312.03 237.501C310.377 237.682 308.697 237.779 307.033 237.779ZM289.893 223.026C291.206 223.026 292.504 223.273 293.689 223.786C297.748 225.539 300.307 229.775 300.056 234.327C300.026 234.872 300.198 235.409 300.538 235.827C300.878 236.245 301.36 236.514 301.885 236.578C305.223 236.977 308.593 236.986 311.933 236.605C313.007 236.481 313.818 235.512 313.781 234.4C313.624 229.902 316.212 225.74 320.219 224.045C324.06 222.427 329.069 223.601 331.871 226.782C332.608 227.613 333.82 227.717 334.688 227.022C337.355 224.863 339.787 222.381 341.911 219.651C342.243 219.226 342.405 218.686 342.363 218.141C342.321 217.597 342.079 217.09 341.687 216.724C338.41 213.658 337.351 208.79 339.05 204.608C340.651 200.67 344.519 198.025 348.675 198.025L349.243 198.04C350.339 198.129 351.312 197.283 351.443 196.152C351.835 192.696 351.843 189.167 351.461 185.669C351.345 184.604 350.04 183.773 348.993 183.773C344.683 183.773 340.86 181.159 339.252 177.117C337.613 172.974 338.668 168.148 341.881 165.105C342.678 164.352 342.779 163.078 342.11 162.201C340.018 159.46 337.636 156.977 335.036 154.827C334.623 154.486 334.1 154.32 333.573 154.364C333.046 154.408 332.555 154.658 332.2 155.062C329.384 158.282 324.337 159.452 320.466 157.784C316.411 156.024 313.859 151.788 314.106 147.24C314.137 146.694 313.964 146.158 313.624 145.74C313.284 145.321 312.802 145.053 312.277 144.989C308.937 144.591 305.555 144.579 302.23 144.962C301.156 145.085 300.344 146.05 300.382 147.166C300.535 151.668 297.946 155.831 293.936 157.526C290.095 159.143 285.089 157.97 282.288 154.788C281.562 153.966 280.324 153.858 279.471 154.545C276.798 156.708 274.374 159.182 272.247 161.916C271.917 162.342 271.757 162.881 271.799 163.425C271.84 163.969 272.081 164.475 272.472 164.842C275.745 167.904 276.804 172.773 275.102 176.962C273.478 180.951 269.472 183.53 264.889 183.53C263.719 183.495 262.851 184.252 262.716 185.422C262.323 188.878 262.32 192.403 262.697 195.905C262.813 196.971 264.149 197.797 265.226 197.797C269.39 197.685 273.276 200.361 274.907 204.454C276.553 208.593 275.494 213.419 272.277 216.465C271.484 217.218 271.383 218.493 272.049 219.365C274.127 222.092 276.498 224.568 279.115 226.744C279.968 227.454 281.218 227.35 281.955 226.512C283.915 224.273 286.934 223.026 289.893 223.026ZM307.156 206.855C298.623 206.855 291.681 199.689 291.681 190.882C291.681 182.075 298.623 174.908 307.156 174.908C315.689 174.908 322.632 182.075 322.632 190.882C322.632 199.689 315.689 206.855 307.156 206.855ZM307.156 175.8C299.099 175.8 292.545 182.565 292.545 190.882C292.545 199.199 299.099 205.963 307.156 205.963C315.21 205.963 321.764 199.199 321.764 190.882C321.764 182.565 315.214 175.8 307.156 175.8ZM115.241 298.008C113.281 298.908 111.25 299.699 109.207 300.356C107.386 300.947 105.429 299.962 104.756 298.116C102.994 293.317 98.4863 290.17 93.5411 290.282C88.8277 290.386 84.163 293.97 82.6854 298.622C82.0869 300.499 80.1717 301.568 78.3275 301.062C74.2613 299.95 70.3186 298.36 66.6152 296.333C64.9543 295.433 64.2399 293.332 64.988 291.553C66.9481 286.9 65.897 281.436 62.3732 277.958C58.8869 274.521 53.6947 273.61 49.4789 275.679C47.8217 276.44 45.3267 276.104 44.369 274.417C42.2106 270.614 40.4787 266.575 39.2255 262.42C38.6494 260.494 39.5285 258.606 41.3503 257.845C46.0786 255.675 49.0824 251.123 48.9851 246.254C48.8804 241.146 45.6334 236.636 40.9089 235.037C39.0983 234.42 38.0622 232.447 38.5484 230.547C39.622 226.331 41.1782 222.219 43.1757 218.323C44.0623 216.612 46.101 215.879 47.818 216.655C52.1086 218.601 57.7796 217.45 61.0079 213.971C64.3783 210.338 65.1937 204.832 63.0391 200.272C62.2199 198.527 62.8446 196.395 64.468 195.419C68.0816 193.237 71.9533 191.476 75.9708 190.175C77.7963 189.588 79.7527 190.573 80.4223 192.415C82.1805 197.21 86.6843 200.361 91.6296 200.257C96.3504 200.145 101.019 196.558 102.489 191.92C103.084 190.048 104.991 188.974 106.836 189.476C110.872 190.569 114.818 192.16 118.559 194.195C120.224 195.098 120.938 197.199 120.186 198.979C118.23 203.623 119.281 209.087 122.801 212.57C126.243 215.967 131.334 216.848 135.774 214.809C137.386 214.068 139.848 214.423 140.809 216.11C142.967 219.913 144.699 223.948 145.953 228.107C146.521 229.999 145.541 232.064 143.764 232.705L143.158 232.964C138.894 234.922 136.088 239.47 136.189 244.273C136.294 249.378 139.541 253.884 144.269 255.486C146.084 256.1 147.12 258.073 146.63 259.976C145.545 264.216 143.989 268.328 142.002 272.201C141.097 273.934 139.103 274.649 137.36 273.869C133.066 271.923 127.391 273.077 124.163 276.552C120.792 280.185 119.977 285.687 122.135 290.24C122.958 291.985 122.33 294.116 120.71 295.093C118.948 296.178 117.108 297.151 115.241 298.008ZM88.8876 290.286C90.3577 289.61 91.9326 289.217 93.5149 289.182C98.9128 289.058 103.828 292.491 105.751 297.726C105.979 298.354 106.432 298.867 107.016 299.161C107.599 299.455 108.27 299.506 108.889 299.306C112.802 298.047 116.629 296.302 120.171 294.163C121.316 293.475 121.757 291.97 121.178 290.738C118.825 285.772 119.719 279.772 123.396 275.807C126.92 272.015 133.107 270.753 137.787 272.876C139.014 273.425 140.424 272.919 141.063 271.695C143.012 267.899 144.539 263.864 145.601 259.71C145.767 259.063 145.687 258.374 145.378 257.786C145.068 257.197 144.553 256.753 143.936 256.544C138.782 254.795 135.239 249.88 135.123 244.312C135.015 239.072 138.075 234.111 142.736 231.972L143.383 231.694C144.655 231.23 145.335 229.779 144.935 228.447C143.691 224.339 141.998 220.39 139.889 216.678C139.242 215.543 137.379 215.284 136.204 215.825C131.367 218.045 125.82 217.083 122.064 213.373C118.222 209.573 117.074 203.616 119.21 198.55C119.741 197.295 119.236 195.816 118.062 195.175C114.392 193.175 110.52 191.619 106.563 190.546C105.935 190.375 105.268 190.458 104.698 190.779C104.128 191.1 103.699 191.634 103.499 192.272C101.894 197.334 96.803 201.241 91.652 201.365C86.2541 201.477 81.3425 198.04 79.4273 192.812C78.9559 191.511 77.5756 190.816 76.2888 191.233C72.346 192.507 68.5529 194.237 65.0067 196.376C63.862 197.067 63.4206 198.569 64.0004 199.801C66.3496 204.77 65.4556 210.774 61.7784 214.74C58.2547 218.531 52.0675 219.79 47.3916 217.666C46.1796 217.118 44.7394 217.635 44.1147 218.844C42.1545 222.663 40.6283 226.694 39.5772 230.833C39.233 232.173 39.9662 233.566 41.2418 234.003C46.3928 235.748 49.9315 240.667 50.0475 246.242C50.156 251.551 46.9053 256.505 41.7692 258.864C40.4413 259.424 39.8315 260.722 40.243 262.104C41.4737 266.177 43.172 270.139 45.2893 273.872C45.9327 275.008 47.833 275.247 49.0375 274.691C53.6536 272.421 59.3058 273.421 63.1102 277.174C66.9556 280.969 68.104 286.927 65.9643 291.997C65.4369 293.251 65.9419 294.73 67.1127 295.367C70.7487 297.352 74.6129 298.912 78.6043 300.004C79.9061 300.36 81.2527 299.603 81.6754 298.282C82.7864 294.765 85.5733 291.807 88.8876 290.286ZM100.435 263.262C90.8627 267.656 79.6143 263.193 75.3573 253.316C71.1004 243.435 75.4247 231.825 84.9935 227.431C94.566 223.037 105.814 227.501 110.071 237.377C114.328 247.254 110.008 258.868 100.435 263.262ZM85.4274 228.431C76.3935 232.578 72.3124 243.54 76.3299 252.864C80.3475 262.189 90.9674 266.401 100.001 262.254C109.035 258.108 113.116 247.146 109.099 237.821C105.081 228.497 94.465 224.284 85.4274 228.431Z" fill="#463D56" fill-opacity="0.63"/>
<path d="M100.917 55.2023H303.078V361.802H100.917V55.2023Z" fill="#F7F7F7"/>
<path d="M112.204 68.0675H291.797V348.936H112.204V68.0675Z" fill="white"/>
<path opacity="0.1" d="M276.834 133.062H127.167C124.698 133.062 122.678 130.977 122.678 128.428V96.8753C122.678 94.3269 124.698 92.2419 127.167 92.2419H276.837C279.306 92.2419 281.326 94.3269 281.326 96.8753V128.428C281.323 130.977 279.303 133.062 276.834 133.062ZM173.013 148.8H125.588C123.987 148.8 122.678 147.448 122.678 145.796C122.678 144.143 123.987 142.792 125.588 142.792H173.013C174.614 142.792 175.923 144.143 175.923 145.796C175.923 147.448 174.614 148.8 173.013 148.8ZM278.412 166.147H125.588C123.987 166.147 122.678 164.796 122.678 163.144C122.678 161.491 123.987 160.14 125.588 160.14H278.412C280.013 160.14 281.323 161.491 281.323 163.144C281.323 164.792 280.013 166.147 278.412 166.147ZM278.412 179.966H125.588C123.987 179.966 122.678 178.615 122.678 176.962C122.678 175.31 123.987 173.959 125.588 173.959H278.412C280.013 173.959 281.323 175.31 281.323 176.962C281.323 178.615 280.013 179.966 278.412 179.966ZM278.412 193.785H125.588C123.987 193.785 122.678 192.434 122.678 190.781C122.678 189.129 123.987 187.777 125.588 187.777H278.412C280.013 187.777 281.323 189.129 281.323 190.781C281.323 192.434 280.013 193.785 278.412 193.785ZM278.412 207.608H125.588C123.987 207.608 122.678 206.257 122.678 204.604C122.678 202.952 123.987 201.6 125.588 201.6H278.412C280.013 201.6 281.323 202.952 281.323 204.604C281.323 206.257 280.013 207.608 278.412 207.608ZM278.412 221.427H125.588C123.987 221.427 122.678 220.076 122.678 218.423C122.678 216.771 123.987 215.419 125.588 215.419H278.412C280.013 215.419 281.323 216.771 281.323 218.423C281.323 220.076 280.013 221.427 278.412 221.427ZM278.412 235.25H125.588C123.987 235.25 122.678 233.898 122.678 232.246C122.678 230.593 123.987 229.242 125.588 229.242H278.412C280.013 229.242 281.323 230.593 281.323 232.246C281.323 233.898 280.013 235.25 278.412 235.25ZM278.412 249.069H125.588C123.987 249.069 122.678 247.717 122.678 246.065C122.678 244.412 123.987 243.061 125.588 243.061H278.412C280.013 243.061 281.323 244.412 281.323 246.065C281.323 247.717 280.013 249.069 278.412 249.069ZM278.412 262.891H125.588C123.987 262.891 122.678 261.54 122.678 259.888C122.678 258.235 123.987 256.884 125.588 256.884H278.412C280.013 256.884 281.323 258.235 281.323 259.888C281.323 261.536 280.013 262.891 278.412 262.891ZM278.412 276.71H125.588C123.987 276.71 122.678 275.359 122.678 273.706C122.678 272.054 123.987 270.702 125.588 270.702H278.412C280.013 270.702 281.323 272.054 281.323 273.706C281.323 275.359 280.013 276.71 278.412 276.71ZM212.052 290.533H125.588C123.987 290.533 122.678 289.182 122.678 287.529C122.678 285.877 123.987 284.525 125.588 284.525H212.052C213.653 284.525 214.962 285.877 214.962 287.529C214.962 289.178 213.653 290.533 212.052 290.533Z" fill="#463D56" fill-opacity="0.86"/>
<path d="M259.589 340.55C272.557 340.55 283.069 329.699 283.069 316.314C283.069 302.929 272.557 292.078 259.589 292.078C246.621 292.078 236.108 302.929 236.108 316.314C236.108 329.699 246.621 340.55 259.589 340.55Z" fill="#463D56"/>
<path d="M261.552 338.276C274.52 338.276 285.033 327.425 285.033 314.04C285.033 300.654 274.52 289.803 261.552 289.803C248.584 289.803 238.072 300.654 238.072 314.04C238.072 327.425 248.584 338.276 261.552 338.276Z" stroke="#463D56" stroke-miterlimit="10"/>
<path d="M384.952 377.227H23.5366C21.5877 377.227 19.9941 375.582 19.9941 373.57V359.578C19.9941 357.566 21.5877 355.921 23.5366 355.921H384.948C386.897 355.921 388.491 357.566 388.491 359.578V373.57C388.495 375.578 386.901 377.227 384.952 377.227Z" fill="black" fill-opacity="0.25"/>
<path d="M172.729 234.088L173.652 242.42C173.652 242.42 179.256 242.497 181.411 239.945C181.018 238.408 180.015 237.242 180.015 237.242C180.015 237.242 180.547 237.35 182.443 236.837C181.216 235.875 175.422 232.489 175.422 232.489L172.729 234.088Z" fill="#C6B1FC"/>
<path d="M182.731 238.817C182.731 238.817 181.587 235.702 180.401 236.018C179.215 236.335 174.663 240.358 176.26 241.968C178.033 243.756 177.737 245.428 177.737 245.428C177.737 245.428 183.315 243.072 182.731 238.817Z" fill="#B6B6B6"/>
<path d="M272.82 261.617H255.317C254.411 261.617 253.678 260.861 253.678 259.926V249.378C253.678 248.443 254.415 247.686 255.317 247.686H272.82C273.725 247.686 274.458 248.447 274.458 249.378V259.926C274.458 260.861 273.721 261.617 272.82 261.617ZM255.923 259.301H272.214V250.003H255.923V259.301Z" fill="#7D7D7D"/>
<path d="M282.03 256.374V277.143C282.03 278.089 281.281 278.861 280.365 278.861H247.768C246.852 278.861 246.104 278.089 246.104 277.143V256.374C246.104 255.428 246.852 254.656 247.768 254.656H280.365C281.281 254.656 282.03 255.428 282.03 256.374Z" fill="#463D56" fill-opacity="0.63"/>
<path d="M282.03 256.374V266.76H246.104V256.374C246.104 255.428 246.852 254.656 247.768 254.656H280.365C281.281 254.656 282.03 255.428 282.03 256.374Z" fill="#E2E2E2"/>
<path d="M259.589 265.2H268.544V269.973H259.589V265.2Z" fill="#3A3148"/>
<path d="M222.686 237.022L218.586 360.087H227.123C227.123 360.087 239.841 302.595 233.822 292.95C239.415 275.201 248.258 237.663 248.258 237.663L222.686 237.022Z" fill="#3A3148"/>
<path d="M225.137 237.663L231.167 250.547L255.545 362.566H264.067C264.067 362.566 263.999 305.889 254.797 296.205C253.712 275.313 255.246 247.748 250.873 233.501C233.422 229.45 225.137 237.663 225.137 237.663Z" fill="#2C233A"/>
<path d="M231.817 179.58C224.747 192.272 213.432 213.265 200.672 219.948C201.439 222.825 203.073 225.404 203.073 225.404C203.073 225.404 223.21 217.975 229.666 207.504C236.123 197.033 231.817 179.58 231.817 179.58Z" fill="black"/>
<path d="M263.849 241.617C262.518 242.42 259.592 253.069 259.592 253.069C259.592 253.069 264.889 254.266 268.005 251.586C269.977 245.262 265.929 238.829 265.929 238.829L263.849 241.617ZM235.356 155.591C235.169 157.738 233.826 165.19 233.826 165.19L248.262 157.614L247.573 155.703L243.825 147.637C243.825 147.637 240.189 147.765 239.823 147.637C239.452 147.51 235.356 155.591 235.356 155.591Z" fill="#E2E2E2"/>
<path d="M250.783 124.254C254.419 131.062 258.968 126.602 256.125 134.93C257.015 136.34 261.923 139.39 251.92 149.83C248.737 155.112 247.57 155.695 247.57 155.695C247.57 155.695 245.269 152.263 243.821 149.46L237.028 128.239L250.783 124.254Z" fill="#3A3148"/>
<path d="M229.629 131.93C229.629 131.93 222.215 138.382 226.431 156.244C232.394 157.143 237.919 154.742 237.919 154.742L243.822 149.467C243.822 149.467 242.572 130.428 236.318 129.679C230.067 128.926 229.629 131.93 229.629 131.93Z" fill="#E2E2E2"/>
<path d="M237.257 133.054C232.708 133.289 220.973 128.359 225.137 122.965C229.3 117.571 233.508 124.606 236.348 123.552C239.191 122.494 247.147 117.451 250.783 124.254C250.783 124.254 252.829 132.467 237.257 133.054Z" fill="#3A3148"/>
<path d="M245.64 142.851C246.864 141.091 246.952 138.995 245.837 138.169C244.723 137.344 242.827 138.102 241.604 139.862C240.38 141.623 240.292 143.719 241.406 144.544C242.521 145.37 244.416 144.612 245.64 142.851Z" fill="#E2E2E2"/>
<path d="M237.028 131.15C236.381 136.66 236.699 139.753 237.563 140.66C238.136 142.019 238.51 144.51 238.51 144.51H240.698C240.698 144.51 243.777 138.139 243.822 136.1C243.863 134.062 242.89 129.556 242.89 129.556L237.028 131.15Z" fill="#3A3148"/>
<path d="M250.873 165.19V155.703C250.873 155.703 231.858 162.715 230.785 165.19C229.711 167.665 220.909 193.419 220.909 193.419C220.909 193.419 220.876 251.084 220.939 253.069C224.422 248.439 234.477 239.068 234.477 239.068L258.111 253.069C258.111 253.069 250.435 222.995 250.091 220.944C249.747 218.894 254.793 198.191 254.793 198.191L250.873 165.19Z" fill="#7D7D7D"/>
<path d="M249.863 166.259C241.368 167.151 238.076 170.372 238.076 173.951C243.623 186.654 265.462 208.014 262.518 242.42C265.29 242.652 269.105 242.42 269.105 242.42C269.105 242.42 281.581 199.002 249.863 166.259Z" fill="#463D56"/>
<path d="M203.309 222.385C203.231 222.331 203.156 222.28 203.085 222.226C201.723 221.269 201.2 220.717 200.672 219.944C200.119 219.134 197.822 217.639 196.714 218.74C195.607 219.836 195.506 221.991 195.768 222.802C196.034 223.612 195.693 227.08 196.247 227.74C196.8 228.4 198.843 229.628 200.545 229.45C202.247 229.277 203.309 227.389 203.691 225.763C204.076 224.141 203.309 222.385 203.309 222.385Z" fill="#E2E2E2"/>
<path d="M218.586 360.303L199.269 369.003H227.747L227.126 360.303H218.586ZM255.283 360.303L235.962 369.003H264.44L263.819 360.303H255.283Z" fill="#3A3148"/>
<path d="M301.189 81.8015H254.142C248.894 81.8015 244.603 86.234 244.603 91.6473V103.706C244.603 109.123 248.897 113.551 254.142 113.551H256.734L251.894 122.104L263.535 113.551H301.189C306.438 113.551 310.728 109.119 310.728 103.706V91.6473C310.728 86.2302 306.438 81.8015 301.189 81.8015ZM245.202 38.5609H222.447C211.415 38.5609 202.393 47.8778 202.393 59.2603C202.393 70.5772 211.307 79.84 222.245 79.9559C227.362 83.3498 233.826 87.5623 233.826 87.5623L229.928 79.9597H245.205C256.237 79.9597 265.259 70.6429 265.259 59.2603C265.259 47.8778 256.233 38.5609 245.202 38.5609Z" fill="#D5D5D5"/>
<path d="M162.565 135.166C159.879 130.899 156.658 126.247 151.803 125.374C148.829 124.837 145.803 125.868 143.049 127.146C138.228 129.382 133.507 132.733 131.535 137.795C129.613 142.738 130.66 148.294 131.341 153.572C132.022 158.85 132.138 164.761 128.853 168.866C125.322 173.271 119.176 174.047 114.264 176.692C109.525 179.248 105.814 183.773 104.168 189.028C103.342 191.662 103.039 194.612 104.101 197.152C105.261 199.917 107.842 201.762 110.494 203.021C121.783 208.376 135.901 204.99 145.066 196.33C154.231 187.669 158.719 174.561 158.847 161.738C158.892 157.174 158.435 152.533 159.486 148.101C160.074 145.622 161.117 143.278 161.656 140.788L162.565 135.166Z" fill="#3A3148"/>
<path d="M146.356 185.492C154.268 205.11 163.624 223.558 172.837 235.767C176.425 235.972 178.508 233.879 178.508 233.879C178.508 233.879 158.839 198.214 160.324 187.248C161.813 176.279 146.356 185.492 146.356 185.492Z" fill="#463D56"/>
<path d="M170.544 215.203L188.551 226.177L173.868 251.845L155.861 240.871L170.544 215.203Z" fill="#463D56" fill-opacity="0.63"/>
<path d="M170.996 216.83L186.957 226.558L173.681 249.765L157.721 240.037L170.996 216.83Z" fill="white"/>
<path d="M176.136 217.404L183.973 222.18C184.076 222.242 184.166 222.325 184.238 222.424C184.31 222.522 184.363 222.635 184.392 222.754C184.422 222.873 184.429 222.998 184.412 223.12C184.396 223.242 184.356 223.359 184.295 223.466L183.034 225.67C182.974 225.777 182.894 225.87 182.798 225.944C182.703 226.018 182.594 226.072 182.478 226.103C182.363 226.134 182.242 226.141 182.124 226.124C182.006 226.106 181.892 226.065 181.789 226.002L173.952 221.226C173.849 221.164 173.759 221.081 173.687 220.982C173.615 220.884 173.563 220.772 173.533 220.652C173.503 220.533 173.496 220.408 173.513 220.286C173.53 220.164 173.569 220.047 173.63 219.94L174.891 217.736C175.149 217.288 175.706 217.137 176.136 217.404Z" fill="#3D0E8C"/>
<path d="M170.062 220.998L183.861 229.408C184.045 229.52 184.105 229.763 183.996 229.952C183.888 230.142 183.652 230.203 183.469 230.091L169.669 221.682C169.486 221.57 169.426 221.327 169.534 221.137C169.639 220.948 169.878 220.886 170.062 220.998ZM168.786 223.23L182.586 231.64C182.769 231.752 182.829 231.995 182.72 232.184C182.612 232.373 182.376 232.435 182.193 232.323L168.393 223.914C168.21 223.802 168.15 223.558 168.259 223.369C168.363 223.18 168.603 223.118 168.786 223.23ZM167.511 225.458L181.31 233.867C181.493 233.979 181.553 234.223 181.445 234.412C181.336 234.601 181.101 234.663 180.917 234.551L167.118 226.141C166.935 226.029 166.875 225.786 166.983 225.597C167.088 225.408 167.327 225.346 167.511 225.458ZM166.235 227.69L180.035 236.099C180.218 236.211 180.278 236.454 180.169 236.644C180.061 236.833 179.825 236.895 179.642 236.783L165.842 228.373C165.659 228.261 165.599 228.018 165.708 227.829C165.812 227.64 166.052 227.578 166.235 227.69ZM164.959 229.918L178.759 238.327C178.942 238.439 179.002 238.682 178.894 238.871C178.785 239.061 178.55 239.122 178.366 239.011L164.567 230.601C164.383 230.489 164.323 230.246 164.432 230.057C164.537 229.871 164.776 229.806 164.959 229.918ZM163.684 232.149L177.483 240.559C177.667 240.671 177.727 240.914 177.618 241.103C177.51 241.292 177.274 241.354 177.091 241.242L163.291 232.833C163.108 232.721 163.048 232.477 163.156 232.288C163.261 232.099 163.501 232.037 163.684 232.149ZM162.3 234.312L171.637 240.003C171.76 240.08 171.775 240.292 171.667 240.482C171.558 240.671 171.371 240.763 171.244 240.686L161.907 234.995C161.784 234.918 161.769 234.705 161.877 234.516C161.986 234.331 162.176 234.238 162.3 234.312Z" fill="#DBCCFF"/>
<path d="M172.609 247.605C173.857 247.605 174.868 246.561 174.868 245.273C174.868 243.985 173.857 242.941 172.609 242.941C171.361 242.941 170.35 243.985 170.35 245.273C170.35 246.561 171.361 247.605 172.609 247.605Z" fill="#463D56"/>
<path d="M152.375 354.655L156.95 361.458C157.964 362.964 159.262 364.242 160.766 365.211L166.654 369.003H151.93L147.146 363.203V369.003H144.961V354.655H152.375Z" fill="#3A3148"/>
<path d="M159.281 282.88C158.589 285.444 152.376 354.396 152.376 354.396C152.376 354.396 144.778 356.639 145.01 354.396C145.242 352.153 137.184 296.993 147.543 282.88C154.676 277.108 159.281 282.88 159.281 282.88Z" fill="#E2E2E2"/>
<path d="M148.575 354.655L153.15 361.458C154.163 362.964 155.461 364.242 156.965 365.211L162.853 369.003H148.13L143.345 363.203V369.003H141.161V354.655H148.575Z" fill="#3A3148"/>
<path d="M155.48 282.88C154.788 285.444 148.575 354.396 148.575 354.396C148.575 354.396 140.977 356.639 141.209 354.396C141.441 352.153 133.384 296.993 143.742 282.88C150.875 277.108 155.48 282.88 155.48 282.88Z" fill="#E2E2E2"/>
<path d="M144.246 220.396C138.912 226.474 131.202 232.632 137.102 251.181C139.716 259.409 140.027 268.228 138.16 276.668C135.777 287.452 133.66 300.688 133.66 300.688L160.448 301.464C160.448 301.464 168.864 237.319 162.569 220.396C154.754 217.396 144.246 220.396 144.246 220.396Z" fill="#7D7D7D"/>
<path d="M154.665 167.225C157.807 171.939 168.472 188.7 167.862 191.036C167.136 193.824 162.561 220.396 162.561 220.396H144.243C144.243 220.396 146.555 214.307 144.625 210.249C142.694 206.191 127.327 177.573 146.809 162.792C150.168 164.113 154.665 167.225 154.665 167.225Z" fill="#463D56"/>
<path d="M155.626 160.066C155.207 163.425 154.683 166.024 156.15 170.9C151.848 168.951 147.123 164.943 146.809 163.425C148.279 159.85 149.854 157.533 148.593 154.468C150.692 154.757 155.626 160.066 155.626 160.066Z" fill="#E2E2E2"/>
<path d="M162.722 138.228C164.592 144.792 164.129 163.553 159.21 162.769C154.29 161.989 148.429 159.448 146.158 153.008C143.891 146.568 148.264 126.961 162.722 138.228Z" fill="#E2E2E2"/>
<path d="M146.078 154.393C146.948 153.875 147.002 152.291 146.199 150.856C145.397 149.421 144.041 148.678 143.172 149.197C142.302 149.715 142.248 151.298 143.05 152.733C143.853 154.168 145.209 154.911 146.078 154.393Z" fill="#D9CAFF"/>
<path d="M141.643 152.062C152.802 148.938 161.645 142.857 163.74 137.197C165.831 131.536 151.646 128.606 148.811 131.926C145.975 135.247 135.819 145.216 141.643 152.062Z" fill="#3A3148"/>
<path d="M146.121 156.402C147.156 156.402 147.995 155.536 147.995 154.468C147.995 153.399 147.156 152.533 146.121 152.533C145.086 152.533 144.247 153.399 144.247 154.468C144.247 155.536 145.086 156.402 146.121 156.402Z" fill="#8655FF"/>
<path d="M147.995 166.325C143.85 165.41 138.433 174.426 138.957 176.314C139.481 178.202 152.899 230.234 194.073 226.724C194.204 226.184 194.073 222.408 194.073 222.408C194.073 222.408 159.703 227.161 147.995 166.325Z" fill="#3A3148"/>
<path d="M116.173 77.1682H90.6608C78.7727 77.1682 69.1328 87.1182 69.1328 99.3889C69.1328 111.659 78.7727 121.61 90.6608 121.61H98.7071C105.018 126.463 119.835 137.815 119.255 136.992C118.75 136.274 113.453 127.227 110.176 121.61H116.173C128.061 121.61 137.701 111.659 137.701 99.3889C137.701 87.1182 128.061 77.1682 116.173 77.1682ZM172.422 56.3413C172.422 43.1479 162.06 32.4526 149.278 32.4526C136.496 32.4526 126.134 43.1479 126.134 56.3413C126.134 69.5347 136.496 80.23 149.278 80.23C150.722 80.23 152.132 80.0872 153.501 79.8246L150.98 92.2458L166.048 72.8012L166.037 72.8051C169.994 68.5193 172.422 62.7237 172.422 56.3413Z" fill="#D5D5D5"/>
<path d="M193.752 223.172C194.092 223.068 195.888 222.933 196.097 222.632C196.307 222.331 197.062 220.079 197.691 219.952C198.319 219.821 198.865 223.578 197.691 225.547C196.561 227.087 195.514 226.307 195.177 226.35C194.84 226.392 193.165 226.307 193.165 226.307L193.752 223.172Z" fill="#E2E2E2"/>
<path d="M359.152 376.478C366.582 376.478 369.716 370.354 370.954 363.856C372.35 356.527 371.325 348.724 371.325 348.724H346.984C346.984 348.724 346.946 349.021 346.894 349.554C346.438 354.168 344.971 376.478 359.152 376.478Z" fill="#E2E2E2"/>
<path d="M346.98 348.728C346.98 349.276 352.43 349.72 359.152 349.72C365.874 349.72 371.325 349.276 371.325 348.728C371.325 348.18 365.874 347.735 359.152 347.735C352.43 347.732 346.98 348.176 346.98 348.728Z" fill="#7D7D7D"/>
<path d="M326.192 279.07C326.192 279.07 339.031 299.228 346.733 311.534C354.435 323.839 356.451 326.391 357.368 330.368C358.284 334.341 359.111 349.014 359.111 349.014H359.68C359.68 349.014 359.481 336.561 358.785 332.372C358.116 328.322 358.834 326.866 359.384 322.607C359.934 318.349 360.667 311.534 356.496 306.8C352.325 302.066 353.425 297.429 351.959 294.309C350.492 291.186 339.12 287.402 337.654 284.182C336.188 280.961 329.769 278.973 326.192 279.07Z" fill="#463D56"/>
<path d="M326.192 279.07C326.192 279.07 330.229 283.803 332.978 285.409C335.728 287.02 337.014 285.599 339.12 289.479C341.23 293.359 341.309 295.062 343.243 297.051C345.173 299.039 347.466 299.132 347.649 303.487C347.833 307.839 346.733 311.53 346.733 311.53C346.733 311.53 327.019 280.112 326.192 279.07Z" fill="#3A3148"/>
<path d="M358.094 349.01H357.517C357.517 349.01 357.345 344.979 355.793 343.021C354.794 341.759 350.545 340.326 346.344 338.608C344.032 337.662 341.732 336.631 340 335.492C335.114 332.291 330.464 321.974 330.064 320.136C329.922 319.495 329.862 319.109 329.866 318.843V318.835C329.877 318.341 330.113 318.268 330.524 317.769C330.723 317.53 331.317 317.611 332.043 317.839C334.149 318.503 335.926 319.99 337.026 321.959C338.043 323.777 339.67 326.052 341.664 326.604C345.109 327.553 344.825 328.144 346.097 331.762C347.365 335.38 350.571 335.971 354.588 340.241C358.61 344.504 358.094 349.01 358.094 349.01Z" fill="#463D56"/>
<path d="M346.344 338.608C344.032 337.662 341.732 336.631 340 335.492C335.114 332.291 330.464 321.974 330.064 320.136C329.922 319.495 329.862 319.109 329.866 318.843C329.881 318.963 330.105 320.596 332.649 321.681C335.29 322.804 335.806 322.804 336.15 324.526C336.494 326.245 336.786 328.082 338.163 328.438C339.543 328.793 340.404 327.194 341.492 329.801C342.584 332.407 343.104 333.299 344.107 333.654C345.109 334.009 345.873 333.476 346.097 335.492C346.232 336.724 346.306 337.89 346.344 338.608Z" fill="#3A3148"/>
<path d="M362.313 349.01H362.994C362.994 349.01 364.326 324.051 366.163 321.735C367.345 320.241 371.25 317.557 376.229 315.522C378.967 314.403 381.69 313.179 383.744 311.831C389.527 308.039 395.037 295.819 395.512 293.641C395.681 292.885 395.752 292.425 395.748 292.109V292.101C395.737 291.514 395.453 291.425 394.97 290.838C394.738 290.552 394.031 290.653 393.171 290.923C390.676 291.707 388.573 293.471 387.268 295.8C386.063 297.954 384.133 300.649 381.773 301.298C377.692 302.422 378.028 303.124 376.524 307.406C375.021 311.692 371.227 312.391 366.466 317.445C361.7 322.507 362.313 349.01 362.313 349.01Z" fill="#463D56"/>
<path d="M376.229 315.526C378.967 314.406 381.69 313.182 383.744 311.835C389.527 308.043 395.037 295.823 395.512 293.645C395.68 292.888 395.751 292.429 395.748 292.112C395.733 292.255 395.463 294.19 392.448 295.475C389.321 296.807 388.708 296.807 388.3 298.846C387.892 300.881 387.548 303.059 385.917 303.479C384.286 303.9 383.265 302.005 381.974 305.093C380.68 308.182 380.063 309.236 378.877 309.657C377.687 310.078 376.786 309.445 376.52 311.835C376.363 313.291 376.273 314.673 376.229 315.526Z" fill="#3A3148"/>
<path d="M359.152 376.478C366.581 376.478 369.716 370.354 370.954 363.856C363.671 361.006 354.499 356.438 346.89 349.554C346.437 354.168 344.971 376.478 359.152 376.478Z" fill="#E2E2E2"/>
<path d="M46.1045 373.342C40.8338 373.342 38.608 368.999 37.7327 364.389C36.7452 359.188 37.4709 353.655 37.4709 353.655H54.7419C54.7419 353.655 54.768 353.867 54.8055 354.242C55.1272 357.516 56.1633 373.342 46.1045 373.342Z" fill="#E2E2E2"/>
<path d="M54.7381 353.655C54.7381 354.045 50.8702 354.361 46.1007 354.361C41.3313 354.361 37.4634 354.045 37.4634 353.655C37.4634 353.265 41.3313 352.948 46.1007 352.948C50.8739 352.948 54.7381 353.265 54.7381 353.655Z" fill="#7D7D7D"/>
<path d="M24.603 304.236C24.603 304.236 33.7117 318.538 39.1732 327.268C44.6384 335.998 46.0674 337.809 46.7183 340.631C47.3692 343.45 47.9527 353.859 47.9527 353.859H48.6672C48.6672 353.859 49.1236 345.064 48.2782 342.176C47.4328 339.287 47.7582 338.148 48.1473 335.125C48.5363 332.102 49.0563 327.268 46.0973 323.912C43.1384 320.557 43.9165 317.264 42.8765 315.051C41.8366 312.835 33.7678 310.151 32.7279 307.866C31.6955 305.58 27.143 304.171 24.603 304.236Z" fill="#463D56"/>
<path d="M24.603 304.236C24.603 304.236 27.4647 307.595 29.4174 308.734C31.37 309.877 32.279 308.87 33.7753 311.623C35.2716 314.376 35.3277 315.584 36.7006 316.993C38.0697 318.403 39.6969 318.472 39.8278 321.561C39.9588 324.65 39.177 327.268 39.177 327.268C39.177 327.268 25.1903 304.974 24.603 304.236Z" fill="#463D56"/>
<path d="M45.8131 353.855H45.1622C45.1622 353.855 44.9677 349.292 43.2095 347.075C42.0761 345.647 37.2655 344.021 32.5073 342.075C29.8887 341.002 27.2852 339.836 25.3213 338.546C19.7925 334.921 14.5218 323.237 14.0691 321.156C13.9083 320.43 13.8372 319.99 13.841 319.688V319.681C13.8522 319.121 14.1215 319.036 14.5854 318.472C14.8098 318.198 15.4831 318.295 16.3061 318.553C18.6927 319.302 20.7015 320.99 21.9509 323.217C23.103 325.279 24.9472 327.855 27.2066 328.476C31.1082 329.554 30.7865 330.222 32.2267 334.318C33.6631 338.415 37.2917 339.083 41.8441 343.917C46.3966 348.751 45.8131 353.855 45.8131 353.855Z" fill="#463D56"/>
<path d="M32.5073 342.075C29.8887 341.002 27.2852 339.836 25.3213 338.546C19.7925 334.921 14.5218 323.237 14.0691 321.156C13.9083 320.43 13.8372 319.99 13.841 319.688C13.8559 319.827 14.114 321.673 16.9944 322.905C19.9833 324.179 20.5706 324.179 20.9596 326.129C21.3486 328.075 21.6778 330.156 23.2377 330.561C24.7976 330.963 25.7739 329.152 27.0084 332.106C28.2466 335.06 28.8338 336.067 29.971 336.469C31.1082 336.87 31.9686 336.268 32.223 338.55C32.3763 339.94 32.4624 341.264 32.5073 342.075Z" fill="#3A3148"/>
<path d="M46.1047 373.342C40.834 373.342 38.6082 368.999 37.7329 364.388C42.8989 362.365 49.4078 359.126 54.8056 354.241C55.1273 357.516 56.1635 373.342 46.1047 373.342Z" fill="#E2E2E2"/>
</svg>
