<svg width="266" height="198" viewBox="0 0 266 198" fill="none" xmlns="http://www.w3.org/2000/svg">
<g clip-path="url(#clip0_117_545)">
<path d="M17.3923 104.784V191.342C17.3923 195.02 20.3013 198 23.8865 198C27.4717 198 30.38 195.02 30.38 191.342V142.729H32.8146V191.342C32.8146 195.02 35.7229 198 39.3081 198C42.8947 198 45.8015 195.02 45.8015 191.342V104.783C47.8917 103.665 50.751 101.673 53.5553 98.231C54.9716 96.498 56.347 94.399 57.6 91.9104V87.5472C55.984 86.5441 54.0764 85.1369 52.0915 83.2312C50.6515 87.5601 48.8263 90.5831 47.1057 92.7072C45.2893 94.9348 43.5398 96.2088 42.3039 96.928C41.7583 97.2462 41.3189 97.4478 41.0175 97.5734H22.1793C21.0711 97.113 18.05 95.5916 15.0846 91.3791C11.7859 86.6666 8.4145 78.4167 8.40485 63.8142C8.40337 63.3371 8.40782 62.8606 8.4145 62.3865C8.45607 60.0074 6.60854 58.0446 4.28745 58.0028C1.96709 57.9602 0.0534999 59.856 0.0126747 62.235C0.00302508 62.7754 5.5973e-05 63.3021 5.5973e-05 63.815C-0.0185009 81.3651 4.5799 92.0413 9.63852 98.231C12.4428 101.674 15.3036 103.666 17.3923 104.784Z" fill="#3A3148"/>
<path d="M31.5981 94.5056C38.1248 94.5056 43.4158 89.0807 43.4158 82.3887C43.4158 75.6968 38.1248 70.2719 31.5981 70.2719C25.0713 70.2719 19.7803 75.6968 19.7803 82.3887C19.7803 89.0807 25.0713 94.5056 31.5981 94.5056Z" fill="#3A3148"/>
<path d="M60.5691 85.7708V189.984C60.5691 194.412 64.0704 197.999 68.386 197.999C72.7045 197.999 76.2059 194.412 76.2059 189.984V131.455H79.1356V189.984C79.1356 194.412 82.6369 197.999 86.954 197.999C91.2726 197.999 94.7724 194.412 94.7724 189.984V85.7708C97.2895 84.4245 100.731 82.0272 104.107 77.8825C105.089 76.6823 106.055 75.3397 106.987 73.8465V69.5831C105.044 68.2779 102.846 66.5365 100.593 64.2785C99.2439 67.2101 97.7631 69.4773 96.3409 71.2315C94.1549 73.9135 92.0512 75.4486 90.5622 76.3139C89.9038 76.6967 89.3761 76.9403 89.0124 77.0909H66.3314C64.9975 76.5361 61.3603 74.705 57.7892 69.6333C53.8181 63.9604 49.7608 54.027 49.7474 36.4472C49.7459 35.8726 49.7519 35.2988 49.7608 34.728C49.8098 31.8634 47.5844 29.501 44.7927 29.4508C41.9973 29.3998 39.694 31.6815 39.6465 34.5461C39.6332 35.1953 39.6309 35.8292 39.6309 36.448C39.6079 57.5766 45.1446 70.4309 51.2349 77.8832C54.6101 82.0272 58.0535 84.4253 60.5691 85.7708Z" fill="#3A3148"/>
<path d="M77.6718 73.3968C85.5297 73.3968 91.8998 66.8655 91.8998 58.8087C91.8998 50.752 85.5297 44.2207 77.6718 44.2207C69.8139 44.2207 63.4438 50.752 63.4438 58.8087C63.4438 66.8655 69.8139 73.3968 77.6718 73.3968Z" fill="#3A3148"/>
<path d="M224.982 97.5741C224.68 97.4486 224.241 97.2476 223.695 96.9288C222.46 96.2096 220.711 94.9355 218.894 92.7079C217.174 90.5838 215.349 87.5616 213.909 83.2335C211.924 85.1376 210.016 86.5448 208.401 87.5479V91.9141C209.654 94.4013 211.029 96.4995 212.444 98.2317C215.248 101.674 218.108 103.666 220.198 104.784V191.342C220.198 195.021 223.105 198.001 226.691 198.001C230.277 198.001 233.185 195.021 233.185 191.342V142.729H235.619V191.342C235.619 195.021 238.528 198.001 242.113 198.001C245.698 198.001 248.607 195.021 248.607 191.342V104.784C250.696 103.666 253.557 101.673 256.36 98.2309C261.419 92.0412 266.018 81.3643 265.999 63.815C265.999 63.302 265.996 62.7746 265.985 62.2358C265.944 59.8567 264.031 57.9609 261.71 58.0035C259.389 58.0454 257.543 60.0074 257.583 62.3872C257.59 62.8614 257.595 63.3378 257.593 63.815C257.583 78.4175 254.212 86.6674 250.913 91.3799C247.948 95.5923 244.928 97.1137 243.819 97.5741H224.982Z" fill="#3A3148"/>
<path d="M234.401 94.5056C240.928 94.5056 246.219 89.0807 246.219 82.3887C246.219 75.6968 240.928 70.2719 234.401 70.2719C227.874 70.2719 222.583 75.6968 222.583 82.3887C222.583 89.0807 227.874 94.5056 234.401 94.5056Z" fill="#3A3148"/>
<path d="M176.987 77.0909C176.623 76.9403 176.095 76.6967 175.437 76.3139C173.948 75.4486 171.844 73.9143 169.658 71.2315C168.237 69.4765 166.755 67.2086 165.406 64.277C163.155 66.5327 160.957 68.2756 159.014 69.5831V73.8481C159.946 75.3397 160.912 76.683 161.893 77.8825C165.269 82.0272 168.711 84.4253 171.228 85.7708V189.985C171.228 194.413 174.727 198 179.046 198C183.363 198 186.864 194.413 186.864 189.985V131.456H189.794V189.985C189.794 194.413 193.295 198 197.614 198C201.93 198 205.431 194.413 205.431 189.985V85.7708C207.947 84.4245 211.389 82.0272 214.766 77.8817C220.856 70.4294 226.393 57.575 226.37 36.4465C226.37 35.8277 226.367 35.1938 226.353 34.5446C226.306 31.6799 224.002 29.3983 221.207 29.4493C218.414 29.4995 216.189 31.8618 216.238 34.7265C216.247 35.2973 216.253 35.8711 216.252 36.4457C216.238 54.0255 212.181 63.9588 208.21 69.6318C204.639 74.7035 201.002 76.5346 199.668 77.0894H176.987V77.0909Z" fill="#3A3148"/>
<path d="M188.328 73.3968C196.186 73.3968 202.556 66.8655 202.556 58.8087C202.556 50.752 196.186 44.2207 188.328 44.2207C180.47 44.2207 174.1 50.752 174.1 58.8087C174.1 66.8655 180.47 73.3968 188.328 73.3968Z" fill="#3A3148"/>
<path d="M112.925 66.1127V188.44C112.925 193.638 117.035 197.849 122.101 197.849C127.17 197.849 131.28 193.638 131.28 188.44V119.739H134.72V188.44C134.72 193.638 138.83 197.849 143.897 197.849C148.965 197.849 153.075 193.638 153.075 188.44V66.112C156.029 64.532 160.069 61.7176 164.032 56.8529C171.183 48.106 177.682 33.0164 177.653 8.21497C177.652 7.47674 177.646 6.74156 177.638 6.01474C177.597 2.65085 174.905 -0.0410216 171.625 0.00159781C168.347 0.0434562 165.722 2.80383 165.763 6.16543C165.77 6.86942 165.778 7.55513 165.778 8.21497C165.749 30.9433 160.006 42.7649 154.917 49.0467C152.351 52.1952 149.881 53.9959 148.132 55.0119C147.361 55.4617 146.742 55.7471 146.314 55.9244H119.69C118.124 55.2737 113.856 53.1237 109.664 47.1699C105.002 40.5106 100.238 28.8512 100.223 8.21497C100.222 7.53991 100.228 6.86713 100.238 6.19664C100.296 2.83427 97.6856 0.0617217 94.4062 0.00235887C91.1268 -0.058526 88.4227 2.62041 88.3648 5.98278C88.35 6.7446 88.3463 7.48892 88.3463 8.21497C88.3188 33.0164 94.8182 48.1052 101.969 56.8521C105.931 61.7176 109.971 64.5328 112.925 66.1127Z" fill="#3A3148"/>
<path d="M133.001 51.587C142.225 51.587 149.702 43.9204 149.702 34.4631C149.702 25.0059 142.225 17.3392 133.001 17.3392C123.777 17.3392 116.3 25.0059 116.3 34.4631C116.3 43.9204 123.777 51.587 133.001 51.587Z" fill="#3A3148"/>
</g>
<defs>
<clipPath id="clip0_117_545">
<rect width="266" height="198" fill="white"/>
</clipPath>
</defs>
</svg>
