<svg width="1280" height="421" viewBox="0 0 1280 421" fill="none" xmlns="http://www.w3.org/2000/svg">
<rect y="10.887" width="1287" height="409.747" fill="#F8F8FF"/>
<path d="M1511.25 2.65337C1607.35 -8.2396 2182.02 2.65336 2654.76 269.036L2713 578H-171V180.902C-156.763 210.28 -122.658 275.077 -100.138 299.239C-71.9868 329.442 106.625 371.529 225.053 385.888C343.48 400.247 595.866 376.48 747.298 269.036C898.73 161.592 997.743 134.854 1081.22 97.2241C1148.01 67.1199 1286.37 35.1672 1347.2 22.9539C1369.85 19.818 1434.37 11.3677 1511.25 2.65337Z" fill="#C8C7F0" fill-opacity="0.9"/>
<path d="M-18.7637 2.65337C-101.469 -8.2396 -596.031 2.65336 -1002.88 269.036L-1053 578H1429V180.902C1416.75 210.28 1387.4 275.077 1368.02 299.239C1343.79 329.442 1190.07 371.529 1088.15 385.888C986.233 400.247 769.027 376.48 638.703 269.036C508.379 161.592 423.167 134.854 351.322 97.2241C293.846 67.1199 174.773 35.1672 122.42 22.9539C102.927 19.818 47.4006 11.3677 -18.7637 2.65337Z" fill="#E2E1F3" fill-opacity="0.75"/>
<path d="M261.683 203.025C214.427 179.217 72.9636 109.876 -120.13 96.9932L-152 497.832L1394 481.977V380.9L1322.14 319.957C1300.89 306.579 1250.77 276.256 1242.77 273.878L1242.26 273.723C1231.08 270.397 1179.73 255.109 1141.54 257.031C1102.17 259.013 1069.68 264.959 1005.31 294.192C979.067 301.129 898.455 341.758 817.218 363.559C735.981 385.359 669.742 384.368 614.126 380.9C558.51 377.432 441.029 308.561 421.032 300.633C405.5 294.476 312.5 228.627 261.683 203.025Z" fill="#BFBEFF" fill-opacity="0.58"/>
</svg>
