<svg width="1280" height="427" viewBox="0 0 1280 427" fill="none" xmlns="http://www.w3.org/2000/svg">
<path d="M1511.25 2.68091C1607.35 -8.32513 2182.02 2.68091 2654.76 271.829L2713 584H-171V182.78C-156.763 212.463 -122.658 277.932 -100.138 302.345C-71.9868 332.862 106.625 375.385 225.053 389.893C343.48 404.401 595.866 380.388 747.298 271.829C898.73 163.269 997.743 136.254 1081.22 98.2334C1148.01 67.8167 1286.37 35.5323 1347.2 23.1922C1369.85 20.0238 1434.37 11.4857 1511.25 2.68091Z" fill="#C8C7F0" fill-opacity="0.9"/>
<path d="M-18.7637 2.68091C-101.469 -8.32513 -596.031 2.68091 -1002.88 271.829L-1053 584H1429V182.78C1416.75 212.463 1387.4 277.932 1368.02 302.345C1343.79 332.862 1190.07 375.385 1088.15 389.893C986.233 404.401 769.027 380.388 638.703 271.829C508.379 163.269 423.167 136.254 351.322 98.2334C293.846 67.8167 174.773 35.5323 122.42 23.1922C102.927 20.0238 47.4006 11.4857 -18.7637 2.68091Z" fill="#E2E1F3" fill-opacity="0.75"/>
<path d="M261.683 205.132C214.427 181.077 72.9636 111.016 -120.13 98L-152 503L1394 486.98V384.854L1322.14 323.278C1300.89 309.761 1250.77 279.124 1242.77 276.721L1242.26 276.565C1231.08 273.204 1179.73 257.757 1141.54 259.7C1102.17 261.702 1069.68 267.71 1005.31 297.246C979.067 304.255 898.455 345.305 817.218 367.333C735.981 389.36 669.742 388.358 614.126 384.854C558.51 381.35 441.029 311.764 421.032 303.754C405.5 297.532 312.5 231 261.683 205.132Z" fill="#BFBEFF" fill-opacity="0.58"/>
</svg>
