<svg width="1265" height="178" viewBox="0 0 1265 178" fill="none" xmlns="http://www.w3.org/2000/svg">
<path d="M567 176C567 176 585.697 121.34 698.981 112.935C812.262 104.534 798.56 35.3289 953.338 38.0798C1108.12 40.8363 1076.22 105.222 1137.82 119.68C1199.41 134.143 1228 176 1228 176H567Z" fill="#F0EAFF"/>
<path d="M585 176C585 176 585 131.566 463.029 115.917C341.055 100.27 370.096 18.7675 217.627 31.3057C65.1606 43.8439 139.217 127.225 79.6835 145.405C20.15 163.586 33.2158 175.999 33.2158 175.999H585V176Z" fill="#F0EAFF"/>
<path d="M1181.9 175.772L1177.3 175.807L1260.84 46.3473C1286.91 50.8736 1181.9 175.772 1181.9 175.772ZM1151.64 176L1072 77.5685C1092.64 77.134 1119.33 115.618 1131.76 135.579C1135.94 142.782 1138.7 147.254 1138.7 147.254C1138.7 147.254 1136.1 142.548 1131.76 135.579C1115.03 106.743 1075.57 33.9538 1099.17 27.0475L1161.33 175.928L1151.64 176ZM1171.19 175.853L1178.29 0C1207.05 8.41611 1181.9 152.687 1181.9 152.687C1181.9 152.687 1230.82 49.0345 1258.13 46.2642L1174.52 175.826L1171.19 175.853Z" fill="#C6BAFF"/>
<path d="M1163.48 175.823L1101.58 26.9288C1133.96 24.4844 1163.56 152.665 1163.56 152.665C1163.56 152.665 1142.11 0 1174.92 0C1174.94 0 1174.97 0.00441974 1175 0.00441974L1167.93 175.789L1163.48 175.823ZM1139.59 176C1139.59 176 1041.18 84.6414 1068.93 78.1308C1069.12 78.0866 1069.32 78.0612 1069.51 78.0236L1148.38 175.937L1139.59 176Z" fill="#C6BAFF"/>
<path d="M99.463 175.908L37.5116 26.9418C69.9182 24.4985 99.5521 152.739 99.5521 152.739C99.5521 152.739 78.0836 0 110.918 0C110.946 0 110.972 0.00442188 111 0.00442188L103.933 175.874L99.463 175.908ZM87.1435 176L8 77.7881C28.5052 77.3524 55.0325 115.753 67.3927 135.669C71.5467 142.856 74.2915 147.318 74.2915 147.318C74.2915 147.318 71.7047 142.623 67.3927 135.669C50.7688 106.898 11.545 34.2674 35.0039 27.3798L96.7845 175.928L87.1435 176Z" fill="#C6BAFF"/>
<path d="M66 131C71.6287 139.356 75 145 75 145C75 145 71.4193 139.638 66 131Z" fill="#C6BAFF"/>
<path d="M75.6881 176C75.6881 176 -22.8542 84.4372 4.94089 77.9121C5.13211 77.8678 5.32332 77.8423 5.51454 77.8024L84.4967 175.937L75.6881 176ZM117.381 175.686L112.802 175.722L195.866 46.3249C221.782 50.8489 117.381 175.686 117.381 175.686ZM106.729 175.767L113.788 0C142.384 8.41203 117.383 152.613 117.383 152.613C117.383 152.613 166.018 49.0107 193.173 46.2418L110.041 175.74L106.729 175.767Z" fill="#C6BAFF"/>
<path d="M109.783 175.803L192.324 46.5443C193.188 46.4525 194.028 46.4669 194.843 46.5918C194.899 46.5985 194.944 46.6206 195 46.6272L112.527 175.784L109.783 175.803ZM103.859 175.851L110.879 0C111.8 0.00774171 112.671 0.143772 113.501 0.388189L106.492 175.83L103.859 175.851ZM96.7586 175.907L35.3947 27.3736C35.8321 27.244 36.3007 27.1357 36.792 27.0506C37.1474 26.9972 37.5136 26.9587 37.8856 26.9356L99.4216 175.886L96.7586 175.907ZM84.4205 176L6 78.0475C6.81107 77.8878 7.68341 77.7959 8.57191 77.7765L87.1848 175.978L84.4205 176Z" fill="white"/>
<path d="M153 157C155.024 158.897 156 160 156 160C156 160 154.874 158.956 153 157Z" fill="#8943FF"/>
</svg>
