<svg width="21" height="19" viewBox="0 0 21 19" fill="none" xmlns="http://www.w3.org/2000/svg">
<path d="M11.81 9.50259L19.6976 2.03908C19.8174 1.92967 19.9128 1.79881 19.9785 1.65411C20.0442 1.50941 20.0788 1.35378 20.0803 1.19631C20.0817 1.03883 20.05 0.882659 19.987 0.736904C19.9239 0.591148 19.8309 0.458729 19.7132 0.347372C19.5955 0.236015 19.4555 0.14795 19.3015 0.0883172C19.1475 0.028684 18.9824 -0.00132365 18.816 4.478e-05C18.6495 0.00141321 18.4851 0.0341306 18.3321 0.0962878C18.1792 0.158445 18.0409 0.248797 17.9253 0.362073L10.0373 7.82529L2.14971 0.362073C1.91378 0.143745 1.59638 0.0222579 1.26638 0.0239774C0.936379 0.025697 0.620409 0.150484 0.38704 0.371258C0.15367 0.592031 0.0217317 0.890977 0.019856 1.20322C0.0179803 1.51546 0.146319 1.81581 0.377021 2.03908L8.26496 9.50259L0.377021 16.9661C0.258499 17.0758 0.16415 17.2066 0.0994366 17.351C0.0347235 17.4955 0.000932006 17.6506 1.9009e-05 17.8075C-0.000893988 17.9643 0.0310897 18.1198 0.0941178 18.2649C0.157146 18.41 0.249966 18.5418 0.367204 18.6527C0.484442 18.7636 0.62377 18.8514 0.777118 18.911C0.930466 18.9706 1.09479 19.0009 1.26057 19C1.42635 18.9991 1.5903 18.9671 1.74292 18.9058C1.89555 18.8446 2.03381 18.7553 2.14971 18.6431L10.0373 11.1799L17.9253 18.6431C18.17 18.8747 18.4909 18.9906 18.8115 18.9906C19.132 18.9906 19.4532 18.8747 19.6976 18.6431C19.9326 18.4207 20.0646 18.1191 20.0646 17.8046C20.0646 17.4901 19.9326 17.1885 19.6976 16.9661L11.81 9.50259Z" fill="#C6BAFF"/>
</svg>
