<svg width="38" height="30" viewBox="0 0 38 30" fill="none" xmlns="http://www.w3.org/2000/svg">
<g clip-path="url(#clip0_282_14)">
<path d="M0 3.52594V2.5C0 1.83696 0.250223 1.20107 0.695621 0.732233C1.14102 0.263392 1.74511 0 2.375 0L35.625 0C36.2549 0 36.859 0.263392 37.3044 0.732233C37.7498 1.20107 38 1.83696 38 2.5V3.52594L19 16.0259L0 3.52594ZM19.6294 18.5603C19.4406 18.6843 19.2225 18.7501 19 18.7501C18.7775 18.7501 18.5594 18.6843 18.3706 18.5603L0 6.47406V27.5C0 28.163 0.250223 28.7989 0.695621 29.2678C1.14102 29.7366 1.74511 30 2.375 30H35.625C36.2549 30 36.859 29.7366 37.3044 29.2678C37.7498 28.7989 38 28.163 38 27.5V6.47406L19.6294 18.5603Z" fill="#B6B6B6"/>
</g>
<defs>
<clipPath id="clip0_282_14">
<rect width="38" height="30" fill="white"/>
</clipPath>
</defs>
</svg>
