<svg width="40" height="39" viewBox="0 0 40 39" fill="none" xmlns="http://www.w3.org/2000/svg">
<ellipse cx="20" cy="19.5" rx="20" ry="19.5" fill="white"/>
<g clip-path="url(#clip0_192_1140)">
<path d="M20 37C29.3888 37 37 29.3888 37 20C37 10.6112 29.3888 3 20 3C10.6112 3 3 10.6112 3 20C3 29.3888 10.6112 37 20 37Z" fill="#CCB8FF"/>
<path d="M25.5274 8.21808H21.7615C19.5267 8.21808 17.041 9.15801 17.041 12.3975C17.0519 13.5262 17.041 14.6073 17.041 15.8239H14.4556V19.938H17.121V31.7818H22.0187V19.8598H25.2515L25.544 15.8123H21.9344C21.9344 15.8123 21.9424 14.0118 21.9344 13.4889C21.9344 12.2088 23.2664 12.2821 23.3465 12.2821C23.9804 12.2821 25.2129 12.2839 25.5293 12.2821V8.21808H25.5274Z" fill="white"/>
</g>
<defs>
<clipPath id="clip0_192_1140">
<rect width="34" height="34" fill="white" transform="translate(3 3)"/>
</clipPath>
</defs>
</svg>
