<svg width="540" height="477" viewBox="0 0 540 477" fill="none" xmlns="http://www.w3.org/2000/svg">
<path d="M480.184 178.141C498.625 235.324 474.373 292.936 427.136 350.78L265.904 210.137C308.827 154.966 331.253 97.8659 318.953 37.4977L480.184 178.141Z" fill="#C5C3D1"/>
<path d="M480.198 177.777C426.719 229.052 413.146 287.987 426.956 351.051L265.725 210.407C252.191 153.79 273.31 95.5126 318.966 37.1337L480.198 177.777Z" fill="#F0EAFF"/>
<path opacity="0.1" d="M65.9949 382.201C101.368 381.7 114.349 353.675 210.908 327.94C288.973 307.135 392.329 311.794 336.172 262.103C297.591 227.964 276.688 269.069 167.2 301.478C107.815 319.056 66.5756 323.432 41.1898 329.234C11.5717 336.003 21.3065 382.834 65.9949 382.201Z" fill="black"/>
<path d="M256.905 240.743C242.144 262.227 333.454 298.147 351.547 289.622C363.49 283.995 357.996 260.996 371.64 231.915C382.998 207.709 402.957 186.477 409.318 172.919C416.374 157.879 410.526 139.762 394.777 127.873C385.579 120.931 367.185 107.045 357.987 100.102C346.217 91.2169 327.63 93.3302 323.265 104.899C315.371 125.82 302.692 171.841 287.65 201.151C279.192 217.631 258.675 238.166 256.905 240.743Z" fill="#CFC4EC"/>
<path d="M413.263 147.832C421.864 153.073 422.664 161.821 417.771 168.752C404.171 188.019 374.515 222.364 355.825 233.802C349.316 237.785 344.451 232.177 336.237 220.874C318.64 196.658 321.117 140.45 321.117 140.45C326.796 144.136 336.756 143.971 340.268 139.609L355.093 189.688C355.093 189.688 379.522 160.156 387.665 150.312C393.156 143.674 404.617 142.563 413.263 147.832Z" fill="#CFC4EC"/>
<path d="M303.256 258.762C281.582 274.442 248.657 281.197 179.289 292.962C160.995 296.064 159.433 274.333 164.925 271.109C177.967 263.452 282.361 211.298 299.5 211.626C317.629 211.973 321.433 245.611 303.256 258.762Z" fill="black"/>
<path d="M15.9953 308.321L18.8356 306.911C18.3052 307.175 18.0541 307.796 18.2378 308.923C18.341 309.557 18.5892 310.356 18.9509 311.272C21.0254 316.518 23.0349 319.57 26.7174 323.177C33.0823 329.414 36.0772 330.185 42.817 334.261C52.0426 339.833 63.4215 348.124 66.5249 346.584L63.6845 347.994C60.5811 349.534 49.202 341.243 39.9766 335.67C33.2367 331.595 30.2417 330.823 23.8771 324.587C20.1946 320.979 18.1851 317.928 16.1105 312.681C15.7488 311.766 15.5004 310.966 15.3973 310.332C15.2138 309.206 15.4646 308.584 15.9953 308.321Z" fill="white"/>
<path d="M86.0814 318.766C86.0814 318.766 95.9472 336.029 96.4905 342.353C90.1931 343.582 83.4785 345.082 76.2862 346.954C70.4877 345.01 58.0595 326.112 70.9829 322.35C75.7466 321.397 80.8244 320.174 86.0814 318.766Z" fill="#663AB0"/>
<path d="M59.0167 338.215L65.9209 346.698C67.2725 346.621 70.3595 345.34 71.0929 340.715L71.9514 330.708L59.0167 338.215Z" fill="black"/>
<path d="M88.3587 340.357L87.5194 320.423C79.0126 323.474 63.1635 326.459 50.7159 327.93L62.1574 343.053L88.3587 340.357Z" fill="#C0ADF0"/>
<path d="M76.2859 346.955C136.86 327.398 180.36 335.69 199.859 317.03C209.202 308.089 200.761 282.299 189.141 285.906C171.088 291.51 106.808 315.184 70.9824 322.35C76.8695 322.932 83.9736 342.73 76.2859 346.955Z" fill="#3A3148"/>
<path d="M331.85 283.753C308.655 297.853 268.652 296.668 200.895 316.055C189.641 319.274 177.77 291.336 188.067 286.339C198.269 281.388 266.441 253.563 303.181 241.903C316.176 237.778 326.464 235.208 330.952 235.587C349.124 237.12 351.302 271.928 331.85 283.753Z" fill="#3A3148"/>
<path d="M54.3907 368.848C55.4999 369.176 56.6133 369.467 57.6942 369.705C65.8095 371.488 71.9152 370.324 73.8433 369.683C76.8979 368.671 77.0261 365.672 82.7756 364.283C88.7193 362.848 94.4577 362.154 94.599 360.965L94.2451 363.939C94.1038 365.127 88.3654 365.821 82.4219 367.256C76.6723 368.646 76.5443 371.644 73.4896 372.656C71.5611 373.297 65.4558 374.461 57.3403 372.678C56.2592 372.441 55.1462 372.149 54.037 371.821C47.8078 369.978 41.6849 366.97 41.8265 365.78L42.1802 362.806C42.0388 363.997 48.1613 367.005 54.3907 368.848Z" fill="white"/>
<path d="M82.8697 358.241L94.2151 361.445C97.2048 359.036 94.4216 354.201 94.0142 349.635L86.2777 344.964L82.8697 358.241Z" fill="black"/>
<path d="M98.4582 327.643C98.4582 327.643 114.576 339.017 118.297 344.764C113.506 348.248 109.081 352.535 103.851 356.955C97.8586 357.27 77.4377 344.091 86.631 335.774C90.2428 333.117 94.6555 330.911 98.4582 327.643Z" fill="#522F8C"/>
<path d="M109.11 348.406L97.1151 328.058C90.8043 333 74.5637 346.892 66.4146 353.949L89.7939 359.046L109.11 348.406Z" fill="#C0ADF0"/>
<path d="M103.852 356.955C137.855 328.217 167.547 320.883 178.327 305.363C181.582 300.677 177.62 296.569 186.732 286.611C183.121 277.087 167.588 268.843 164.651 271.338C151.272 282.703 113.794 315.789 86.631 335.774C91.9995 334.146 108.299 350.14 103.852 356.955Z" fill="black"/>
<path d="M54.3904 368.848C55.4999 369.177 56.6131 369.468 57.694 369.705C65.8093 371.489 71.915 370.324 73.8431 369.683C76.8977 368.672 77.0259 365.673 82.7754 364.283C87.8753 363.052 92.8237 362.366 94.2153 361.446C94.363 361.348 93.7119 357.186 93.4394 357.065C89.8824 358.203 82.107 357.528 77.585 355.363C72.248 352.809 71.837 349.142 70.0733 349.687C64.7482 351.332 42.9058 360.769 42.1969 362.736C41.7863 363.873 48.033 366.967 54.3904 368.848Z" fill="black"/>
<path d="M18.9507 311.272C21.0253 316.518 23.035 319.57 26.7172 323.177C33.0821 329.413 36.0771 330.185 42.8168 334.261C53.3187 340.604 66.6113 350.47 67.31 345.347C67.3322 345.185 69.3437 342.685 68.4806 342.364C64.3512 342.594 58.6486 337.106 57.9449 333.513C57.2619 330.026 59.6422 326.646 58.7775 325.874C49.7936 325.417 27.2074 306.688 18.9308 306.869C18.2533 306.884 18.0432 307.731 18.2374 308.923C18.3406 309.557 18.5887 310.356 18.9507 311.272Z" fill="black"/>
<path d="M231.15 220.013C231.009 223.787 228.474 227.279 226.326 228.445C222.314 230.622 220.196 235.686 218.75 241.018C216.08 250.859 230.694 254.173 234.965 253.67C237.966 253.316 234.491 247.401 238.666 243.41C240.962 241.215 245.413 237.29 244.923 233.212C244.796 232.151 246.339 226.311 246.899 223.076L231.15 220.013Z" fill="#ABA0DE"/>
<path d="M245.552 244.118C244.907 246.496 243.304 248.875 242.264 252.033C241.833 253.338 239.451 252.396 238.41 250.717C237.5 249.249 238.981 245.697 239.273 243.888C239.13 243.044 239.076 242.177 239.06 241.835L244.557 233.621C246.118 237.887 246.049 242.281 245.552 244.118Z" fill="#ABA0DE"/>
<path d="M340.393 106.415C333.391 119.429 304.183 167.051 304.183 167.051L247.295 233.452C241.18 233.845 228.958 225.454 229.311 221.97L280.236 154.666C280.236 154.666 300.927 105.208 307.156 92.4736C310.969 84.6794 322.461 82.023 331.922 86.7493C340.368 90.9688 344.074 99.5729 340.393 106.415Z" fill="#463D56"/>
<path d="M251.726 228.535L247.294 233.452C241.18 233.846 228.957 225.454 229.311 221.97L233.029 217.096C234.619 222.618 244.406 229.04 251.726 228.535Z" fill="#0D0716"/>
<path d="M250.714 227.941C235.954 249.424 327.263 285.344 345.357 276.819C357.299 271.193 351.806 248.193 365.45 219.112C376.807 194.907 396.766 173.675 403.128 160.116C410.184 145.077 404.335 126.959 388.586 115.071C379.389 108.128 360.994 94.2425 351.797 87.2995C340.027 78.4144 321.44 80.5277 317.075 92.0967C309.181 113.018 296.501 159.039 281.459 188.349C273.002 204.828 252.485 225.364 250.714 227.941Z" fill="#C6BAFF"/>
<path d="M343.47 101.369C338.947 95.3527 341.585 90.749 351.284 92.7184C354.557 93.3828 397.02 115.462 394.877 116.972C389.141 121.015 354.496 116.033 343.47 101.369Z" fill="#0D0716"/>
<path d="M344.35 99.8515C339.827 93.8354 342.465 89.2315 352.164 91.2011C355.436 91.8656 397.9 113.944 395.757 115.455C390.021 119.497 355.376 114.515 344.35 99.8515Z" fill="#A79CD9"/>
<path d="M316.629 109.698C318.471 112.757 331.651 102.599 339.858 99.2759C345.461 97.0075 346.616 98.4425 348.955 97.5134C360.985 92.736 372.192 54.3191 372.192 54.3191L347.102 44.4857C345.864 51.8824 339.469 57.2987 336.66 64.1015C335.094 67.8929 335.241 75.5234 333.481 78.4312C330.9 82.6962 313.607 104.68 316.629 109.698Z" fill="#0D0716"/>
<path d="M318.832 110.165L329.342 110.359C329.342 110.359 329.917 105.678 329.395 103.239C328.849 100.692 326.913 99.8217 325.915 96.0827C325.388 94.1081 321.632 93.25 320.462 94.3802C319.032 95.7618 322.44 104.053 322.44 104.053L318.832 110.165Z" fill="#C0ADF0"/>
<path d="M313.398 72.0886L296.655 107.453C296.201 108.411 296.538 109.565 297.504 110.359L312.009 122.28C312.91 123.02 314.338 122.854 314.761 121.96L331.504 86.5957C331.958 85.6372 331.621 84.4832 330.655 83.6896L316.15 71.7687C315.25 71.0284 313.821 71.1943 313.398 72.0886Z" fill="white"/>
<path d="M301.755 112.735C308.269 118.071 332.898 128.706 332.898 128.706C332.898 128.706 332.835 113.697 329.279 108.827C324.57 102.38 307.567 92.6482 299.723 93.6272C296.965 93.9715 293.379 95.8313 292.923 98.1049C292.169 101.86 298.241 109.857 301.755 112.735Z" fill="#CCB8FF"/>
<path d="M314.619 119.679L316.099 144.507L336.613 144.259L332.536 122.102L314.619 119.679Z" fill="#CCB8FF"/>
<path d="M367.792 58.888L398.583 71.0342L379.333 111.706L348.542 99.5599L367.792 58.888Z" fill="#A79CD9"/>
<path d="M337.321 125.008L339.349 124.974C334.873 95.0373 350.895 59.672 351.057 59.3176L349.138 58.5795C348.973 58.9363 332.784 94.6576 337.321 125.008Z" fill="white"/>
<path d="M346.027 54.0435C344.25 62.6588 345.097 74.1406 346.886 81.7649C347.614 84.8654 345.539 86.2401 348.384 89.3448C356.437 98.1316 383.293 95.9883 395.408 90.0653C400.162 87.741 413.266 78.1365 414.866 75.8512C417.631 71.9002 417.918 69.5709 419.961 64.5098C429.837 40.0415 416.334 28.7225 392.992 22.4163C375.785 17.7677 363.527 19.8794 352.256 32.7567C350.343 34.9425 346.76 50.4943 346.027 54.0435Z" fill="#CCB8FF"/>
<path d="M282.861 209.031C283.645 209.339 284.448 209.488 285.269 209.48C293.33 209.387 301.292 193.337 311.368 173.021C319.395 156.842 328.485 138.513 339.107 125.627C374.363 105.345 392.011 74.4025 392.185 74.0916L390.313 73.2526C390.142 73.5613 372.64 104.23 337.695 124.28L337.472 124.467C326.708 137.486 317.548 155.95 309.465 172.243C300.42 190.481 291.874 207.71 285.028 207.787C283.481 207.803 281.975 206.872 280.429 204.921C279.118 201.344 298.143 152.085 311.266 119.865L309.322 119.18C301.425 138.567 275.882 202.11 278.757 205.74C280.042 207.365 281.416 208.465 282.861 209.031Z" fill="white"/>
<path d="M407.072 135.03C415.674 140.271 416.473 149.019 411.581 155.95C397.981 175.216 368.325 209.562 349.635 220.999C343.125 224.983 338.261 219.375 330.047 208.072C312.45 183.856 314.926 127.647 314.926 127.647C320.606 131.334 330.565 131.169 334.078 126.807L348.902 176.886C348.902 176.886 373.331 147.354 381.474 137.51C386.965 130.872 398.426 129.761 407.072 135.03Z" fill="#463D56"/>
<path d="M411.55 27.5283C419.58 33.2665 422.66 42.2318 424.057 50.5847C425.338 58.2426 426.476 72.7473 419.014 81.0179C413.439 87.1985 414.489 91.4423 413.53 94.3657C411.896 99.35 407.219 107.335 405.568 112.315C401.972 123.16 414.514 136.539 416.616 147.624C417.409 151.809 411.883 156.607 410.771 157.977C411.06 154.912 400.549 134.642 395.167 134.485C387.707 134.046 381.964 141.57 376.581 139.824C369.492 137.524 364.932 122.544 372.52 102.552C377.563 89.2634 393.949 55.2948 392.602 40.8816C392.148 36.0259 380.134 29.378 380.337 23.1182C372.919 26.689 363.651 25.7558 359.155 28.894C353.736 32.6772 350.103 41.1954 347.047 49.6511C346.163 40.6597 349.731 35.26 351.787 30.6166C354.831 23.741 369.775 19.5122 380.086 19.0842C392.041 18.5881 401.984 20.6934 411.55 27.5283Z" fill="#0D0716"/>
<path d="M314.809 133.964C314.823 130.005 314.927 127.647 314.927 127.647C320.606 131.333 330.566 131.169 334.078 126.807L336.294 134.291C332.174 138.337 320.638 138.37 314.809 133.964Z" fill="#0D0716"/>
<path d="M293.693 -2.81862C293.537 -4.54762 293.385 -6.14426 293.243 -7.6428C293.1 -9.14157 292.967 -10.5429 292.842 -11.8883C292.718 -13.2339 292.602 -14.5237 292.494 -15.8011C292.386 -17.0783 292.286 -18.3427 292.196 -19.6332C292.106 -20.9235 292.025 -22.2403 291.96 -23.6123C291.896 -24.9845 291.849 -26.4127 291.837 -27.9081C292.274 -27.8814 292.493 -27.8679 292.93 -27.8399C292.945 -26.3483 292.995 -24.9237 293.062 -23.5551C293.128 -22.1865 293.212 -20.8733 293.305 -19.5862C293.398 -18.2993 293.5 -17.0381 293.611 -15.7643C293.721 -14.4905 293.84 -13.2038 293.967 -11.8618C294.094 -10.5199 294.231 -9.12229 294.376 -7.62754C294.472 -6.64774 294.572 -5.60633 294.675 -4.53306C295.058 -4.81442 295.536 -5.04406 296.096 -5.20694C297.376 -5.57974 299.052 -5.61929 300.834 -5.24468C302.616 -4.87023 304.167 -4.15591 305.231 -3.31703C306.296 -2.47815 306.872 -1.51558 306.692 -0.623126C306.512 0.269325 305.609 0.926404 304.3 1.28229C302.992 1.63818 301.278 1.69435 299.485 1.3601C297.692 1.02585 296.159 0.360168 295.123 -0.461806C294.226 -1.17353 293.704 -2.00307 293.703 -2.81845C293.7 -2.81864 293.697 -2.81855 293.693 -2.81862Z" fill="#7842FF"/>
<path d="M438.691 6.32435C438.907 5.17561 439.705 4.15578 440.832 3.45089C441.958 2.74633 443.412 2.35731 444.932 2.4471C446.452 2.53694 447.749 3.08552 448.609 3.88504C449.354 4.57738 449.769 5.45735 449.721 6.40163C449.724 6.40104 449.726 6.40057 449.73 6.39998C449.764 8.37413 449.789 10.1623 449.805 11.8156C449.821 13.4689 449.828 14.9878 449.825 16.424C449.823 17.8602 449.811 19.214 449.789 20.5313C449.767 21.8486 449.734 23.1297 449.686 24.4095C449.638 25.6892 449.574 26.9679 449.485 28.2619C449.395 29.5558 449.28 30.866 449.12 32.1772C448.721 32.2707 448.522 32.3178 448.125 32.4124C448.282 31.0998 448.396 29.7882 448.484 28.4925C448.572 27.1969 448.634 25.9164 448.682 24.6349C448.729 23.3534 448.762 22.0702 448.783 20.7509C448.805 19.4315 448.816 18.0755 448.818 16.6368C448.821 15.1981 448.814 13.6765 448.798 12.0204C448.788 10.926 448.773 9.76547 448.754 8.53818C448.396 8.93623 447.966 9.29847 447.459 9.59767C446.308 10.2767 444.839 10.6723 443.329 10.6209C441.819 10.5698 440.554 10.0767 439.718 9.30288C438.882 8.5291 438.475 7.47308 438.691 6.32435ZM440.632 8.723C441.296 9.3384 442.301 9.734 443.498 9.77825C444.694 9.82256 445.857 9.5095 446.766 8.96919C447.675 8.42873 448.33 7.66008 448.509 6.77755C448.687 5.89481 448.353 5.06344 447.674 4.43199C446.995 3.80055 445.969 3.36985 444.766 3.30153C443.563 3.23322 442.41 3.54203 441.517 4.09838C440.623 4.65473 439.988 5.45847 439.816 6.36544C439.644 7.27215 439.968 8.10777 440.632 8.723Z" fill="#0D0716"/>
<path d="M273.542 18.779C274.225 18.8937 274.979 19.2205 275.618 19.6208C276.263 20.0228 276.823 20.4834 277.327 20.9471C277.837 21.4091 278.291 21.8831 278.731 22.3363C279.602 23.2518 280.403 24.1187 281.19 24.8502C281.97 25.5924 282.737 26.1906 283.422 26.6623C283.764 26.8912 284.083 27.0914 284.369 27.2645C284.457 27.3138 284.533 27.3576 284.613 27.403C285.105 27.5259 285.597 27.6475 286.084 27.7805C286.144 28.1292 286.173 28.3035 286.232 28.6525C284.831 28.2677 283.406 27.9272 281.986 27.615C280.565 27.3026 279.146 27.0185 277.716 26.7494C276.286 26.4804 274.844 26.2266 273.352 25.9773C271.861 25.7279 270.319 25.4832 268.674 25.2332C267.029 24.9834 265.28 24.7287 263.366 24.4603C262.101 24.283 260.754 24.0989 259.325 23.9073C259.774 24.2732 260.176 24.6934 260.496 25.1682C261.221 26.2459 261.576 27.548 261.393 28.8241C261.211 30.1002 260.528 31.1092 259.573 31.7087C258.619 32.3082 257.393 32.4975 256.118 32.1285C254.842 31.7595 253.758 30.9009 253.03 29.8122C252.302 28.7235 251.93 27.4055 252.092 26.123C252.255 24.8405 252.925 23.8365 253.882 23.2481C254.711 22.7386 255.755 22.5417 256.861 22.7415C256.86 22.7387 256.86 22.7368 256.859 22.734C259.175 23.0389 261.26 23.3216 263.178 23.5907C265.096 23.8597 266.848 24.1151 268.496 24.3654C270.145 24.6156 271.689 24.8607 273.184 25.1103C274.678 25.3597 276.123 25.6136 277.555 25.8824C278.941 26.1425 280.316 26.4188 281.693 26.7186C281.279 26.4624 280.85 26.1793 280.425 25.8465C279.392 25.0622 278.395 24.0945 277.479 23.163C276.566 22.2296 275.707 21.3168 274.885 20.7053C274.475 20.4033 274.088 20.1768 273.686 20.0427C273.285 19.9099 272.859 19.8357 272.454 19.8201C272.055 19.8149 271.672 19.8373 271.334 19.8783C271.001 19.9224 270.704 19.9741 270.454 20.0117C269.975 20.1143 269.669 20.1586 269.669 20.1586C269.669 20.1586 269.822 19.9792 270.135 19.6915C270.308 19.5629 270.505 19.39 270.787 19.2393C271.062 19.0815 271.401 18.9208 271.849 18.8183C272.295 18.7142 272.859 18.6606 273.542 18.779Z" fill="#2C00FF"/>
<path d="M256.129 94.3886C256.083 93.6404 256.203 92.7527 256.432 91.9554C256.658 91.1481 256.949 90.4074 257.264 89.7106C257.287 89.6594 257.312 89.6122 257.335 89.5615C257.281 89.5206 257.227 89.4791 257.162 89.4281C257.006 89.2734 256.803 89.1017 256.601 88.8392C256.395 88.5839 256.173 88.262 255.98 87.8147C255.786 87.3696 255.615 86.7878 255.577 86.0417C255.531 85.2983 255.654 84.422 255.887 83.638C256.119 82.8442 256.415 82.1188 256.736 81.4377C257.057 80.7565 257.403 80.1194 257.733 79.5019C258.067 78.8865 258.399 78.2846 258.705 77.6961C259.006 77.1027 259.311 76.5333 259.555 75.9568C259.807 75.3836 260.03 74.8246 260.221 74.2817C260.397 73.7368 260.558 73.2139 260.678 72.7225C260.796 72.231 260.887 71.775 260.961 71.3658C260.966 71.3318 260.97 71.3041 260.975 71.2709C260.933 70.5229 260.891 69.7619 260.847 68.9841C261.182 68.8333 261.35 68.7581 261.686 68.6088C261.767 70.1055 261.845 71.5458 261.92 72.9353C261.995 74.3249 262.068 75.6641 262.138 76.9667C262.209 78.2693 262.278 79.5359 262.346 80.785C262.413 82.0342 262.48 83.2659 262.547 84.5018C262.614 85.7377 262.682 86.9775 262.75 88.2435C262.819 89.5096 262.889 90.8018 262.962 92.1411C263.035 93.4804 263.11 94.867 263.189 96.3189C263.233 97.1154 263.277 97.9366 263.323 98.7743C263.591 98.2673 263.92 97.7859 264.318 97.3639C265.219 96.4067 266.411 95.7265 267.677 95.5496C268.943 95.3729 270.042 95.7293 270.781 96.4258C271.521 97.1224 271.9 98.1573 271.744 99.3619C271.588 100.567 270.928 101.717 270.002 102.629C269.077 103.54 267.886 104.216 266.649 104.441C265.413 104.665 264.36 104.392 263.645 103.741C263.025 103.177 262.68 102.317 262.675 101.286C262.665 101.292 262.657 101.296 262.647 101.301C262.558 99.705 262.473 98.1858 262.392 96.7319C262.311 95.2781 262.234 93.8896 262.159 92.5485C262.085 91.2074 262.012 89.9134 261.942 88.6456C261.871 87.3779 261.802 86.1361 261.734 84.8987C261.691 84.1344 261.648 83.3662 261.606 82.6C261.455 83.2653 261.276 83.9766 261.021 84.6726C260.778 85.3882 260.487 86.0968 260.173 86.7874C259.859 87.478 259.522 88.1508 259.186 88.7945C258.515 90.0843 257.841 91.2952 257.443 92.4134C257.256 92.9724 257.124 93.4922 257.099 93.9919C257.078 94.4865 257.119 94.9729 257.207 95.4096C257.304 95.838 257.422 96.2276 257.545 96.5603C257.669 96.8893 257.791 97.1701 257.888 97.4082C258.101 97.856 258.218 98.1336 258.218 98.1336C258.218 98.1336 258.024 98.0097 257.693 97.7521C257.539 97.6016 257.339 97.4346 257.141 97.1766C256.937 96.9258 256.719 96.6083 256.528 96.1637C256.337 95.7211 256.168 95.14 256.129 94.3886ZM259.196 85.8677C259.491 85.2559 259.791 84.6676 260.03 84.0704C260.277 83.477 260.495 82.8968 260.682 82.3314C260.854 81.764 261.011 81.2183 261.129 80.7039C261.243 80.1894 261.331 79.7106 261.402 79.2798C261.407 79.2441 261.411 79.2148 261.416 79.1798C261.382 78.5774 261.348 77.9698 261.314 77.3531C261.263 76.4357 261.211 75.4916 261.157 74.5333C261.003 75.1734 260.819 75.8601 260.559 76.534C260.311 77.2273 260.014 77.9153 259.694 78.5877C259.375 79.2601 259.031 79.9165 258.689 80.5457C258.007 81.8066 257.32 82.994 256.915 84.0965C256.724 84.6478 256.589 85.1613 256.563 85.6574C256.541 86.1484 256.582 86.633 256.671 87.0705C256.769 87.4993 256.889 87.8913 257.013 88.2271C257.139 88.559 257.263 88.8434 257.361 89.0851C257.398 89.1643 257.429 89.2307 257.461 89.2988C257.718 88.7563 257.984 88.2318 258.242 87.7259C258.571 87.094 258.896 86.4746 259.196 85.8677Z" fill="#3A3148"/>
<path d="M451.527 78.0288C453.428 78.4013 455.143 78.7424 456.747 79.0641C458.351 79.3858 459.843 79.6886 461.3 79.9865C462.756 80.2844 464.177 80.5776 465.638 80.8819C467.1 81.1863 468.602 81.5015 470.224 81.845C471.845 82.1884 473.585 82.5601 475.522 82.9786C476.239 83.1336 476.897 83.5557 477.054 83.9619C477.731 85.7088 478.242 87.1333 478.675 88.4349C479.107 89.7364 479.462 90.9167 479.78 92.1466C480.097 93.3764 480.382 94.6592 480.573 96.1017C481.299 95.8859 482.321 95.7898 483.523 95.8287C484.725 95.8676 486.107 96.0416 487.549 96.355C489.557 96.7914 491.298 97.4107 492.467 98.0381C493.636 98.6651 494.23 99.2985 493.95 99.7923C493.671 100.286 492.572 100.551 491.048 100.603C489.524 100.655 487.579 100.496 485.59 100.111C483.734 99.7523 482.167 99.2564 481.073 98.7121C479.98 98.168 479.358 97.5739 479.404 97.0432C479.4 97.0428 479.397 97.0425 479.393 97.0421C479.299 95.8836 479.131 94.8588 478.933 93.8765C478.736 92.8943 478.506 91.9522 478.218 90.9117C477.93 89.8711 477.582 88.7315 477.105 87.3264C475.112 86.9324 473.323 86.583 471.656 86.2602C469.989 85.9375 468.444 85.6414 466.941 85.356C465.439 85.0706 463.978 84.7956 462.481 84.5165C460.984 84.2375 459.45 83.9541 457.801 83.6531C456.153 83.3522 454.391 83.0337 452.438 82.686C452.89 84.4928 453.18 85.81 453.433 87.0979C453.686 88.3858 453.909 89.6502 454.093 91.2448C454.802 90.967 455.803 90.8132 456.979 90.805C458.156 90.7969 459.509 90.9346 460.921 91.2294C462.886 91.6393 464.589 92.2714 465.737 92.9391C466.885 93.607 467.473 94.3091 467.211 94.8902C466.949 95.4714 465.886 95.8261 464.402 95.9529C462.918 96.0798 461.016 95.9812 459.063 95.6244C457.242 95.2916 455.697 94.7884 454.617 94.2107C453.536 93.633 452.918 92.9791 452.957 92.3704C452.952 92.3702 452.95 92.37 452.946 92.3697C452.849 91.1481 452.701 90.0273 452.532 88.9613C452.363 87.8954 452.173 86.8834 451.958 85.8522C451.743 84.8211 451.504 83.7706 451.221 82.6138C450.938 81.457 450.61 80.1935 450.21 78.7299C450.064 78.1945 450.68 77.8628 451.527 78.0288ZM452.283 82.0724C454.233 82.4241 455.993 82.7463 457.638 83.0507C459.284 83.3552 460.816 83.6418 462.31 83.924C463.805 84.2062 465.264 84.4842 466.764 84.7729C468.264 85.0616 469.807 85.3606 471.471 85.6871C473.136 86.0133 474.922 86.3665 476.912 86.7644C476.829 86.5274 476.787 86.4086 476.703 86.1701C474.716 85.7677 472.933 85.4106 471.272 85.0806C469.61 84.7506 468.07 84.448 466.572 84.1562C465.074 83.8642 463.618 83.5831 462.126 83.2975C460.634 83.0118 459.105 82.7219 457.461 82.414C455.818 82.106 454.061 81.7799 452.115 81.4238C452.183 81.684 452.217 81.8137 452.283 82.0724Z" fill="#0D0716"/>
<path d="M479.078 55.1711C481.034 55.9237 482.744 56.5937 484.332 57.2224C485.92 57.851 487.384 58.4388 488.848 59.0325C490.312 59.6262 491.775 60.2258 493.36 60.883C494.944 61.5403 496.648 62.2546 498.595 63.0828C499.277 63.3731 499.829 63.8025 499.903 64.0941C500.175 65.1651 500.561 66.1403 500.99 67.0865C501.418 68.0327 501.895 68.9528 502.477 69.9803C503.058 71.0077 503.746 72.1431 504.665 73.558C505.126 73.4644 505.891 73.5419 506.861 73.7759C507.83 74.0099 509.004 74.3999 510.298 74.9287C512.098 75.6646 513.789 76.5264 515.091 77.3217C516.393 78.117 517.306 78.8463 517.498 79.333C517.689 79.8197 517.116 79.9744 516.016 79.8347C514.916 79.6951 513.288 79.2609 511.417 78.552C509.67 77.8907 508.025 77.1051 506.751 76.346C505.476 75.587 504.573 74.8552 504.281 74.3163C504.277 74.3151 504.275 74.3146 504.271 74.3134C503.394 72.9765 502.723 71.8962 502.142 70.9133C501.561 69.9304 501.07 69.044 500.607 68.1247C500.144 67.2053 499.703 66.2506 499.323 65.1827C497.67 64.5031 496.182 63.8977 494.793 63.3372C493.404 62.7768 492.114 62.2612 490.857 61.7626C489.599 61.2641 488.375 60.7828 487.117 60.2926C485.859 59.8024 484.568 59.3033 483.178 58.7715C481.788 58.2398 480.298 57.675 478.642 57.0558C478.805 58.3927 479.091 59.5 479.437 60.6463C479.783 61.7926 480.201 62.9852 480.893 64.6647C481.417 64.5323 482.229 64.5691 483.222 64.7644C484.215 64.9595 485.39 65.3132 486.655 65.8134C488.415 66.5096 490.018 67.3547 491.209 68.1577C492.4 68.9607 493.18 69.7223 493.247 70.2622C493.314 70.8021 492.647 71.0202 491.496 70.9379C490.345 70.8558 488.709 70.4731 486.88 69.7973C485.174 69.1667 483.606 68.3909 482.427 67.6251C481.249 66.8591 480.459 66.1037 480.281 65.5259C480.277 65.5249 480.276 65.5244 480.272 65.5234C479.605 63.9578 479.133 62.7096 478.756 61.5858C478.378 60.4619 478.093 59.4615 477.874 58.4407C477.654 57.4201 477.494 56.3753 477.497 55.2463C477.497 54.8828 478.253 54.8537 479.078 55.1711Z" fill="#3A3148"/>
</svg>
