<svg width="40" height="39" viewBox="0 0 40 39" fill="none" xmlns="http://www.w3.org/2000/svg">
<ellipse cx="20" cy="19.5" rx="20" ry="19.5" fill="white"/>
<g clip-path="url(#clip0_192_1139)">
<path d="M35.9848 20.2993C35.9848 18.9883 35.876 18.0316 35.6403 17.0395H20.3188V22.9568H29.3122C29.131 24.4273 28.1518 26.6419 25.976 28.1301L25.9455 28.3282L30.7898 31.9951L31.1255 32.0278C34.2078 29.2463 35.9848 25.1537 35.9848 20.2993Z" fill="#8943FF"/>
<path d="M20.3188 35.8901C24.7248 35.8901 28.4237 34.4727 31.1255 32.0279L25.976 28.1301C24.598 29.0691 22.7485 29.7246 20.3188 29.7246C16.0035 29.7246 12.3408 26.9432 11.0352 23.0986L10.8438 23.1145L5.8066 26.9236L5.74072 27.1025C8.42422 32.3112 13.9363 35.8901 20.3188 35.8901Z" fill="#CCB8FF"/>
<path d="M11.0351 23.0986C10.6906 22.1065 10.4913 21.0434 10.4913 19.945C10.4913 18.8465 10.6906 17.7835 11.017 16.7914L11.0079 16.5801L5.9075 12.7098L5.74063 12.7874C4.63463 14.9489 4 17.3761 4 19.945C4 22.5139 4.63463 24.941 5.74063 27.1025L11.0351 23.0986Z" fill="#F8F8FF"/>
<path d="M20.3188 10.1654C23.3831 10.1654 25.4501 11.4587 26.6287 12.5395L31.2342 8.14571C28.4057 5.57679 24.7248 4 20.3188 4C13.9363 4 8.42422 7.57875 5.74072 12.7874L11.0171 16.7915C12.3408 12.9469 16.0035 10.1654 20.3188 10.1654Z" fill="#60359E"/>
</g>
<defs>
<clipPath id="clip0_192_1139">
<rect width="32" height="32" fill="white" transform="translate(4 4)"/>
</clipPath>
</defs>
</svg>
