<svg width="37" height="36" viewBox="0 0 37 36" fill="none" xmlns="http://www.w3.org/2000/svg">
<path d="M26.2082 13.5V10.5C26.2082 6.3 22.8165 3 18.4998 3C14.1832 3 10.7915 6.3 10.7915 10.5V13.5C8.17067 13.5 6.1665 15.45 6.1665 18V28.5C6.1665 31.05 8.17067 33 10.7915 33H26.2082C28.829 33 30.8332 31.05 30.8332 28.5V18C30.8332 15.45 28.829 13.5 26.2082 13.5ZM13.8748 10.5C13.8748 7.95 15.879 6 18.4998 6C21.1207 6 23.1248 7.95 23.1248 10.5V13.5H13.8748V10.5ZM20.0415 25.5C20.0415 26.4 19.4248 27 18.4998 27C17.5748 27 16.9582 26.4 16.9582 25.5V21C16.9582 20.1 17.5748 19.5 18.4998 19.5C19.4248 19.5 20.0415 20.1 20.0415 21V25.5Z" fill="#B6B6B6"/>
</svg>
