<svg width="1280" height="832" viewBox="0 0 1280 832" fill="none" xmlns="http://www.w3.org/2000/svg">
<g clip-path="url(#clip0_192_1156)">
<rect width="1280" height="832" fill="#FEF5F2"/>
<path d="M1511.25 407.681C1607.35 396.675 2182.02 407.681 2654.76 676.829L2713 989H-171V587.78C-156.763 617.463 -122.658 682.932 -100.138 707.345C-71.9868 737.862 106.625 780.385 225.053 794.893C343.48 809.401 595.866 785.388 747.298 676.829C898.73 568.269 997.743 541.254 1081.22 503.233C1148.01 472.817 1286.37 440.532 1347.2 428.192C1369.85 425.024 1434.37 416.486 1511.25 407.681Z" fill="#C8C7F0" fill-opacity="0.9"/>
<path d="M-18.7637 407.681C-101.469 396.675 -596.031 407.681 -1002.88 676.829L-1053 989H1429V587.78C1416.75 617.463 1387.4 682.932 1368.02 707.345C1343.79 737.862 1190.07 780.385 1088.15 794.893C986.233 809.401 769.027 785.388 638.703 676.829C508.379 568.269 423.167 541.254 351.322 503.233C293.846 472.817 174.773 440.532 122.42 428.192C102.927 425.024 47.4006 416.486 -18.7637 407.681Z" fill="#E2E1F3" fill-opacity="0.75"/>
<path d="M261.683 610.132C214.427 586.077 72.9636 516.016 -120.13 503L-152 908L1394 891.98V789.854L1322.14 728.278C1300.89 714.761 1250.77 684.124 1242.77 681.721L1242.26 681.565C1231.08 678.204 1179.73 662.757 1141.54 664.7C1102.17 666.702 1069.68 672.71 1005.31 702.246C979.067 709.255 898.455 750.305 817.218 772.333C735.981 794.36 669.742 793.358 614.126 789.854C558.51 786.35 441.029 716.764 421.032 708.754C405.5 702.532 312.5 636 261.683 610.132Z" fill="#BFBEFF" fill-opacity="0.58"/>
<path d="M854.81 150.503L862.698 143.039C862.817 142.93 862.913 142.799 862.979 142.654C863.044 142.509 863.079 142.354 863.08 142.196C863.082 142.039 863.05 141.883 862.987 141.737C862.924 141.591 862.831 141.459 862.713 141.347C862.595 141.236 862.456 141.148 862.301 141.088C862.147 141.029 861.982 140.999 861.816 141C861.65 141.001 861.485 141.034 861.332 141.096C861.179 141.158 861.041 141.249 860.925 141.362L853.037 148.825L845.15 141.362C844.914 141.144 844.596 141.022 844.266 141.024C843.936 141.026 843.62 141.15 843.387 141.371C843.154 141.592 843.022 141.891 843.02 142.203C843.018 142.515 843.146 142.816 843.377 143.039L851.265 150.503L843.377 157.966C843.258 158.076 843.164 158.207 843.099 158.351C843.035 158.495 843.001 158.651 843 158.807C842.999 158.964 843.031 159.12 843.094 159.265C843.157 159.41 843.25 159.542 843.367 159.653C843.484 159.764 843.624 159.851 843.777 159.911C843.93 159.971 844.095 160.001 844.261 160C844.426 159.999 844.59 159.967 844.743 159.906C844.896 159.845 845.034 159.755 845.15 159.643L853.037 152.18L860.925 159.643C861.17 159.875 861.491 159.991 861.811 159.991C862.132 159.991 862.453 159.875 862.698 159.643C862.933 159.421 863.065 159.119 863.065 158.805C863.065 158.49 862.933 158.189 862.698 157.966L854.81 150.503Z" fill="#C6BAFF"/>
</g>
<defs>
<clipPath id="clip0_192_1156">
<rect width="1280" height="832" fill="white"/>
</clipPath>
</defs>
</svg>
