<svg width="259" height="324" viewBox="0 0 259 324" fill="none" xmlns="http://www.w3.org/2000/svg">
<path fill-rule="evenodd" clip-rule="evenodd" d="M245.914 194.941C248.074 193.803 250.194 192.591 252.27 191.305C253.735 190.428 252.438 188.221 250.936 189.018C250.168 189.426 249.403 189.839 248.635 190.244C249.24 189.726 249.798 189.156 250.302 188.539L250.267 188.504C252.203 186.769 249.716 183.495 247.515 184.92C245.573 186.328 243.613 187.765 241.384 188.692C236.768 190.651 231.676 190.975 226.721 191.031C224.907 190.895 223.175 191.209 221.416 191.559C222.106 188.791 223.832 186.701 224.748 184.019C225.423 181.312 221.517 179.469 220.133 182.071C219.794 182.71 219.468 183.355 219.153 184.006C216.161 186.728 211.165 186.488 208.147 189.411C206.428 190.937 205.587 193.008 205.255 195.086C205.029 196.498 205.38 197.912 204.527 199.162C200.403 204.997 193.888 214.22 190.578 220.642C188.236 205.382 181.98 186.509 175.517 172.556C173.38 168.094 170.935 163.734 167.725 159.952C168.089 158.69 166.805 156.451 165.988 157.14C163.475 154.069 159.032 153.274 155.459 151.747C150.637 149.684 146.635 145.396 144.669 140.522C142.141 131.241 135.92 130.062 127.292 130.472C119.035 130.462 112.926 133.995 111.124 142.404C107.464 148.786 98.8218 147.731 92.6038 149.42C88.0478 150.462 83.6258 152.072 79.4238 154.116C74.7478 149.679 58.0038 168.298 56.4818 173.09C57.3778 173.263 58.2688 173.473 59.1508 173.727C59.9368 173.955 59.6068 175.142 58.8138 174.952C57.8278 174.715 56.8348 174.552 55.8378 174.439C55.8078 174.534 55.7808 174.629 55.7608 174.723L55.4248 174.698C55.6728 174.827 55.9118 174.977 56.1448 175.171C56.7078 175.638 55.9748 176.541 55.3768 176.168C54.8138 175.746 54.0758 175.813 53.3998 175.671C53.3598 177.062 48.3998 175.506 47.6298 175.046C44.2068 174.617 40.6848 175.077 37.4888 173.425C33.2358 172.529 28.9518 171.539 24.7468 170.398C23.6338 170.832 22.5868 172.385 23.4708 173.525C23.9688 174.044 23.3288 174.891 22.7028 174.522C20.6028 173.285 18.9788 171.355 17.6018 169.275C16.9538 168.621 15.8028 168.762 14.9318 168.49C14.8158 168.7 14.7468 168.933 14.7478 169.172C11.0538 169.78 13.6888 173.817 15.5458 175.074C14.5608 175.716 14.5238 176.972 14.6098 178.022C14.4008 178.396 14.3318 178.859 14.5128 179.278C15.2078 180.879 16.7098 182.228 17.8528 183.525C19.1128 184.958 20.2378 186.399 21.7728 187.56C27.6228 192.021 34.6818 194.515 41.9228 195.49C44.4948 195.885 48.1928 196.49 49.7858 198.665C49.3958 201.246 48.6778 203.722 48.0268 206.239C47.1168 209.581 47.1788 213.079 47.1668 216.485C47.0398 216.383 46.7958 216.404 46.7588 216.599C46.5478 218.011 46.3898 219.455 45.5318 220.642C44.7798 222.848 44.2798 225.201 43.9978 227.519C42.8718 238.509 42.6028 249.822 45.1428 260.64C46.1187 264.646 47.7204 268.472 49.8888 271.979C50.5358 273.027 51.5768 273.334 52.5118 273.128C55.6418 274.754 59.5818 275.275 62.9548 274.862C74.4528 271.606 70.4468 279.447 86.5668 277.046C114.392 273.5 142.513 280.468 170.279 276.377C170.963 281.661 179.915 280.145 183.025 277.912C192.349 270.977 196.979 249.023 201.658 237.886C204.875 229.108 210.261 213.56 217.314 207.67C219.429 206.015 221.986 205.144 224.544 204.44C234.091 201.979 243.674 199.652 253.239 197.259C254.861 196.86 254.57 194.092 252.835 194.27C250.533 194.505 248.223 194.719 245.914 194.941Z" fill="#F0EAFF"/>
<path fill-rule="evenodd" clip-rule="evenodd" d="M33.3898 193.294C32.7428 193.214 32.1098 192.983 31.4798 192.802C30.5206 192.521 29.5758 192.193 28.6488 191.819C26.7348 191.052 24.8778 190.145 23.1368 189.035C20.3248 187.241 17.8398 184.941 15.9668 182.173L15.8368 181.98C14.7678 180.349 12.7948 176.73 15.0068 175.492C13.5808 174.3 12.2328 172.159 12.3098 170.506C12.4168 168.169 15.2818 168.2 16.7628 169.191C17.7328 169.84 18.4588 170.749 19.1878 171.643C20.2112 172.895 21.3089 174.084 22.4748 175.204L22.7208 175.435C22.6825 175.344 22.6484 175.251 22.6188 175.156C22.1248 173.615 22.7138 171.609 24.2548 170.904C25.1968 170.471 26.1748 170.735 27.0888 171.102L27.2288 171.159C28.4588 171.668 29.7028 172.119 30.9828 172.48C36.2018 173.953 41.6478 174.198 46.9948 174.934C49.0548 175.219 51.1528 175.578 53.2018 176.107C53.9838 172.787 55.8998 169.604 57.9788 166.985C67.9338 154.458 84.3518 150.318 99.3708 147.638C100.74 147.395 101.874 149.208 102.671 148.779C104.181 147.968 105.51 146.818 106.676 145.569C109.163 142.904 110.927 139.769 113 136.8C114.024 135.333 116.382 136.646 115.431 138.22L114.966 138.99C113.048 142.142 110.924 145.39 108.174 147.835C106.712 149.132 105.09 150.157 103.235 150.798C101.83 151.282 99.8588 151.69 98.3208 151.22C102.335 157.039 107.371 161.963 112.678 166.611C118.035 171.299 123.814 175.498 129.628 179.603L130.112 179.945C139.583 173.034 147.584 164.02 153.197 153.721C152.021 153.579 150.857 152.825 149.851 152.262C148.64 151.582 147.502 150.77 146.614 149.688C144.681 147.332 144.933 144.294 144.584 141.435C144.563 141.257 144.798 141.213 144.905 141.302C145.953 142.172 146.321 143.599 146.758 144.831C147.24 146.186 147.785 147.302 148.89 148.255C149.919 149.143 151.174 149.796 152.393 150.377C153.021 150.675 156.142 151.442 156.497 152.076C161.889 150.81 167.141 152.998 171.136 156.688C174.996 160.254 177.829 164.888 180.331 169.464C182.999 174.346 185.186 179.436 187.07 184.666C188.98 189.976 190.444 195.401 191.249 200.989C191.928 205.7 192.345 210.486 192.615 215.25L192.648 215.845C196.638 209.584 200.722 203.383 204.897 197.244C203.948 194.71 204.998 192.123 206.775 190.166C208.744 188 211.467 186.994 214.072 185.823L214.415 185.668C215.67 185.095 216.921 184.464 218.006 183.606C219.05 182.777 219.816 181.636 220.915 180.873C222.512 179.761 225.411 179.998 225.485 182.426C225.523 183.76 224.95 185.222 224.426 186.421C223.833 187.776 223.032 189.004 222.081 190.132C222.04 190.181 221.993 190.223 221.941 190.259L221.904 190.282C223.218 190.5 224.543 190.675 225.893 190.737C228.616 190.861 231.369 190.661 234.035 190.086C236.768 189.505 239.404 188.537 241.864 187.211C243.962 186.074 245.906 184.603 248.289 184.257C248.511 184.224 248.734 184.201 248.959 184.189C249.339 184.168 249.719 184.616 249.569 184.992C249.487 185.199 249.4 185.404 249.305 185.611C248.481 187.427 247.218 189.188 245.641 190.525L245.519 190.627C246.076 190.435 246.623 190.217 247.161 189.976C250.328 188.549 253.201 186.393 256.596 185.527C256.757 185.485 256.919 185.446 257.082 185.411C258.132 185.184 258.686 186.326 258.069 187.108C257.969 187.235 257.87 187.359 257.767 187.484C256.257 189.37 254.573 191.109 252.738 192.679C252.106 193.217 251.457 193.735 250.793 194.232C250.513 194.443 250.232 194.649 249.948 194.852L249.808 194.951C250.14 194.716 250.467 194.478 250.793 194.232C252.871 193.597 254.918 192.862 256.926 192.03C257.722 191.702 258.341 192.51 258.426 193.173C258.709 195.397 256.241 197.005 254.635 198.075C253.026 199.148 251.253 199.964 249.438 200.619C245.949 201.881 242.284 202.454 238.625 202.967L236.848 203.215C229.813 204.199 222.466 205.375 217.419 210.851C214.59 213.92 212.676 217.732 210.924 221.484C209.175 225.231 207.639 229.078 206.181 232.946C204.671 236.948 203.355 241.025 201.956 245.068C200.671 248.781 199.137 252.446 197.618 256.074L197.378 256.646C194.152 264.356 190.298 271.618 184.928 278.056C184.043 279.119 182.612 277.61 183.43 276.557C189.047 269.312 192.956 260.763 196.182 252.235C197.65 248.355 198.88 244.381 200.291 240.48L201.131 238.162C202.245 235.071 203.389 231.99 204.563 228.921C206.057 225.043 207.698 221.211 209.576 217.504L209.776 217.114C211.614 213.537 213.799 210.013 216.806 207.306C222.218 202.433 229.42 201.264 236.383 200.338L238.573 200.049C241.517 199.658 244.469 199.226 247.332 198.438C248.984 197.986 250.598 197.407 252.115 196.608C252.721 196.29 253.309 195.941 253.879 195.562C252.249 196.04 250.594 196.432 248.923 196.737C248.101 196.887 247.288 196.999 246.476 197.077C244.387 197.284 242.314 197.276 240.174 197.164C239.993 197.153 239.933 196.868 240.128 196.832C241.626 196.559 243.117 196.24 244.596 195.876L245.042 195.767C245.05 195.52 245.148 195.257 245.35 195.008C246.09 194.108 247.495 193.647 248.469 193.011C249.49 192.346 250.475 191.627 251.42 190.857C252.281 190.152 253.111 189.41 253.907 188.632C251.756 189.625 249.717 190.899 247.471 191.686C245.686 192.313 243.814 192.736 241.926 192.886L241.808 192.895L241.691 192.903C239.72 193.045 237.736 192.988 235.795 193.414C235.577 193.463 235.509 193.171 235.704 193.089C237.4 192.383 239.164 192.11 240.948 191.781C240.97 191.705 241.008 191.634 241.061 191.574C241.113 191.515 241.179 191.467 241.252 191.436L241.708 191.218C243.067 190.565 244.333 189.907 245.462 188.847C246.458 187.914 247.287 186.817 247.913 185.603C245.418 186.15 243.227 188.042 240.958 189.105C238.486 190.267 235.872 191.096 233.183 191.572L232.877 191.624C227.855 192.462 221.816 192.355 217.317 189.743C217.174 189.659 217.277 189.467 217.425 189.49C218.701 189.699 219.964 189.946 221.228 190.166C220.981 189.94 220.871 189.534 221.156 189.209C222.296 187.916 223.18 186.417 223.762 184.794L223.871 184.476C224.136 183.721 224.582 182.549 224.126 181.868C223.691 181.219 222.666 181.308 222.054 181.583C220.78 182.158 219.933 183.593 218.859 184.459C217.689 185.406 216.358 186.108 214.995 186.736L214.708 186.867C212.351 187.927 209.832 188.82 207.979 190.692C206.982 191.698 206.124 192.956 205.837 194.365C205.699 195.01 205.713 195.679 205.879 196.318C206.016 196.819 206.304 197.128 206.139 197.637C205.924 198.294 205.161 199.081 204.768 199.666C204.312 200.343 203.857 201.021 203.403 201.699C202.497 203.056 201.595 204.417 200.693 205.776C198.301 209.384 195.94 213.012 193.61 216.659L192.753 218.003L192.3 218.711L191.528 219.926C191.556 220.036 191.552 220.152 191.517 220.26C191.394 220.606 191.151 220.897 190.832 221.078L190.778 221.11C186.269 228.239 181.833 235.414 177.352 242.56C177.11 244.74 176.891 246.923 176.695 249.107C176.253 254.049 175.951 259.003 175.854 263.963C175.807 266.364 176 268.78 176.103 271.179C176.154 272.323 176.223 273.467 176.314 274.61L176.38 275.42C176.47 276.534 176.52 277.639 176.12 278.701C175.765 279.633 174.683 279.842 174.043 279.132C165.692 278.796 157.334 278.54 148.976 278.381C134.017 278.094 119.05 278.138 104.088 278.428C96.5738 278.574 89.0568 278.779 81.5438 279.032C77.8428 279.155 74.1388 279.328 70.4358 279.379C68.4398 279.406 65.2998 278.679 65.1388 276.434L65.1348 276.365C64.8848 276.433 64.6278 276.488 64.3638 276.528C64.2524 276.546 64.1386 276.542 64.0288 276.516L63.9768 276.503C61.0028 277.41 57.2398 276.116 54.4138 275.361L54.1808 275.3C51.4828 274.596 49.3148 273.59 47.5468 271.354C44.4518 267.438 43.3948 262.179 42.8468 257.333C42.3308 252.772 42.3008 248.127 42.9278 243.574C42.5578 239.865 42.9198 236.038 43.3408 232.349C43.5468 230.525 43.7908 228.703 44.0818 226.89C44.2448 225.878 44.4578 224.876 44.6758 223.876C44.7628 223.477 44.8348 223.047 44.9448 222.631L44.9948 222.454C44.6568 222.498 44.2868 222.424 43.9298 222.228C43.0798 221.761 42.8328 220.816 42.8188 219.912C42.7718 217.185 43.0968 214.38 43.3848 211.671C43.6716 208.957 44.0739 206.257 44.5908 203.578L44.7258 202.889C45.1198 200.891 45.5698 198.828 46.3638 196.95C43.3828 196.443 40.4098 195.904 37.5178 194.987C36.0972 194.538 34.7164 193.972 33.3898 193.294ZM188.98 221.668C188.933 221.678 188.889 221.691 188.845 221.704C187.653 222.038 186.449 222.321 185.249 222.625C183.174 223.147 181.146 223.731 179.217 224.637C178.813 229.739 178.214 234.825 177.645 239.913L177.531 240.93C178.403 239.305 179.306 237.697 180.238 236.105C183.088 231.255 186.003 226.442 188.98 221.668ZM45.7208 222.173C45.7278 222.779 45.6008 223.409 45.5328 223.993C45.4228 224.94 45.3348 225.891 45.2228 226.837C44.9915 228.738 44.8035 230.644 44.6588 232.554C44.5678 233.774 44.5088 234.998 44.4558 236.221C45.6538 231.743 47.2398 227.362 48.7488 222.974C48.4864 222.941 48.227 222.888 47.9728 222.815L47.5248 222.694C47.2608 222.626 46.4048 222.416 45.7208 222.173ZM192.753 218.003L192.762 218.204C192.793 218.916 192.367 219.317 191.849 219.421C192.149 218.948 192.451 218.474 192.753 218.003ZM55.6828 184.246C56.9438 184.358 58.1798 184.627 59.3588 185.091L59.4728 185.136C60.3448 185.473 61.6188 185.896 61.9048 186.827C61.9848 187.091 61.7688 187.308 61.5218 187.33C60.5758 187.406 59.4598 186.391 58.5838 186.049C57.6066 185.663 56.5887 185.39 55.5498 185.235C53.2091 184.892 50.8196 185.155 48.6098 186C48.4798 186.051 48.3998 185.846 48.5168 185.785C50.7218 184.584 53.1748 184.024 55.6828 184.246ZM28.9548 190.291C28.8078 190.16 28.6628 190.027 28.5198 189.891C27.3868 188.819 26.3838 187.568 25.6418 186.194L25.4458 185.822C24.8408 184.65 24.0988 182.981 25.5198 182.137C26.3698 181.632 27.3918 181.758 28.3388 182.065L28.5218 182.126C28.9448 182.274 29.3518 182.452 29.7158 182.621C31.2938 183.346 32.6858 184.4 34.1438 185.33C35.7238 186.339 37.2838 186.983 39.1058 187.36L39.2778 187.395C40.9888 187.733 42.8438 187.951 44.0378 189.359C44.3378 189.714 44.0628 190.379 43.5458 190.204C40.2458 189.09 36.7528 188.845 33.7238 187.017C32.4688 186.26 31.2808 185.392 29.9988 184.675C29.3188 184.294 28.6158 183.961 27.8678 183.733L27.4588 183.613C27.2188 183.543 26.9328 183.474 26.7408 183.542C26.3748 183.669 26.4918 183.865 26.6048 184.207L26.6168 184.242C27.5068 186.994 30.0408 189.297 32.3908 190.821C32.9288 191.172 33.4808 191.493 34.0428 191.791C37.8468 193.82 42.1028 194.764 46.2828 195.884C46.2828 195.884 48.6998 196.559 49.5008 196.813C50.3928 196.739 51.4088 197.054 52.0808 197.43C52.7095 197.78 53.2489 198.27 53.6568 198.863C53.6568 198.863 54.0388 199.182 54.1088 199.677C54.3088 200.135 54.4448 200.63 54.5128 201.146C54.5508 201.448 54.4738 201.68 54.3308 201.845C54.7628 208.48 52.9708 215.077 50.9508 221.383L50.7508 222.005L50.6228 222.399C48.4448 229.084 45.9458 235.721 44.8298 242.691C44.0838 247.347 44.1078 252.165 44.6548 256.843L44.6928 257.165C45.2328 261.587 46.2698 266.548 49.0808 270.107C50.5148 271.923 52.2128 272.731 54.3848 273.316L54.5038 273.347C56.4688 273.865 58.4968 274.598 60.5228 274.82C62.4028 275.025 63.9788 274.326 65.6718 273.67L65.6738 273.668C69.2378 270.513 70.8558 265.918 72.0518 261.281C75.1518 249.281 74.7668 236.824 73.0088 224.648C72.0918 218.286 70.8458 211.979 69.6028 205.675C68.9828 202.524 68.3128 199.379 67.7568 196.217L67.4268 194.356C67.2413 193.323 67.0716 192.287 66.9178 191.248C66.7148 189.851 66.6538 188.477 66.5838 187.072C64.8768 184.242 62.3988 181.911 59.5278 180.239C57.4718 179.041 55.2958 178.21 53.0508 177.608C46.6298 175.877 39.6308 175.999 33.1708 174.668C30.9998 174.221 28.9398 173.558 26.8808 172.763L26.5998 172.653C25.6548 172.286 24.6918 172.081 24.2228 173.195C23.8888 173.987 24.0878 174.811 24.5888 175.477C25.8158 177.109 28.2838 177.865 30.1408 178.453C31.2578 178.808 32.3988 179.089 33.5528 179.298C34.7058 179.508 35.8628 179.56 36.9708 179.968C37.3978 180.125 37.4818 180.803 36.9708 180.923C35.5678 181.251 34.1568 180.97 32.7618 180.697C31.2282 180.393 29.7214 179.967 28.2558 179.423C27.9858 179.323 27.7058 179.218 27.4208 179.106L27.2058 179.021C27.4278 179.182 27.6498 179.341 27.8738 179.499C27.9328 179.541 27.8968 179.653 27.8188 179.626C24.3708 178.339 21.2348 176.018 18.8048 173.271L18.6828 173.133C17.8278 172.153 15.8778 169.185 14.2338 170.012C12.6908 170.787 15.3218 173.774 16.3218 174.996L16.4378 175.139C17.5738 175.169 18.6748 175.876 19.5958 176.447C21.1958 177.439 22.8658 178.292 24.5698 179.091C27.9538 180.683 31.5478 181.805 34.8958 183.477C34.9408 183.5 34.9058 183.557 34.8648 183.551C32.7328 183.21 30.6248 182.667 28.5648 181.993L28.4728 181.964L28.3808 181.934C27.0964 181.509 25.8273 181.038 24.5758 180.524C23.187 179.961 21.8315 179.319 20.5158 178.601C19.3238 177.95 18.0008 176.777 16.6198 176.604C16.4896 176.586 16.3578 176.582 16.2268 176.593C14.6398 176.726 15.9518 179.355 16.3958 180.142C17.1208 181.43 17.9941 182.628 18.9978 183.713C21.0328 185.924 23.4978 187.676 26.1668 189.039C27.0768 189.504 28.0088 189.914 28.9548 190.291Z" fill="#463D56"/>
<path fill-rule="evenodd" clip-rule="evenodd" d="M129.727 53.95C141.723 53.95 157.208 61.477 158.528 69.187C160.084 78.273 168.417 113.137 166.535 124.317C164.654 135.497 154.514 143.546 138.289 143.546C122.064 143.546 109.954 134.694 107.173 131.655C104.393 128.616 99.24 117.765 99.24 117.765C99.24 117.765 90.552 116.609 90.511 109.525C90.47 102.44 96.159 99.863 96.159 99.863C96.159 99.863 94.131 71.906 99.239 64.627C104.348 57.348 117.731 53.95 129.727 53.95Z" fill="#F0EAFF"/>
<path fill-rule="evenodd" clip-rule="evenodd" d="M157.794 67.9429C157.785 67.7799 158.022 67.7609 158.066 67.9049C160.654 76.4579 162.249 83.1249 163.929 91.8929L164.425 94.4729C165.75 101.353 167.089 108.243 168.22 115.157L168.286 115.569C168.853 119.148 169.179 122.762 168.469 126.348C167.806 129.7 165.993 132.773 163.64 135.22C159.091 139.95 152.77 142.905 146.411 144.226C143.195 144.894 139.878 145.151 136.602 144.919C134.967 144.804 133.342 144.575 131.738 144.234L131.562 144.196C129.95 143.848 128.519 143.433 127.663 141.915C127.447 141.533 127.534 140.878 127.986 140.681C128.84 140.313 129.467 140.159 130.399 140.265C131.288 140.366 132.157 140.635 133.035 140.802C134.715 141.121 136.422 141.281 138.131 141.32C141.488 141.394 144.854 140.973 148.063 139.971C153.577 138.249 159.18 134.954 162.402 130.025C166.191 124.227 164.682 117.19 163.678 110.787L163.648 110.594C162.629 104.051 161.629 97.5044 160.65 90.9549L160.234 88.1479C159.14 80.7319 158.107 75.4379 157.794 67.9429ZM101.81 49.7899C104.562 47.9759 107.982 47.5299 111.214 47.5549L111.619 47.5599C115.758 47.6229 136.593 48.1189 143.568 48.2719L145.228 48.3069C147.424 48.3479 151.854 48.3909 154.136 48.4329L154.268 48.4349C155.387 48.4569 156.507 48.4649 157.627 48.5009L157.791 48.5069C158.63 48.5429 159.328 48.6679 159.985 49.2599C160.319 49.5599 160.449 50.0169 160.418 50.4519L160.413 50.5089L162.076 50.6549C163.205 50.7549 163.802 51.7669 163.354 52.7919L163.331 52.8419C162.535 54.5419 161.926 59.4869 161.499 61.3149C161.271 62.2774 161.101 63.2529 160.99 64.2359C160.906 65.0099 160.897 65.7859 160.466 66.4659C159.547 67.9179 156.961 67.9049 156.915 65.8489C156.913 65.7829 156.915 65.7189 156.921 65.6589C150.414 65.3729 141.53 65.3999 135.032 65.7889C127.42 66.2482 119.867 67.4187 112.473 69.2849C111.249 69.5939 109.747 69.7779 108.653 70.4389C107.428 71.1829 107.451 72.5169 107.584 73.7869C107.727 75.1329 107.965 74.4389 108.303 75.6669L108.323 75.7439C108.672 77.0759 109.103 78.3919 109.673 79.6439C109.999 80.3579 110.523 81.0439 110.324 81.8669C110.212 82.3299 109.846 82.8239 109.511 83.1469C107.981 84.6169 105.395 83.6799 104.356 85.6919C103.268 87.7959 103.241 90.6459 103.149 92.9739L103.143 93.1109C103.076 94.7148 103.095 96.3211 103.2 97.9229C103.295 99.3809 103.684 100.825 103.185 102.226C102.822 103.245 101.635 103.34 101.013 102.512C100.944 102.418 100.878 102.321 100.816 102.221L100.756 102.123L100.752 102.125C100.811 102.218 100.866 102.313 100.918 102.41C100.975 102.518 100.834 102.636 100.747 102.543C99.2852 100.952 97.1492 101.269 95.4952 102.383C93.8202 103.515 93.1592 105.667 93.0722 107.597C92.9752 109.737 93.1652 112.247 94.0562 114.225C94.4332 115.062 94.9692 115.831 95.8592 116.15C96.2622 116.294 96.6472 116.275 97.0672 116.308C97.5042 116.342 98.0302 116.562 98.4552 116.533C99.0072 116.493 99.5022 117.123 99.3452 117.651L99.3342 117.686C99.3263 117.711 99.318 117.735 99.3092 117.76C99.3292 117.779 99.3512 117.803 99.3662 117.837C100.971 121.119 103.173 124.04 105.606 126.749C106.826 128.104 108.178 129.349 109.591 130.501C110.288 131.069 111.023 131.638 111.799 132.096C112.056 132.246 112.293 132.348 112.583 132.43C112.718 132.468 112.872 132.487 113.003 132.532L113.139 132.578L113.166 132.587C113.361 132.609 113.545 132.687 113.695 132.813C113.845 132.938 113.955 133.105 114.011 133.293C114.347 134.345 113.736 135.275 112.692 135.565C111.562 135.881 110.496 135.326 109.6 134.688L109.54 134.645C107.713 133.329 106.029 131.851 104.571 130.127C101.687 126.722 99.8812 122.78 99.0452 118.42C98.8372 118.866 98.5592 119.255 98.0752 119.525C97.3232 119.948 96.4252 119.948 95.6012 119.806C93.9422 119.525 92.5292 118.513 91.5852 117.143C90.6052 115.723 90.2392 113.998 90.0172 112.318C89.7972 110.636 89.6902 108.947 89.9092 107.261C90.2242 104.838 91.2402 102.444 93.2162 101.117C91.7362 97.8929 91.4762 94.2789 91.5832 90.7499C91.7112 86.4039 92.4612 82.0099 93.0382 77.7049L94.6782 65.4659L94.7452 64.9729C95.1402 62.0929 95.6222 59.1989 96.6992 56.4859C97.7622 53.8119 99.3762 51.3939 101.81 49.7899ZM94.9102 107.692C97.6182 106.377 100.544 107.588 102.002 110.139C103.269 112.357 99.5012 113.823 98.8722 111.537L98.8542 111.466C98.4402 109.735 96.7542 108.239 94.9942 108.007C94.8482 107.986 94.7402 107.774 94.9102 107.692Z" fill="#463D56"/>
<path fill-rule="evenodd" clip-rule="evenodd" d="M143.152 128.274C141.72 127.689 140.471 126.728 139.538 125.493C139.396 125.312 139.292 125.103 139.234 124.88C139.176 124.657 139.164 124.424 139.2 124.196C139.276 123.729 139.552 123.307 139.928 123.023C140.305 122.739 140.777 122.599 141.233 122.67C141.63 122.732 142.024 122.949 142.337 123.4L142.402 123.49C142.946 124.234 143.662 124.835 144.488 125.241C145.289 125.634 146.184 125.792 147.07 125.695C148.808 125.499 150.005 124.559 151.278 123.282C151.436 123.121 151.594 122.955 151.752 122.786C151.845 122.643 151.984 122.536 152.146 122.483C152.322 122.428 152.511 122.43 152.686 122.49C152.861 122.549 153.011 122.663 153.116 122.815C153.213 122.958 153.269 123.135 153.251 123.339C153.134 124.662 152.443 125.842 151.461 126.769C150.37 127.799 148.924 128.511 147.563 128.761C146.064 129.036 144.536 128.839 143.152 128.274ZM148.271 107.866C149.866 108.837 152.297 111.099 150.581 113.504C148.56 115.624 145.652 113.193 144.219 112.093C142.89 111.241 141.396 113.433 142.629 114.428C152.987 122.099 157.19 108.12 149.078 106.726C148.184 106.572 147.853 107.566 148.271 107.866ZM129.711 98.9431C129.887 96.7541 133.219 96.2571 133.551 98.4231C133.847 100.363 133.498 102.146 132.624 103.893C131.79 105.561 129.692 104.783 129.533 103.263C129.32 101.226 129.601 100.305 129.711 98.9431ZM155.076 97.9741C155.541 97.3651 156.212 96.9501 157.015 97.1841C159.526 97.9191 158.786 101.485 157.904 103.221C157.425 104.163 155.876 104.402 155.176 103.572C154.036 102.219 153.489 99.5161 154.94 98.1821C154.979 98.1141 155.023 98.0441 155.076 97.9741ZM132.589 89.3661L132.986 89.2961C134.213 89.0841 135.738 88.8801 136.606 89.8661C137.067 90.3901 137.225 91.3631 136.606 91.8641C135.518 92.7441 134.314 92.4041 133.01 92.4781C131.946 92.5391 130.892 92.7188 129.867 93.0141C127.595 93.6641 125.744 94.8491 123.804 96.1511C123.55 96.3211 123.29 95.9961 123.411 95.7581C124.531 93.5631 126.701 91.7611 128.875 90.6621C130.036 90.0751 131.305 89.5891 132.589 89.3661ZM152.787 88.3831L153.091 88.4451C156.395 89.1351 160.687 90.5151 162.251 93.7621C162.311 94.2211 162.248 94.3191 162.197 94.3831L162.18 94.4051C162.137 94.4601 162.104 94.5351 161.905 94.5981C161.849 94.5847 161.793 94.5707 161.737 94.5561C161.02 94.3681 160.453 94.1091 159.904 93.8401L159.308 93.5471C158.617 93.2071 157.92 92.8811 157.181 92.6401C155.606 92.124 153.984 91.7655 152.337 91.5701C151.986 91.5352 151.651 91.4075 151.365 91.2001C151.094 90.996 150.901 90.7036 150.821 90.3731C150.705 89.9061 150.739 89.5531 150.989 89.1311C151.177 88.8151 151.447 88.5961 151.756 88.4701C152.084 88.3407 152.443 88.3105 152.787 88.3831Z" fill="#463D56"/>
</svg>
