<svg width="351" height="388" viewBox="0 0 351 388" fill="none" xmlns="http://www.w3.org/2000/svg">
<g clip-path="url(#clip0_117_372)">
<path opacity="0.18" d="M100.066 92.544C81.6521 107.641 75.531 129.568 59.9 146.492C41.6278 166.286 10.0169 179.875 3.42236 203.786C-3.80345 230.117 23.2144 254.256 50.4649 270.567C63.5876 278.428 77.6821 286.009 86.2202 297.1C91.5606 304.042 94.4011 311.962 98.6785 319.347C112.25 342.919 142.241 360.905 175.139 362.217C208.037 363.528 241.675 346.461 250.587 321.559C254.939 309.385 253.851 295.763 262.281 285.024C273.311 270.938 296.475 266.593 313.227 256.579C345.27 237.437 347.039 194.476 316.641 173.723C289.988 155.547 245.404 153.166 230.421 128.055C226.359 121.25 225.205 113.597 221.65 106.623C203.154 70.3556 131.809 66.513 100.066 92.544Z" fill="#ABA0DE"/>
<path d="M158.021 185.264C167.888 185.264 175.887 178.981 175.887 171.231C175.887 163.481 167.888 157.198 158.021 157.198C148.155 157.198 140.156 163.481 140.156 171.231C140.156 178.981 148.155 185.264 158.021 185.264Z" fill="#463D56"/>
<path d="M218.519 277.41C218.519 277.41 217.514 295.025 216.068 298.438C214.623 301.85 216.343 303.415 211.808 304.309C207.273 305.203 208.868 286.003 208.868 286.003L210.396 278.643L218.519 277.41Z" fill="url(#paint0_linear_117_372)"/>
<path d="M171.103 282.532L181.592 330.764H190.562L192.805 302.978L194.873 337.862H204.715C204.715 337.862 213.178 299.651 211.617 292.618C211.189 290.299 210.259 288.055 208.868 285.983L171.103 282.532Z" fill="#2C233A"/>
<path d="M177.289 207.335C176.924 203.61 177.181 199.65 179.731 196.499C180.77 195.232 182.135 194.149 183.738 193.322C185.342 192.495 187.149 191.942 189.042 191.697C194.498 191.045 199.839 193.002 204.822 194.894C212.131 197.712 219.49 200.557 225.918 204.465C232.347 208.373 237.87 213.494 240.303 219.594C241.397 222.564 241.981 225.636 242.039 228.728C242.238 231.612 241.984 234.504 241.283 237.339C240.019 241.683 237.279 245.675 233.355 248.892C229.431 252.109 224.47 254.429 219 255.607C206.541 258.151 192.347 254.556 181.077 259.417C180.338 259.82 179.48 260.067 178.585 260.135C177.977 260.089 177.4 259.901 176.929 259.595C176.459 259.289 176.115 258.879 175.944 258.419C175.624 257.492 175.624 256.514 175.944 255.587C176.732 252.707 178.577 250.072 181.251 248.006C184.69 245.364 189.274 243.837 193.028 241.482C193.667 241.148 194.155 240.664 194.424 240.099C194.872 238.794 193.145 237.718 191.558 237.235C189.972 236.752 188.078 236.322 187.447 235.089C186.932 234.09 187.447 232.981 187.804 231.938C189.241 227.371 186.143 224.304 182.945 220.918C179.233 217.004 177.754 212.111 177.289 207.335Z" fill="#463D56"/>
<path d="M204.947 208.686C204.947 208.686 210.545 216.038 216.982 220.905C223.419 225.772 234.382 234.521 227.397 241.163C223.201 245.15 217.857 248.297 211.807 250.342L197.63 239.153V220.886L204.947 208.686Z" fill="#2C233A"/>
<path d="M155.812 202.155L169.334 201.366C169.334 201.366 165.538 221.982 183.993 228.676C202.448 235.369 213.801 236.765 215.056 241.932C216.31 247.1 221.193 276.921 221.193 276.921L211.899 278.624L211.617 255.561L211.974 284.652C211.974 284.652 191.842 293.525 186.044 291.776C180.247 290.028 168.079 288.573 168.37 273.75C168.661 258.928 177.506 248.437 167.905 237.157C158.304 225.877 155.563 207.498 155.812 202.155Z" fill="#ABA0DE"/>
<path d="M155.812 202.155L169.334 201.366C169.334 201.366 165.538 221.982 183.993 228.676C202.448 235.369 213.801 236.765 215.056 241.932C216.31 247.1 221.193 276.921 221.193 276.921L211.899 278.624L211.617 255.561L211.974 284.652C211.974 284.652 191.842 293.525 186.044 291.776C180.247 290.028 168.079 288.573 168.37 273.75C168.661 258.928 177.506 248.437 167.905 237.157C158.304 225.877 155.563 207.498 155.812 202.155Z" fill="url(#paint1_linear_117_372)"/>
<path d="M188.004 230.117C188.004 230.117 188.519 236.25 193.535 236.1C198.552 235.95 198.56 233.98 198.56 233.98L201.75 223.293L188.004 223.946C188.004 223.946 189.565 228.473 188.004 230.117Z" fill="url(#paint2_linear_117_372)"/>
<path d="M188.627 226.751C188.627 226.751 187.995 229.909 190.578 230.802C193.161 231.696 197.323 230.574 198.327 229.674L198.56 233.954L200.886 226.157L188.627 226.751Z" fill="#8943FF"/>
<path d="M183.702 208.477C183.702 208.477 180.803 224.709 191.218 227.99C201.633 231.272 204.823 222.465 206.168 218.237C207.514 214.009 203.618 198.86 195.371 201.216C190.542 202.522 186.425 205.083 183.702 208.477Z" fill="url(#paint3_linear_117_372)"/>
<path d="M159.225 201.959C159.225 201.959 160.197 196.283 160.222 196.179C160.308 195.652 160.209 195.117 159.937 194.631C159.665 194.144 159.229 193.726 158.677 193.419C157.68 192.832 156.584 191.462 156.584 188.298C156.584 185.134 160.853 181.709 162.614 183.079C164.375 184.449 164.383 185.532 166.019 185.734C167.655 185.936 166.393 189.198 166.019 190.301C165.645 191.403 168.029 201.463 168.029 201.463L159.225 201.959Z" fill="url(#paint4_linear_117_372)"/>
<path d="M211.616 255.587L217.015 277.684L211.899 278.624L211.616 255.587Z" fill="url(#paint5_linear_117_372)"/>
<path d="M194.872 337.862C194.872 337.862 192.538 355.934 196.367 370.62H199.033L204.714 337.862H194.872ZM181.592 330.764L186.941 367.619L188.901 366.966C188.901 366.966 192.572 340.87 192.273 338.352C191.974 335.833 190.562 330.751 190.562 330.751L181.592 330.764Z" fill="#2C233A"/>
<path d="M188.901 366.979C188.901 366.979 190.089 368.558 189.956 369.68C189.856 370.45 183.079 377.053 178.237 380.615C173.005 384.464 167.93 383.042 167.93 383.042C166.036 382.892 165.056 379.473 166.501 378.475C169.651 376.355 173.19 374.622 177 373.334C185.679 370.45 186.966 367.593 186.966 367.593L188.901 366.979ZM196.368 370.62C195.847 371.902 195.658 373.253 195.812 374.593C196.144 376.505 206.609 385.86 206.609 385.86C206.609 385.86 215.18 390.231 218.187 386.473C221.193 382.716 209.316 377.731 206.958 376.687C204.599 375.643 199.034 370.626 199.034 370.626L196.368 370.62Z" fill="#2C233A"/>
<path d="M136.41 149.538C137.548 152.401 139.802 154.911 142.855 156.712C145.907 158.514 149.603 159.517 153.42 159.579C158.196 159.579 163.569 158.15 168.553 153.42C181.842 140.816 157.382 118.601 190.33 91.7415C223.278 64.8819 226.708 17.2692 167.531 14.105C122.341 11.7041 103.853 33.7816 98.6533 47.5996V61.6068L130.397 71.3929C130.397 71.3929 142.54 42.4521 162.531 46.1382C182.523 49.8243 163.694 75.7771 151.078 85.6415C123.279 107.386 131.319 137.11 136.41 149.538Z" fill="#463D56"/>
<path d="M136.41 131.8C137.555 134.659 139.812 137.164 142.862 138.965C145.913 140.766 149.605 141.771 153.419 141.84C158.195 141.84 163.569 140.137 168.552 135.414C181.841 122.803 155.687 110.27 188.643 83.4104C221.6 56.5508 226.732 3.28821 167.556 0.1436C108.379 -3.00101 98.6777 47.6193 98.6777 47.6193L130.421 57.4054C130.421 57.4054 142.539 28.4972 162.531 32.1703C182.522 35.8434 163.693 61.8027 151.077 71.6736C123.279 93.3988 131.318 119.371 136.41 131.8Z" fill="#ABA0DE"/>
<path d="M158.021 176.085C167.888 176.085 175.887 169.802 175.887 162.052C175.887 154.301 167.888 148.018 158.021 148.018C148.155 148.018 140.156 154.301 140.156 162.052C140.156 169.802 148.155 176.085 158.021 176.085Z" fill="#ABA0DE"/>
<path d="M86.784 168.608C88.5592 165.625 86.9192 162.076 83.1211 160.681C79.3229 159.287 74.8048 160.575 73.0296 163.559C71.2545 166.542 72.8945 170.091 76.6926 171.485C80.4908 172.88 85.0089 171.592 86.784 168.608Z" fill="#463D56"/>
<path d="M67.283 159.892C68.2686 160.905 69.6335 161.65 71.1858 162.022C72.738 162.394 74.3997 162.375 75.9374 161.967C77.8476 161.432 79.7247 160.238 80.8459 157.778C83.8193 151.254 69.9491 145.141 78.1632 130.651C86.3774 116.161 78.944 96.7261 54.725 102.232C36.2203 106.421 32.9064 117.349 33.3798 123.468L35.9628 129.053L50.4477 129.34C50.4477 129.34 49.9494 116.403 58.6203 115.594C67.2913 114.785 64.5588 127.304 61.3362 132.687C54.2433 144.548 62.9475 155.508 67.283 159.892Z" fill="#463D56"/>
<path d="M64.0109 152.8C64.9927 153.815 66.356 154.561 67.9077 154.934C69.4594 155.306 71.1209 155.286 72.6569 154.875C74.5755 154.34 76.4027 153.042 77.5156 150.582C80.4973 144.058 67.74 142.003 75.9459 127.513C84.1518 113.023 76.3695 91.1609 52.1423 96.6477C27.915 102.134 33.4216 123.468 33.4216 123.468L47.9064 123.749C47.9064 123.749 47.4164 110.818 56.0791 110.009C64.7417 109.2 62.0175 121.72 58.795 127.096C51.6938 138.956 59.6671 148.416 64.0109 152.8Z" fill="#ABA0DE"/>
<path d="M81.5584 167.775C85.324 166.327 86.8825 162.755 85.0394 159.797C83.1962 156.839 78.6494 155.615 74.8838 157.063C71.1181 158.511 69.5596 162.082 71.4027 165.04C73.2459 167.998 77.7927 169.222 81.5584 167.775Z" fill="#ABA0DE"/>
<path d="M46.4609 223.287C46.7774 224.439 46.6522 225.639 46.1012 226.735C45.5501 227.831 44.5978 228.774 43.3646 229.446C42.1314 230.117 40.6726 230.486 39.1724 230.507C37.6722 230.527 36.1979 230.198 34.9357 229.561C33.6736 228.923 32.6802 228.007 32.0809 226.926C31.4817 225.846 31.3035 224.65 31.5689 223.49C31.8343 222.33 32.5314 221.258 33.5721 220.409C34.6128 219.56 35.9505 218.972 37.4161 218.72C38.3919 218.551 39.4006 218.535 40.3841 218.674C41.3676 218.812 42.3066 219.102 43.1471 219.526C43.9876 219.951 44.713 220.501 45.2817 221.147C45.8504 221.792 46.2511 222.519 46.4609 223.287Z" fill="#463D56"/>
<path d="M27.5577 217.108C28.3627 218.216 29.5906 219.096 31.0676 219.626C32.5447 220.155 34.1962 220.306 35.7885 220.057C37.7735 219.724 39.8416 218.752 41.3532 216.417C45.398 210.232 32.6656 202.762 43.222 189.244C53.7783 175.726 49.667 155.717 24.7338 158.659C5.68927 160.903 0.581368 171.394 0.0332031 177.507L1.69431 183.314L15.9798 185.101C15.9798 185.101 17.6409 172.229 26.3783 172.321C35.1158 172.412 30.3069 184.54 26.2205 189.538C17.1924 200.557 23.9947 212.32 27.5577 217.108Z" fill="#463D56"/>
<path d="M25.4981 209.743C26.304 210.849 27.532 211.729 29.0088 212.258C30.4856 212.787 32.1366 212.939 33.7289 212.691C35.7139 212.359 37.7404 211.256 39.2603 208.94C43.3051 202.755 30.9963 199.428 41.5527 185.91C52.109 172.392 48.0393 149.91 23.1061 152.853C-1.82711 155.795 0.0333245 177.507 0.0333245 177.507L14.3188 179.282C14.3188 179.282 15.9799 166.41 24.7174 166.501C33.4548 166.592 28.6459 178.721 24.5596 183.718C15.573 194.75 21.9267 204.954 25.4981 209.743Z" fill="#ABA0DE"/>
<path d="M38.5326 226.71C42.7135 226.465 45.8498 223.604 45.5376 220.319C45.2255 217.035 41.5831 214.572 37.4022 214.817C33.2213 215.062 30.0851 217.923 30.3972 221.207C30.7094 224.492 34.3517 226.955 38.5326 226.71Z" fill="#ABA0DE"/>
<path d="M268.676 178.473C268.341 179.622 267.58 180.668 266.489 181.478C265.398 182.287 264.025 182.825 262.545 183.022C261.066 183.219 259.544 183.067 258.174 182.586C256.804 182.104 255.647 181.314 254.848 180.315C254.049 179.317 253.646 178.155 253.688 176.976C253.729 175.798 254.215 174.655 255.084 173.693C255.952 172.732 257.164 171.994 258.566 171.573C259.969 171.152 261.498 171.067 262.962 171.329C264.925 171.682 266.629 172.633 267.701 173.972C268.772 175.311 269.123 176.93 268.676 178.473Z" fill="#463D56"/>
<path d="M254.946 166.547C255.07 167.816 255.698 169.022 256.741 169.996C257.784 170.969 259.19 171.662 260.76 171.975C262.729 172.34 265.137 172.138 267.77 170.552C274.788 166.318 267.346 155.293 284.24 146.616C301.133 137.939 308.326 118.464 284.165 112.756C265.727 108.391 255.395 116.161 251.574 121.504L249.913 127.298L261.89 133.704C261.89 133.704 270.403 122.614 278.243 125.641C286.084 128.668 275.145 138.004 268.725 141.155C254.581 148.097 254.348 161.014 254.946 166.547Z" fill="#463D56"/>
<path d="M257.09 159.194C257.212 160.463 257.84 161.67 258.883 162.644C259.926 163.618 261.333 164.31 262.903 164.622C264.88 164.994 267.322 164.674 269.955 163.089C276.973 158.855 267.654 151.711 284.556 143.034C301.458 134.357 309.996 112.684 285.91 106.956C261.824 101.228 251.633 121.505 251.633 121.505L263.609 127.911C263.609 127.911 272.123 116.82 279.963 119.841C287.803 122.862 276.865 132.237 270.453 135.362C256.267 142.303 256.467 153.668 257.09 159.194Z" fill="#ABA0DE"/>
<path d="M269.417 175.539C270.967 172.479 269.066 169.011 265.171 167.793C261.275 166.576 256.861 168.069 255.311 171.129C253.761 174.189 255.662 177.657 259.557 178.874C263.453 180.092 267.867 178.599 269.417 175.539Z" fill="#ABA0DE"/>
<path d="M307.222 231.82C306.578 232.535 305.679 233.084 304.638 233.398C303.597 233.712 302.461 233.776 301.373 233.582C300.285 233.389 299.295 232.947 298.528 232.312C297.76 231.676 297.249 230.877 297.06 230.013C296.871 229.15 297.012 228.262 297.465 227.462C297.918 226.662 298.663 225.985 299.606 225.517C300.548 225.049 301.646 224.811 302.761 224.833C303.876 224.856 304.957 225.137 305.868 225.642C306.474 225.977 306.99 226.403 307.386 226.896C307.781 227.388 308.05 227.937 308.176 228.51C308.301 229.084 308.282 229.672 308.118 230.24C307.955 230.808 307.65 231.345 307.222 231.82Z" fill="#463D56"/>
<path d="M302.073 220.572C301.704 221.474 301.705 222.445 302.076 223.346C302.447 224.247 303.169 225.034 304.141 225.596C304.91 226.013 305.793 226.282 306.719 226.383C307.645 226.484 308.588 226.413 309.473 226.177C315.826 224.826 314.672 215.588 329.406 213.37C344.14 211.152 356.092 199.356 341.54 190.066C330.436 182.974 320.536 186.021 315.984 188.846L312.737 192.454L318.667 199.526C318.667 199.526 328.509 193.798 332.786 197.608C337.064 201.418 326.208 205.437 320.66 206.167C308.468 207.798 303.642 216.625 302.073 220.572Z" fill="#463D56"/>
<path d="M306.191 215.986C305.822 216.889 305.823 217.86 306.194 218.763C306.565 219.665 307.288 220.454 308.259 221.016C309.48 221.708 311.274 222.034 313.65 221.525C320.004 220.175 316.141 213.194 330.917 210.982C345.693 208.77 359.347 195.748 344.796 186.458C330.244 177.168 315.992 188.846 315.992 188.846L321.922 195.912C321.922 195.912 331.764 190.183 336.042 194C340.319 197.817 329.464 201.829 323.915 202.56C311.715 204.191 307.761 212.046 306.191 215.986Z" fill="#ABA0DE"/>
<path d="M309.395 229.385C311.16 227.365 310.506 224.603 307.934 223.217C305.362 221.83 301.846 222.344 300.081 224.364C298.316 226.385 298.971 229.146 301.542 230.532C304.114 231.919 307.63 231.405 309.395 229.385Z" fill="#ABA0DE"/>
<path d="M158.511 349.658C158.406 349.658 158.303 349.635 158.212 349.593C158.142 349.562 158.08 349.521 158.031 349.471C157.981 349.422 157.945 349.364 157.925 349.303C157.905 349.242 157.901 349.178 157.913 349.116C157.925 349.054 157.954 348.994 157.996 348.94C164.29 339.899 169.423 330.388 173.32 320.548C179.483 305.183 185.297 282.251 177.971 260.239C163.852 217.865 160.579 191.847 160.53 191.586C160.516 191.463 160.565 191.34 160.666 191.244C160.767 191.149 160.912 191.089 161.07 191.077C161.225 191.066 161.379 191.104 161.499 191.182C161.619 191.261 161.694 191.373 161.709 191.495C161.709 191.756 165.031 217.709 179.101 259.998C186.501 282.232 180.646 305.36 174.425 320.848C170.498 330.742 165.334 340.308 159.01 349.404C158.962 349.476 158.891 349.538 158.804 349.583C158.716 349.628 158.616 349.653 158.511 349.658Z" fill="#F0EAFF"/>
</g>
<defs>
<linearGradient id="paint0_linear_117_372" x1="208.593" y1="290.863" x2="218.519" y2="290.863" gradientUnits="userSpaceOnUse">
<stop stop-color="#CFC4EC"/>
<stop offset="0.42" stop-color="#DAD1EF"/>
<stop offset="1" stop-color="#D5C9F2"/>
</linearGradient>
<linearGradient id="paint1_linear_117_372" x1="149.932" y1="253.395" x2="327.692" y2="175.308" gradientUnits="userSpaceOnUse">
<stop stop-color="white" stop-opacity="0"/>
<stop offset="0.99" stop-color="white"/>
</linearGradient>
<linearGradient id="paint2_linear_117_372" x1="200.039" y1="215.484" x2="195.707" y2="229.525" gradientUnits="userSpaceOnUse">
<stop stop-color="#CFC4EC"/>
<stop offset="0.42" stop-color="#DAD1EF"/>
<stop offset="1" stop-color="#D5C9F2"/>
</linearGradient>
<linearGradient id="paint3_linear_117_372" x1="183.328" y1="214.838" x2="206.426" y2="214.838" gradientUnits="userSpaceOnUse">
<stop stop-color="#CFC4EC"/>
<stop offset="0.42" stop-color="#DAD1EF"/>
<stop offset="1" stop-color="#D5C9F2"/>
</linearGradient>
<linearGradient id="paint4_linear_117_372" x1="156.584" y1="192.362" x2="168.029" y2="192.362" gradientUnits="userSpaceOnUse">
<stop stop-color="#CFC4EC"/>
<stop offset="0.42" stop-color="#DAD1EF"/>
<stop offset="1" stop-color="#D5C9F2"/>
</linearGradient>
<linearGradient id="paint5_linear_117_372" x1="220.619" y1="264.636" x2="175.379" y2="287.894" gradientUnits="userSpaceOnUse">
<stop stop-opacity="0"/>
<stop offset="1"/>
</linearGradient>
<clipPath id="clip0_117_372">
<rect width="351" height="388" fill="white"/>
</clipPath>
</defs>
</svg>
