<svg width="31" height="29" viewBox="0 0 31 29" fill="none" xmlns="http://www.w3.org/2000/svg">
<g clip-path="url(#clip0_182_2685)">
<path d="M24.1216 29C23.8703 28.9994 23.623 28.9389 23.4008 28.8236L15.5 24.7492L7.59917 28.8236C7.34335 28.9551 7.05518 29.0138 6.76714 28.9933C6.4791 28.9727 6.20265 28.8736 5.96896 28.7071C5.73528 28.5407 5.55365 28.3135 5.44456 28.0512C5.33547 27.789 5.30325 27.502 5.35154 27.2227L6.85978 18.5934L0.467195 12.4817C0.260397 12.2836 0.114167 12.0328 0.0450183 11.7576C-0.0241305 11.4823 -0.0134444 11.1936 0.0758701 10.924C0.165185 10.6544 0.32957 10.4147 0.550464 10.2319C0.771358 10.0491 1.03996 9.93049 1.32595 9.8895L10.1599 8.63066L14.1111 0.779698C14.2535 0.542286 14.4565 0.345455 14.7003 0.208698C14.944 0.0719404 15.22 0 15.5008 0C15.7816 0 16.0575 0.0719404 16.3013 0.208698C16.545 0.345455 16.7481 0.542286 16.8904 0.779698L20.8401 8.63066L29.6741 9.8895C29.96 9.93049 30.2286 10.0491 30.4495 10.2319C30.6704 10.4147 30.8348 10.6544 30.9241 10.924C31.0134 11.1936 31.0241 11.4823 30.955 11.7576C30.8858 12.0328 30.7396 12.2836 30.5328 12.4817L24.1402 18.5934L25.65 27.2227C25.6881 27.4409 25.6773 27.6645 25.6181 27.8781C25.559 28.0917 25.453 28.2901 25.3076 28.4593C25.1622 28.6286 24.9809 28.7646 24.7763 28.858C24.5717 28.9514 24.3473 28.9999 24.1216 29Z" fill="#FFBD3B"/>
</g>
<defs>
<clipPath id="clip0_182_2685">
<rect width="31" height="29" fill="white"/>
</clipPath>
</defs>
</svg>
