<svg width="674" height="457" viewBox="0 0 674 457" fill="none" xmlns="http://www.w3.org/2000/svg">
<path d="M219.84 210.268C223.15 269.131 337.585 380.517 390.671 310.359C418.614 273.43 493.31 224.697 549.513 197.286C604.163 170.633 469.719 93.6105 378.682 97.1952C287.645 100.78 216.529 151.404 219.84 210.268Z" fill="#F0EAFF"/>
<path d="M203.051 209.61C199.41 144.864 277.799 88.9867 377.794 85.0488C414.182 83.6168 461.475 94.2803 504.298 113.574C545.204 132.007 573.758 154.428 578.815 172.09C581.641 181.961 577.025 190.16 565.464 195.798L564.974 194.9C576.202 189.425 580.516 181.836 577.799 172.344C572.821 154.962 544.489 132.792 503.858 114.484C461.185 95.2565 414.076 84.628 377.85 86.0553C278.436 89.9697 200.494 145.378 204.104 209.569L203.051 209.61Z" fill="#F0EAFF"/>
<path d="M502.395 77.8951L307.591 51.7615L292.234 166.233L487.039 192.367L502.395 77.8951Z" fill="#C6BAFF"/>
<path d="M479.96 112.525C479.816 112.506 479.677 112.459 479.553 112.385C479.393 112.271 479.259 112.127 479.161 111.962C479.062 111.796 479.001 111.613 478.98 111.425C478.834 110.322 479.145 109.213 479.846 108.336C480.536 107.507 481.536 106.966 482.64 106.825C482.829 106.798 483.022 106.81 483.207 106.858C483.392 106.907 483.565 106.992 483.715 107.107C484.468 107.768 483.904 109.394 483.372 110.263C482.742 111.305 481.74 112.093 480.548 112.487C480.357 112.534 480.157 112.547 479.96 112.525ZM479.792 112.02C479.994 112.114 480.225 112.13 480.437 112.065C481.51 111.698 482.409 110.982 482.98 110.042C483.48 109.224 483.908 107.86 483.412 107.424C483.306 107.352 483.188 107.3 483.062 107.271C482.937 107.242 482.807 107.238 482.68 107.257C481.702 107.389 480.818 107.871 480.205 108.606C479.583 109.387 479.305 110.372 479.427 111.353C479.438 111.482 479.477 111.607 479.539 111.721C479.602 111.835 479.688 111.937 479.792 112.02ZM353.406 72.1264C353.582 72.1441 353.757 72.096 353.894 71.9924C354.032 71.8887 354.121 71.7375 354.144 71.5707C354.166 71.404 354.12 71.2346 354.014 71.0983C353.909 70.962 353.753 70.8695 353.579 70.8403C353.403 70.8226 353.228 70.8707 353.09 70.9744C352.953 71.078 352.863 71.2292 352.841 71.396C352.819 71.5628 352.865 71.7321 352.97 71.8684C353.076 72.0047 353.232 72.0972 353.406 72.1264ZM356.289 72.5132C356.465 72.5309 356.64 72.4828 356.778 72.3792C356.915 72.2755 357.005 72.1243 357.027 71.9575C357.049 71.7908 357.003 71.6214 356.898 71.4851C356.792 71.3488 356.636 71.2563 356.462 71.2271C356.286 71.2094 356.111 71.2575 355.974 71.3612C355.836 71.4648 355.747 71.616 355.724 71.7828C355.702 71.9496 355.748 72.1189 355.854 72.2552C355.959 72.3915 356.115 72.484 356.289 72.5132Z" fill="#7162B8"/>
<path d="M352.897 71.5882C354.754 71.9344 356.615 72.2295 358.499 72.3996C359.437 72.5092 360.38 72.5689 361.324 72.5785C362.094 72.5651 363.193 73.0398 362.468 72.4015C361.287 71.3612 359.195 71.6814 358.053 72.4267C357.95 72.5057 357.874 72.6119 357.833 72.7322C357.793 72.8526 357.79 72.9821 357.825 73.105C357.86 73.2279 357.931 73.339 358.03 73.4248C358.129 73.5106 358.252 73.5674 358.383 73.5884C359.37 73.8879 360.406 74.004 361.434 73.9305L361.424 72.6433C358.549 72.878 355.904 73.4072 354.746 76.1521C354.688 76.296 354.686 76.4555 354.74 76.602C354.795 76.7485 354.901 76.8725 355.041 76.9519C355.181 77.0313 355.346 77.0609 355.505 77.0355C355.665 77.01 355.809 76.9311 355.912 76.8129C357.183 75.5099 358.713 74.462 360.416 73.7292C361.196 73.3739 360.693 72.1994 359.884 72.5274C358.101 73.098 356.543 74.1636 355.406 75.5891C355.311 75.7137 355.266 75.8671 355.279 76.0217C355.292 76.1764 355.362 76.3223 355.477 76.4331C355.592 76.544 355.744 76.6127 355.906 76.6268C356.068 76.641 356.229 76.5997 356.36 76.5104L360.119 75.5491L359.79 74.3873C358.296 75.542 356.291 75.3255 354.955 76.6866C353.365 78.307 353.697 81.0507 351.028 81.9504L351.709 83.07L354.742 82.2333L354.588 81.1186L352.888 81.6877C352.729 81.7122 352.584 81.79 352.48 81.9073C352.377 82.0247 352.32 82.1739 352.322 82.3284C352.323 82.4829 352.381 82.6327 352.487 82.7511C352.592 82.8695 352.738 82.9488 352.898 82.9748L354.735 83.2491L354.405 82.0874L353.942 82.4455C353.849 82.515 353.778 82.6062 353.733 82.7104C353.689 82.8145 353.674 82.9282 353.69 83.0403C353.705 83.1524 353.751 83.2591 353.822 83.3502C353.893 83.4413 353.987 83.5137 354.095 83.5602L355.516 84.1128L355.683 82.8727L354.358 83.0044C354.199 83.0289 354.055 83.1067 353.951 83.2241C353.847 83.3414 353.791 83.4906 353.792 83.6451C353.793 83.7996 353.852 83.9494 353.957 84.0678C354.063 84.1862 354.208 84.2655 354.368 84.2916C355.589 84.4725 356.825 84.5311 358.056 84.4664C358.159 84.4522 358.256 84.416 358.341 84.3605C358.426 84.305 358.497 84.2318 358.548 84.1461C358.599 84.0605 358.629 83.9647 358.635 83.866C358.642 83.7672 358.625 83.6681 358.586 83.5759C358.316 82.812 358.206 82.7634 357.482 82.3562C356.806 81.9759 356.203 83.0218 356.805 83.4618C357.297 83.8536 357.842 84.1805 358.424 84.4335L358.421 83.2366L358.152 83.3559C358.017 83.4134 357.904 83.5106 357.831 83.6336C357.758 83.7566 357.728 83.899 357.745 84.0405L357.774 84.3747C357.797 84.515 357.866 84.6451 357.972 84.7458C358.078 84.8465 358.214 84.9125 358.361 84.9341C358.835 85.0404 359.315 85.1172 359.799 85.164C359.974 85.1817 360.149 85.1337 360.287 85.03C360.425 84.9263 360.514 84.7752 360.537 84.6084C360.559 84.4416 360.512 84.2722 360.407 84.1359C360.302 83.9997 360.145 83.9072 359.971 83.8779L358.687 83.7011C358.511 83.6834 358.336 83.7315 358.198 83.8352C358.061 83.9388 357.971 84.09 357.949 84.2568C357.927 84.4236 357.973 84.593 358.079 84.7292C358.184 84.8655 358.34 84.958 358.514 84.9872L360.161 85.2302L359.982 83.9862L359.193 84.1749C359.017 84.1573 358.842 84.2054 358.705 84.3091C358.567 84.4128 358.478 84.5639 358.455 84.7306C358.433 84.8974 358.479 85.0667 358.585 85.203C358.69 85.3392 358.846 85.4318 359.02 85.461C360.543 85.7383 362.043 86.1302 363.504 86.6332L363.853 85.3941L361.514 84.9966C361.396 84.9827 361.276 84.9983 361.167 85.0418C361.058 85.0854 360.963 85.1554 360.891 85.2451C360.819 85.3347 360.773 85.4409 360.758 85.5533C360.742 85.6657 360.757 85.7803 360.802 85.8861L361.378 87.382L361.908 86.4915L360.257 86.1521L359.732 87.3441L363.731 88.7493C364.413 88.989 365.102 88.0542 364.408 87.6436L363.303 86.989C362.687 86.6247 361.824 87.2669 362.35 87.8893L363.003 88.6626L363.628 87.6288C362.602 87.6102 361.579 87.4971 360.574 87.2911C359.836 87.1751 359.475 88.3166 360.225 88.5302L361.937 89.0176L362.286 87.7785L361.457 87.5708C360.769 87.3982 360.469 88.3487 360.956 88.7234L361.6 89.2186L361.918 88.0649C361.239 88.1463 360.733 87.8269 360.027 87.9236C359.88 87.9444 359.745 88.0093 359.641 88.1088C359.537 88.2084 359.47 88.3375 359.448 88.4773C359.228 89.9435 360.246 90.8256 361.586 91.3245L361.752 90.0843L361.336 89.9218L360.659 91.0274L361.743 91.5976C362.194 91.9164 362.958 91.5847 362.831 91.0043C362.562 89.8162 362.032 88.6932 361.277 87.7094C360.869 87.0849 359.758 87.6878 360.113 88.3466C360.612 89.2726 359.883 90.6047 361.873 91.7741C362.615 92.2105 363.451 91.1949 362.702 90.7549L361.36 89.0007C361.476 88.9121 361.559 88.7902 361.597 88.6526C361.635 88.5149 361.625 88.3688 361.57 88.2355L361.365 87.8537L360.201 88.4909C360.811 89.2958 361.248 90.2073 361.485 91.1717L362.573 90.5783C362.166 90.2436 361.694 89.9908 361.184 89.8352C361.032 89.7779 360.865 89.7738 360.712 89.8235C360.559 89.8733 360.43 89.9737 360.349 90.1067C360.267 90.2397 360.238 90.3967 360.267 90.5496C360.296 90.7024 360.381 90.8411 360.507 90.9409C360.699 91.1093 360.928 91.2354 361.177 91.31C361.426 91.3846 361.688 91.406 361.945 91.3725C362.632 91.3742 362.702 90.3522 362.111 90.1323C359.831 89.2832 361.603 89.4139 362.111 89.3531C362.241 89.3335 362.362 89.2784 362.46 89.1943C362.557 89.1102 362.627 89.0008 362.661 88.879C362.694 88.7573 362.69 88.6284 362.649 88.5079C362.608 88.3874 362.532 88.2802 362.429 88.1993L361.786 87.7041L361.285 88.8568L362.113 89.0645C362.85 89.249 363.199 88.0351 362.462 87.8254L360.75 87.3381L360.401 88.5771C361.407 88.7831 362.429 88.8962 363.455 88.9148C363.587 88.9288 363.72 88.906 363.838 88.8493C363.956 88.7926 364.054 88.7043 364.12 88.595C364.186 88.4858 364.217 88.3603 364.21 88.2336C364.203 88.1069 364.157 87.9845 364.079 87.881L363.426 87.1077L362.473 88.0081L363.579 88.6627L364.256 87.5571L360.257 86.1521C360.092 86.0906 359.909 86.0924 359.747 86.1571C359.585 86.2217 359.457 86.3443 359.389 86.4988C359.321 86.6533 359.318 86.8278 359.382 86.9854C359.446 87.1431 359.572 87.2718 359.732 87.3441C360.448 87.7461 361.285 87.8999 362.1 87.7796C362.203 87.7656 362.3 87.7296 362.386 87.6742C362.471 87.6187 362.542 87.5454 362.593 87.4597C362.644 87.374 362.674 87.2781 362.68 87.1793C362.687 87.0804 362.669 86.9812 362.63 86.889L362.054 85.3931L361.341 86.2826L363.68 86.6801C363.841 86.6972 364.003 86.6591 364.136 86.5727C364.269 86.4864 364.365 86.3573 364.407 86.2085C364.449 86.0596 364.434 85.9008 364.364 85.7602C364.295 85.6197 364.176 85.5066 364.029 85.441C362.453 84.8968 360.836 84.4735 359.193 84.1749L359.02 85.461C359.276 85.5286 359.543 85.539 359.802 85.4917C360.061 85.4443 360.305 85.3404 360.513 85.1879C360.647 85.1305 360.757 85.0335 360.827 84.9111C360.898 84.7887 360.925 84.6475 360.905 84.5082C360.884 84.369 360.818 84.239 360.715 84.1374C360.613 84.0358 360.479 83.968 360.334 83.944L358.687 83.7011L358.514 84.9872L359.799 85.164L359.971 83.8779C359.335 83.5708 358.996 83.7575 358.953 84.4382C359.072 84.3869 359.174 84.3035 359.245 84.1981C359.316 84.0927 359.353 83.9696 359.353 83.8436C359.353 83.7175 359.314 83.5937 359.243 83.487C359.171 83.3802 359.069 83.2949 358.949 83.2413L357.635 82.4425L356.957 83.5481L357.334 84.0686L357.864 83.1781C356.756 83.2814 355.635 83.2232 354.541 83.0054L354.551 84.2925L355.875 84.1608C356.02 84.139 356.153 84.0733 356.255 83.9733C356.356 83.8733 356.421 83.7443 356.44 83.6054C356.458 83.4664 356.43 83.3249 356.358 83.2016C356.286 83.0783 356.175 82.9799 356.041 82.9207L354.62 82.3681L354.773 83.4828L355.237 83.1246C355.34 83.0455 355.416 82.9393 355.457 82.819C355.497 82.6986 355.5 82.5692 355.465 82.4464C355.431 82.3235 355.359 82.2125 355.26 82.1267C355.161 82.0409 355.039 81.984 354.908 81.9629L353.07 81.6886L353.08 82.9758C353.946 83.0069 354.786 82.7125 355.42 82.1558C355.513 82.0868 355.585 81.9956 355.629 81.8914C355.674 81.7871 355.689 81.6732 355.674 81.5609C355.658 81.4486 355.613 81.3416 355.541 81.2505C355.47 81.1594 355.375 81.0873 355.266 81.0411C353.812 80.5024 351.987 80.6739 352.498 82.5811C352.525 82.7196 352.596 82.8474 352.701 82.9474C352.806 83.0473 352.94 83.1147 353.085 83.1404C354.262 83.4138 356.325 83.2227 356.089 81.6246C355.721 79.1316 351.823 81.3132 350.878 82.0326C350.752 82.1297 350.668 82.2667 350.639 82.4191C350.611 82.5714 350.64 82.7292 350.722 82.864C350.805 82.9989 350.934 83.1019 351.087 83.1547C351.241 83.2075 351.408 83.2066 351.559 83.1522C353.33 82.5552 353.774 81.5778 354.645 80.1233C355.819 78.1624 356.594 77.1947 358.811 76.3858C359.478 76.1862 360.093 75.8593 360.621 75.4246C361.036 75.1037 360.914 74.2863 360.292 74.2628C358.599 74.1356 356.919 74.5624 355.529 75.473L356.483 76.3943C357.482 75.1483 358.851 74.2204 360.416 73.7292L359.884 72.5274C357.988 73.3796 356.276 74.5591 354.834 76.0074L356 76.6683C357.006 74.2843 359.403 74.1121 361.617 73.9314C362.363 73.8705 362.383 72.66 361.607 72.6443C360.579 72.7178 359.543 72.6016 358.555 72.3022L358.885 73.4639C360.997 72.0856 363.98 75.3548 365.838 73.0465C365.913 72.9565 365.96 72.8487 365.975 72.7345C365.991 72.6203 365.973 72.5038 365.925 72.3974C365.376 71.3949 365.282 71.601 364.143 71.3177C362.788 70.9806 360.21 71.2504 358.671 71.1134C356.792 70.9324 354.922 70.6616 353.069 70.302C352.208 70.1415 352.038 71.4282 352.897 71.5882ZM331.449 77.944C332.119 78.6827 332.937 79.2856 333.854 79.7162C334.644 80.0888 335.165 78.8947 334.379 78.5242C333.673 78.1929 333.042 77.7297 332.524 77.1625C331.948 76.5308 330.869 77.3086 331.449 77.944ZM337.475 81.4786C338.909 81.7714 340.276 82.32 341.503 83.0954C342.234 83.5564 343.068 82.5397 342.333 82.0763C340.906 81.172 339.316 80.5327 337.647 80.1925C336.789 80.0161 336.621 81.303 337.475 81.4786ZM337.466 76.6419C338.383 77.406 339.527 77.8744 340.733 77.9796C341.602 78.0571 341.78 76.7714 340.906 76.6935C339.94 76.6166 339.023 76.2406 338.295 75.6227C337.629 75.0693 336.803 76.0917 337.466 76.6419ZM343.488 73.5255C343.594 74.0742 343.888 74.5756 344.325 74.9497C344.761 75.3239 345.314 75.5493 345.896 75.5899C346.763 75.6315 346.944 74.3458 346.068 74.3038C345.782 74.3036 345.504 74.2095 345.279 74.0374C345.054 73.8652 344.898 73.6255 344.835 73.3581C344.665 72.5405 343.317 72.7005 343.488 73.5255Z" fill="#7162B8"/>
<path d="M349.491 72.2739C350.09 73.2396 350.993 74.0021 352.069 74.451C352.234 74.5126 352.416 74.5108 352.578 74.4461C352.74 74.3815 352.869 74.2589 352.937 74.1044C353.005 73.9498 353.007 73.7752 352.943 73.6176C352.879 73.4599 352.754 73.3313 352.593 73.259C351.738 72.8928 351.027 72.2729 350.566 71.4924C350.455 71.3557 350.293 71.2657 350.115 71.2417C349.936 71.2178 349.756 71.2619 349.613 71.3645C349.474 71.4706 349.383 71.6242 349.361 71.7936C349.338 71.9629 349.385 72.1349 349.491 72.2739ZM381.884 88.5079C383.582 89.6893 385.343 91.3701 387.551 91.365C388.422 91.363 388.225 90.0748 387.359 90.0768C385.711 90.0806 383.985 88.3737 382.713 87.4887C382.002 86.9937 381.171 88.0121 381.884 88.5079ZM403.6 77.5417C404.933 77.8255 406.172 78.4323 407.196 79.3033C407.861 79.8581 408.686 78.8355 408.025 78.2841C406.809 77.2727 405.344 76.5741 403.772 76.2556C402.915 76.075 402.747 77.362 403.6 77.5417ZM409.437 77.8359C410.349 77.8895 411.253 78.0342 412.136 78.2678C412.969 78.4941 413.503 77.3043 412.661 77.0758C411.664 76.7985 410.642 76.6221 409.609 76.5498C408.741 76.4931 408.561 77.7788 409.437 77.8359ZM427.024 89.24C426.866 87.4627 428.288 87.1273 429.662 86.5872C430.893 86.1031 431.864 84.688 433.298 84.7921C434.167 84.8552 434.346 83.5696 433.471 83.506C432.594 83.4469 431.728 83.6803 431.019 84.1662C430.131 84.7919 429.158 85.3013 428.127 85.681C427.335 85.9414 426.661 86.4514 426.217 87.128C425.772 87.8047 425.582 88.6081 425.678 89.4074C425.752 90.2406 427.098 90.0729 427.024 89.24ZM433.231 90.8087L434.066 90.9252C434.205 90.9446 434.344 90.9631 434.483 90.9835C434.53 90.9894 434.577 90.9963 434.623 91.0042C434.79 91.0438 434.735 90.9561 434.458 90.7412C434.356 90.8318 434.385 91.3109 434.366 91.4525L434.241 92.3926C434.225 92.5601 434.277 92.728 434.387 92.8607C434.498 92.9935 434.657 93.0808 434.832 93.1043C435.007 93.1277 435.184 93.0855 435.325 92.9865C435.466 92.8875 435.561 92.7394 435.59 92.5736C435.65 92.1178 435.713 91.6622 435.772 91.2061C435.859 90.8667 435.812 90.5067 435.639 90.1954C435.203 89.5659 434.098 89.6196 433.403 89.5226C433.227 89.505 433.052 89.553 432.915 89.6567C432.777 89.7603 432.688 89.9115 432.665 90.0783C432.643 90.2451 432.689 90.4145 432.795 90.5507C432.9 90.687 433.057 90.7795 433.231 90.8087ZM344.557 77.7323C344.999 77.9046 345.4 78.1619 345.735 78.4878C345.848 78.6209 346.01 78.7082 346.187 78.7319C346.365 78.7557 346.544 78.7142 346.688 78.6158C346.83 78.5115 346.922 78.3575 346.945 78.1873C346.968 78.0171 346.92 77.8443 346.81 77.7063C346.324 77.2076 345.736 76.8104 345.082 76.5402C344.917 76.4786 344.735 76.4804 344.573 76.545C344.411 76.6097 344.282 76.7322 344.214 76.8868C344.146 77.0414 344.144 77.216 344.208 77.3737C344.272 77.5314 344.397 77.66 344.557 77.7323ZM343.559 80.19C344.04 80.77 344.658 81.2332 345.362 81.5406C346.065 81.848 346.834 81.9906 347.602 81.9566C348.475 81.9317 348.279 80.6436 347.41 80.6683C346.879 80.6809 346.351 80.5733 345.869 80.3543C345.386 80.1354 344.964 79.8113 344.635 79.4085C344.085 78.7515 343.008 79.5315 343.559 80.19ZM349.645 78.1607C349.77 78.4921 349.801 78.8479 349.736 79.1923C349.671 79.5366 349.512 79.8575 349.276 80.1226C348.726 80.7691 349.805 81.5724 350.353 80.9279C350.733 80.4803 350.984 79.944 351.079 79.3723C351.174 78.8005 351.112 78.213 350.897 77.6679C350.599 76.8781 349.348 77.3718 349.645 78.1607ZM352.761 86.4081L353.536 87.2095C354.129 87.8229 355.21 87.0466 354.612 86.428L353.837 85.6266C353.244 85.0132 352.163 85.7895 352.761 86.4081ZM351.935 89.2047C353.056 90.1097 354.437 90.666 355.891 90.7977C356.761 90.8782 356.938 89.5925 356.064 89.5116C354.85 89.4094 353.696 88.9455 352.764 88.1855C352.088 87.6429 351.262 88.6645 351.935 89.2047ZM349.663 116.974C350.291 117.991 351.177 118.843 352.238 119.449C353.299 120.055 354.501 120.396 355.73 120.44C356.596 120.471 356.778 119.186 355.903 119.154C354.852 119.128 353.823 118.842 352.918 118.323C352.012 117.803 351.261 117.069 350.739 116.192C350.293 115.469 349.222 116.257 349.663 116.974ZM413.618 147.614C413.936 146.655 414.253 145.696 414.574 144.738C414.829 143.978 415.031 143.001 415.91 142.715C416.736 142.447 416.202 141.246 415.379 141.514C414.975 141.665 414.612 141.899 414.316 142.2C414.019 142.501 413.796 142.861 413.662 143.255C413.131 144.489 412.786 145.825 412.363 147.097C412.101 147.886 413.353 148.407 413.618 147.614ZM434.211 131.994L434.174 132.269C434.158 132.436 434.21 132.604 434.32 132.737C434.431 132.869 434.59 132.957 434.765 132.98C434.94 133.004 435.117 132.961 435.258 132.862C435.399 132.763 435.494 132.615 435.523 132.449L435.56 132.175C435.576 132.007 435.523 131.839 435.413 131.706C435.303 131.574 435.144 131.486 434.969 131.463C434.794 131.439 434.617 131.482 434.476 131.581C434.334 131.68 434.239 131.828 434.211 131.994ZM444.604 131.697C444.593 133.881 444.671 136.261 446.364 137.94C446.969 138.54 448.051 137.765 447.44 137.159C446.007 135.737 445.944 133.732 445.953 131.878C445.957 131.053 444.609 130.862 444.604 131.697ZM389.374 97.8166C389.2 98.3785 389.158 98.9716 389.252 99.5538C389.283 99.7199 389.38 99.8689 389.523 99.9693C389.666 100.07 389.843 100.114 390.018 100.092C390.192 100.07 390.35 99.9846 390.459 99.853C390.567 99.7213 390.617 99.554 390.598 99.3863C390.528 99.0363 390.538 98.6769 390.628 98.333C390.692 98.1743 390.689 97.9978 390.621 97.8392C390.554 97.6807 390.426 97.5518 390.263 97.4788C390.097 97.4114 389.91 97.409 389.744 97.4723C389.577 97.5355 389.444 97.6593 389.374 97.8166ZM390.866 96.7136C393.854 98.6602 394.203 102.818 396.282 105.396C397.095 106.405 398.236 107.097 399.056 108.152C399.693 109.068 400.534 109.838 401.518 110.408C402.277 110.832 402.793 109.635 402.043 109.216C400.617 108.419 400.05 106.984 398.917 105.928C397.742 104.855 396.794 103.577 396.125 102.164C395.041 100.062 393.777 97.0503 391.696 95.6944C390.971 95.222 390.138 96.2393 390.866 96.7136ZM462.199 115.288C461.681 117.02 461.739 118.87 462.365 120.584C462.65 121.377 463.901 120.882 463.616 120.091C463.109 118.705 463.052 117.21 463.453 115.804C463.681 115.011 462.428 114.486 462.199 115.288ZM464.442 124.34C465.721 123.305 467.267 122.929 468.503 121.828C469.597 120.854 470.669 119.805 471.723 118.783C473.948 116.626 474.507 114.271 474.234 111.289C474.158 110.456 472.812 110.624 472.888 111.456C473.241 115.327 471.568 117.04 468.89 119.518C467.987 120.515 466.929 121.374 465.753 122.065C464.99 122.397 464.271 122.812 463.61 123.303C462.948 123.839 463.777 124.879 464.442 124.34ZM457.249 130.079L457.299 131.63C457.326 131.801 457.422 131.955 457.566 132.06C457.71 132.165 457.89 132.212 458.069 132.191C458.245 132.165 458.404 132.074 458.511 131.939C458.619 131.803 458.667 131.633 458.646 131.463L458.595 129.911C458.569 129.741 458.473 129.587 458.329 129.482C458.185 129.377 458.005 129.33 457.826 129.351C457.65 129.377 457.491 129.467 457.384 129.603C457.276 129.738 457.228 129.909 457.249 130.079ZM450.676 138.753C451.022 138.844 451.386 138.849 451.732 138.766C452.078 138.684 452.394 138.517 452.651 138.281C453.337 137.763 454.173 137.457 455.05 137.403C455.922 137.349 455.729 136.061 454.858 136.114C454.184 136.15 453.525 136.308 452.916 136.58C452.657 136.699 452.409 136.837 452.172 136.991C451.985 137.113 451.462 137.639 451.201 137.561C450.37 137.314 449.838 138.504 450.676 138.753ZM448.168 140.778C449.309 141.508 449.858 142.969 450.68 143.988C451.536 145.037 452.52 145.985 453.61 146.812C453.753 146.912 453.931 146.955 454.106 146.933C454.28 146.91 454.438 146.824 454.545 146.691C454.653 146.559 454.702 146.392 454.682 146.224C454.663 146.056 454.576 145.902 454.44 145.793C453.221 144.868 452.149 143.778 451.26 142.558C450.55 141.574 450.069 140.444 448.998 139.759C448.27 139.293 447.436 140.31 448.168 140.778ZM456.701 143.795C456.978 143.773 457.343 144.222 457.557 144.367C457.856 144.595 458.224 144.722 458.604 144.731C458.799 144.726 458.989 144.681 459.164 144.601C459.339 144.521 459.494 144.407 459.619 144.265C459.87 143.995 459.98 143.601 460.277 143.372C460.952 142.85 460.123 141.811 459.445 142.335C459.174 142.564 458.948 142.837 458.777 143.142C458.615 143.391 458.604 143.488 458.327 143.305C457.721 142.903 457.308 142.444 456.509 142.507C455.638 142.574 455.83 143.863 456.701 143.795ZM460.845 146.14L462.21 146.89C462.376 146.957 462.563 146.959 462.729 146.896C462.896 146.833 463.029 146.709 463.099 146.552C463.165 146.393 463.163 146.216 463.095 146.057C463.027 145.898 462.898 145.769 462.735 145.698L461.37 144.948C461.204 144.881 461.017 144.879 460.851 144.942C460.684 145.005 460.551 145.129 460.48 145.286C460.415 145.445 460.416 145.622 460.484 145.781C460.552 145.94 460.682 146.069 460.845 146.14ZM470.668 147.467C473.077 147.868 474.259 150.407 476.252 151.552C476.998 151.98 477.835 150.965 477.082 150.533C474.803 149.224 473.647 146.648 470.84 146.181C469.976 146.038 469.804 147.324 470.668 147.467Z" fill="#7162B8"/>
<path d="M471.564 149.426C472.202 149.828 472.738 150.363 473.131 150.989C473.206 151.144 473.34 151.267 473.506 151.333C473.671 151.399 473.856 151.403 474.022 151.343C474.188 151.277 474.318 151.151 474.386 150.992C474.453 150.834 474.452 150.655 474.382 150.496C473.894 149.665 473.213 148.95 472.394 148.407C471.669 147.934 470.836 148.952 471.564 149.426ZM458.103 135.76C458.24 136.048 458.469 136.288 458.755 136.446C459.042 136.604 459.373 136.672 459.701 136.641C460.044 136.592 460.359 136.433 460.593 136.19C460.828 135.947 460.968 135.635 460.992 135.303C461.052 134.474 459.704 134.288 459.643 135.123C459.632 135.266 459.475 135.492 459.354 135.267C458.955 134.525 457.7 135.01 458.103 135.76ZM476.717 172.979C478.966 170.883 482.526 168.591 482.164 165.194C482.075 164.362 480.729 164.528 480.817 165.361C481.108 168.082 477.696 170.254 475.886 171.942C475.27 172.515 476.095 173.559 476.717 172.979ZM472.065 169.26C472.014 169.834 472.161 170.41 472.483 170.901C472.594 171.038 472.756 171.128 472.935 171.152C473.113 171.176 473.294 171.132 473.437 171.029C473.576 170.923 473.666 170.769 473.689 170.6C473.712 170.431 473.665 170.259 473.559 170.12C473.439 169.912 473.388 169.675 473.414 169.441C473.483 168.611 472.135 168.426 472.065 169.26ZM351.546 126.467C350.313 127.238 350.913 128.183 348.919 130.76C347.294 132.86 346.231 133.092 346.209 134.253C346.185 135.558 347.516 135.944 348.997 138.09C350.006 139.609 350.678 141.308 350.969 143.078C351.228 145.665 350.531 148.245 349 150.371C347.303 152.893 346.551 155.898 346.865 158.902C347.241 161.746 348.72 164.404 349.445 164.286C350.256 164.154 349.134 160.712 351.331 157.611C352.712 156.338 354.193 155.169 355.763 154.112C359.818 151.096 360.442 150.727 361.334 149.507C362.442 147.99 362.283 147.458 363.37 146.631C365.131 145.292 366.52 145.948 367.595 144.679C368.574 143.523 367.709 142.642 368.742 141.054C369.828 139.385 371.37 139.462 371.386 138.575C371.407 137.393 368.691 136.142 366.486 135.713C364.561 135.339 364.131 135.805 363.243 135.278C361.471 134.228 362.424 131.925 361.029 129.628C359.138 126.516 353.897 124.997 351.546 126.467ZM392.533 110.847C389.111 111.124 388.609 111.585 387.446 112.39C386.41 113.107 386.822 113.674 385.451 114.956C383.961 116.35 383.1 116.032 382.524 117.083C382.343 117.414 382.295 117.688 382.675 120.881C382.73 122.082 382.94 123.274 383.3 124.429C383.53 125.368 384.047 126.223 384.786 126.885C385.385 127.328 386.004 127.445 389.767 127.501C392.478 127.541 392.793 127.49 393.417 127.781C394.691 128.509 395.636 129.667 396.064 131.022C396.57 132.32 396.743 133.711 396.565 135.078C396.414 136.781 395.955 137.123 395.716 138.533C395.438 140.182 395.851 140.989 396.572 144.053C397.868 149.556 397.408 150.664 398.571 151.301C400.098 152.137 402.501 151.112 403.794 150.112C405.709 148.632 405.066 147.302 407.74 144.082C408.798 142.808 409.22 142.628 409.667 141.611C410.449 139.835 409.798 138.93 410.418 137.251C410.889 135.974 411.718 135.271 413.283 133.944C416.248 131.43 418.451 131.054 418.333 130.213C418.191 129.212 415.071 129.807 413.229 127.779C411.891 126.306 412.802 125.182 411.588 121.961C410.881 120.083 409.892 117.459 407.737 116.756C405.892 116.155 404.939 117.531 401.997 116.901C400.911 116.768 399.893 116.311 399.087 115.596C397.64 114.134 398.481 112.505 397.269 111.644C396.47 111.075 395.579 110.601 392.533 110.847Z" fill="#7162B8"/>
<path d="M392.35 104.546C392.595 103.007 394.239 102.055 395.1 101.556C395.993 101.04 396.987 100.697 398.023 100.549C399.238 100.425 400.469 100.495 401.664 100.757C404.338 101.165 404.286 101.543 405.106 101.359C406.686 101.004 406.531 99.6779 408.772 98.58C410.005 97.9763 410.84 97.9912 410.904 97.5186C410.979 96.9672 409.942 96.2104 408.908 95.9913C407.714 95.7383 406.958 96.2938 406.708 95.9761C406.485 95.6922 406.962 95.0856 408.105 93.2245C409.154 91.5171 409.234 91.2439 409.121 91.1216C408.829 90.8069 407.355 91.604 406.648 92.0495C405.64 92.6359 404.782 93.4286 404.135 94.3714C403.077 95.968 403.515 96.7863 402.72 97.2604C401.446 98.0208 398.644 96.9164 398.399 95.5611C398.273 94.8658 399.296 93.9604 401.348 92.1781C402.491 91.1022 403.75 90.1454 405.106 89.3235C406.97 88.2402 407.903 87.6986 409.293 87.6461C410.648 87.5951 411.655 88.0411 413.67 88.933C414.831 89.4469 416.015 89.9818 415.955 90.4991C415.874 91.2083 413.534 91.1994 413.39 92.1142C413.326 92.5208 413.772 92.6286 414.089 93.4676C414.507 94.5698 414.051 95.2108 414.408 95.4696C414.835 95.7798 415.767 95.06 417.368 94.1873C418.581 93.4532 419.892 92.8762 421.267 92.4713C422.808 92.1037 424.414 92.0337 425.991 92.2653C427.737 92.5698 428.724 93.2018 429.307 92.7101C429.915 92.1973 429.357 91.0764 429.854 90.8241C430.446 90.5229 431.808 91.8332 432.427 92.4289C434.008 93.9503 434.025 94.6427 434.889 94.8584C436.168 95.1778 437.879 94.098 437.905 93.1638C437.928 92.308 436.528 91.912 436.685 91.3207C436.837 90.7481 438.356 90.3443 439.39 90.844C440.198 91.2341 440.096 91.8787 440.954 92.3133C441.952 92.8183 443.247 92.5343 443.316 92.2104C443.382 91.9028 442.301 91.7527 441.608 90.7216C441.129 90.0088 440.961 89.061 441.271 88.8571C441.631 88.6201 442.272 89.6281 443.504 89.7164C443.975 89.7502 444.265 89.6302 445.977 88.7887C448.538 87.5293 448.634 87.4313 449.1 87.3883C450.534 87.2557 450.862 88.0714 451.983 87.7751C453.341 87.4158 453.575 86.027 454.404 86.1406C455.085 86.2341 455.033 87.1899 456.093 87.7667C457.113 88.3217 458.2 88.002 458.237 88.1943C458.295 88.4976 455.465 88.6574 454.896 90.1252C454.773 90.4126 454.741 90.7294 454.804 91.0363C454.867 91.3432 455.023 91.6269 455.252 91.8523C456.116 92.4642 457.39 90.8884 459.292 91.2746C460.342 91.4879 460.231 92.0249 461.757 92.5851C463.218 93.1211 463.581 92.7255 464.911 93.148C466.799 93.7484 466.71 94.751 468.293 95.2812C469.871 95.8094 470.397 94.9607 472.892 94.9184C474.757 94.9531 476.6 95.3432 478.314 96.0657C481.181 97.0643 480.973 97.6197 483.571 98.4504C485.384 99.0135 487.26 99.3592 489.157 99.4796C491.853 99.6089 492.678 99.1156 493.375 99.7655C494.485 100.801 493.933 103.489 492.511 105.108C491.156 106.65 488.696 107.577 486.989 106.886C485.964 106.471 485.941 105.767 484.183 104.83C483.156 104.283 482.428 103.895 481.644 104.07C480.246 104.381 480.436 106.085 479.112 106.529C477.734 106.991 476.941 105.34 474.303 105.184C473.217 105.14 472.139 105.331 471.146 105.74C470.635 105.927 468.141 106.838 468.219 107.867C468.281 108.679 469.878 108.636 470.575 110.002C470.76 110.45 470.848 110.928 470.835 111.408C470.821 111.887 470.705 112.357 470.494 112.79C470.155 113.421 469.673 113.97 469.082 114.399C468.492 114.828 467.808 115.126 467.079 115.271C465.963 115.499 465.66 115.15 464.987 115.55C464.009 116.132 464.269 117.098 463.232 117.694C462.638 117.997 461.953 118.102 461.284 117.992C459.941 117.823 459.683 117 458.763 117.094C458.365 117.154 457.996 117.323 457.701 117.582C457.405 117.841 457.196 118.177 457.1 118.55C456.936 119.369 457.688 119.701 458.228 121.081C458.423 121.578 459.081 123.261 458.344 124.595C457.808 125.565 456.769 125.927 455.616 126.328C454.345 126.813 452.957 126.964 451.595 126.769C450.455 126.583 449.921 126.206 449.577 126.498C449.104 126.898 449.539 128.089 449.84 128.912C450.492 130.696 451.19 131.006 451.057 131.874C450.984 132.313 450.766 132.716 450.434 133.024C450.102 133.332 449.674 133.529 449.213 133.586C448.526 133.583 448.002 132.924 446.983 131.608C446.478 130.955 446.169 130.476 445.027 128.686C443.927 126.963 443.664 126.544 443.034 126.04C442.473 125.505 441.745 125.162 440.964 125.062C440.597 125.039 440.149 125.088 438.491 125.99C436.707 126.962 435.816 127.447 435.42 128.097C434.934 128.895 435.261 129.14 434.637 130.651C434.344 131.36 433.825 132.617 433.351 132.578C432.623 132.518 432.328 129.495 432.315 129.36C432.073 126.769 432.788 125.796 432.022 124.983C431.269 124.182 430.206 124.731 429.394 123.79C428.686 122.971 429.278 122.309 428.661 121.593C427.746 120.53 426.118 121.608 424.103 120.561C422.963 119.969 423.172 119.462 421.585 118.544C421.001 118.206 419.346 117.249 418.757 117.745C418.262 118.162 418.649 119.499 419.29 120.336C420.093 121.244 421.214 121.843 422.44 122.018C423.578 122.212 424.113 121.956 424.314 122.269C424.675 122.828 423.36 124.256 422.323 125.081C421.276 125.913 419.739 127.135 417.684 126.838C416.513 126.636 415.449 126.047 414.679 125.175C413.671 123.96 413.004 122.521 412.744 120.997C412.228 117.658 414.136 115.24 412.82 113.87C411.903 112.916 410.389 113.477 409.922 112.501C409.771 112.025 409.795 111.515 409.99 111.057C410.185 110.6 410.539 110.222 410.993 109.986C412.567 109.283 414.49 111.619 415.406 110.998C416.121 110.513 415.804 108.518 414.733 107.269C413.598 105.945 411.523 105.352 410.212 105.963C409.561 106.265 409.676 106.595 408.512 107.694C407.391 108.751 406.662 109.439 405.784 109.427C404.72 109.413 404.635 108.387 402.834 107.352C401.672 106.695 400.358 106.326 399.015 106.28C397.888 106.271 396.771 106.453 395.715 106.817C394.795 107.064 393.91 107.415 393.08 107.863C391.335 108.819 391.089 109.574 390.371 109.459C389.358 109.296 388.486 107.578 388.954 106.889C389.5 106.086 391.633 107.029 392.292 106.078C392.589 105.648 392.222 105.357 392.35 104.546ZM458.1 163.608C459.186 163.924 459.649 162.601 462.413 162.087C463.809 161.75 465.287 161.85 466.631 162.373C467.507 162.774 468.282 163.356 468.897 164.077C470.113 165.423 469.813 166.088 470.728 166.841C471.315 167.278 472.012 167.56 472.746 167.659C473.48 167.757 474.226 167.669 474.908 167.402C477.319 166.44 477.524 163.438 477.554 162.999C477.648 161.339 477.144 159.691 476.126 158.329C475.384 157.445 474.774 156.468 474.313 155.427C474.19 155.11 474.115 154.853 474.115 154.853C473.765 153.661 473.911 152.86 473.78 152.836C473.547 152.793 473.385 155.406 472.221 155.706C471.487 155.895 470.591 155.102 470.17 154.591C468.97 153.137 469.711 151.663 468.864 151.197C468.323 150.9 467.853 151.407 465.164 152.52C462.818 153.491 462.54 153.369 461.734 154.019C460.65 154.895 460.655 155.52 459.728 155.849C458.461 156.299 457.7 155.399 456.952 155.757C455.232 156.578 455.859 162.957 458.1 163.608ZM366.338 74.1863C368.29 72.6562 370.101 74.1642 372.706 72.6615C374.218 71.7896 374.239 70.9183 375.615 70.6726C376.243 70.5844 376.886 70.6314 377.497 70.8102C378.108 70.9889 378.671 71.295 379.145 71.706C380.161 72.5773 379.969 73.2914 380.883 75.158C382.135 77.7131 383.017 77.4397 383.827 79.4714C383.972 79.8358 385.24 83.1309 383.703 84.7728C383.001 85.5224 382.435 85.1571 380.435 86.1538C379.21 86.6213 378.143 87.3966 377.346 88.3984C375.995 90.4906 377.759 92.6041 376.664 93.4849C375.591 94.3474 372.874 93.1461 371.314 91.7877C370.729 91.2778 368.833 89.6263 369.073 87.7084C369.344 85.5471 372.059 85.1926 371.988 83.4812C371.937 82.251 370.486 81.2725 368.502 79.9346C366.286 78.4411 365.187 78.3788 364.886 77.3503C364.567 76.2593 365.394 74.9263 366.338 74.1863ZM310.521 81.113C310.289 82.0751 311.437 82.7246 311.072 83.5661C310.63 84.5878 308.7 84.1812 308.382 85.0245C308.061 85.8747 309.526 87.602 311.347 88.0813C312.942 88.5012 313.578 87.6396 316.001 87.3061C318.197 86.9748 320.456 87.2778 322.488 88.1764C324.503 89.1394 325.617 90.5775 326.929 92.2708C327.939 93.4364 328.706 94.7749 329.188 96.2126C329.593 97.741 329.729 99.3201 329.589 100.885C329.503 103.668 329.013 103.749 329.361 104.773C329.964 106.551 331.461 106.363 333.513 108.828C334.429 110.006 335.193 111.283 335.791 112.633C337.143 115.313 336.867 115.71 337.744 116.673C338.917 117.961 339.865 117.75 342.568 119C346.358 120.752 347.907 122.746 348.273 122.424C348.649 122.092 347.484 119.546 345.203 117.954C343.338 116.652 342.01 116.884 341.532 115.782C340.985 114.52 342.078 112.718 343.383 111.832C344.452 111.194 345.721 110.924 346.982 111.068C348.243 111.212 349.42 111.76 350.321 112.623C351.575 113.947 351.477 115.783 351.808 115.761C352.204 115.734 351.771 113.145 352.905 110.87C353.844 109.175 355.369 107.848 357.225 107.111C359.729 106.975 360.527 106.34 360.78 105.769C361.255 104.696 359.916 103.615 360.502 102.373C360.733 101.989 361.056 101.664 361.445 101.425C361.834 101.185 362.279 101.037 362.741 100.994C364.973 100.704 366.638 102.917 367.081 102.556C367.484 102.228 365.856 100.62 364.699 97.3379C364.242 96.0405 363.979 94.8219 363.427 94.7881C362.814 94.7503 362.568 96.2198 361.764 96.2444C361.435 96.2545 361.157 96.0174 359.949 94.4614C358.665 92.8079 358.481 92.4357 358.026 92.3842C357.267 92.2983 356.38 93.1753 356.038 94.0767C355.448 95.6295 356.72 96.6031 356.135 97.7284C355.76 98.2627 355.215 98.6673 354.579 98.8838C353.944 99.1003 353.25 99.1177 352.598 98.9333C350.87 98.3887 351.282 96.412 349.041 94.8174C347.407 93.6544 346.028 93.8809 345.891 93.1353C345.751 92.3722 347.155 91.9121 349.254 89.9478C350.847 88.4569 351.899 87.4727 351.807 86.2318C351.697 84.7428 349.953 83.0524 348.661 83.4306C347.685 83.7159 348.433 85.5841 347.227 86.4571C346.397 87.058 345.501 86.5947 340.307 85.5288C339.341 85.3904 338.388 85.1689 337.461 84.8671C335.251 84.0215 335.253 83.1563 333.394 82.3622C331.595 81.6576 329.621 81.4904 327.735 81.8829C325.89 82.2747 325.794 82.915 324.523 82.8515C322.989 82.775 322.624 81.8169 320.275 80.6023C318.593 79.6467 316.73 79.0229 314.798 78.7684C312.69 78.6787 310.842 79.7798 310.521 81.113Z" fill="#7162B8"/>
<path d="M210.393 109.95C224.313 111.817 237.042 102.57 238.823 89.295C240.604 76.0202 230.762 63.7449 216.842 61.8774C202.921 60.0099 190.192 69.2573 188.411 82.5321C186.63 95.807 196.472 108.082 210.393 109.95Z" fill="black"/>
<path d="M210.335 110.378C205.261 109.698 200.493 107.597 196.635 104.343C192.777 101.089 190.001 96.827 188.659 92.0962C187.317 87.3654 187.469 82.3783 189.095 77.7654C190.722 73.1526 193.75 69.1212 197.797 66.1812C201.844 63.2411 206.728 61.5243 211.831 61.2479C216.934 60.9716 222.028 62.148 226.467 64.6285C230.907 67.109 234.493 70.7822 236.772 75.1835C239.051 79.5848 239.922 84.5166 239.273 89.3552C238.395 95.8404 234.855 101.696 229.43 105.637C224.005 109.578 217.138 111.284 210.335 110.378ZM216.784 62.3066C211.888 61.6499 206.915 62.3924 202.496 64.4403C198.077 66.4882 194.41 69.7496 191.957 73.8119C189.505 77.8742 188.378 82.5551 188.719 87.2626C189.06 91.9701 190.854 96.4928 193.873 100.259C196.892 104.025 201.002 106.865 205.682 108.42C210.362 109.975 215.402 110.175 220.166 108.995C224.929 107.815 229.201 105.308 232.442 101.79C235.683 98.2731 237.747 93.9037 238.373 89.2346C239.205 82.9747 237.4 76.624 233.352 71.5758C229.305 66.5276 223.346 63.1941 216.784 62.3066Z" fill="#624AD7"/>
<path d="M213.329 88.0568C213.27 88.0489 213.213 88.03 213.162 88.0012C213.11 87.9723 213.065 87.9341 213.028 87.8887C212.992 87.8433 212.965 87.7916 212.95 87.7365C212.934 87.6814 212.93 87.6241 212.937 87.5678L215.017 72.0686C215.032 71.9549 215.094 71.8522 215.189 71.7831C215.284 71.714 215.405 71.6842 215.524 71.7002C215.643 71.7162 215.751 71.7767 215.825 71.8684C215.898 71.9601 215.931 72.0755 215.916 72.1892L213.837 87.6884C213.829 87.7448 213.81 87.799 213.78 87.848C213.751 87.897 213.711 87.9398 213.664 87.974C213.617 88.0082 213.563 88.0331 213.506 88.0474C213.448 88.0616 213.389 88.0648 213.329 88.0568Z" fill="#624AD7"/>
<path d="M198.915 89.3876C198.814 89.3741 198.72 89.3284 198.648 89.2578C198.577 89.1873 198.532 89.096 198.521 88.9989C198.511 88.9018 198.534 88.8045 198.589 88.7227C198.644 88.6409 198.726 88.5794 198.822 88.5483L216.769 82.7459C216.825 82.7274 216.885 82.7197 216.944 82.7234C217.004 82.727 217.062 82.7419 217.116 82.7671C217.17 82.7923 217.219 82.8274 217.258 82.8703C217.298 82.9132 217.329 82.9632 217.349 83.0172C217.369 83.0713 217.377 83.1284 217.374 83.1854C217.371 83.2423 217.356 83.2979 217.33 83.349C217.304 83.4001 217.267 83.4456 217.223 83.4831C217.178 83.5205 217.126 83.549 217.07 83.567L199.123 89.3695C199.056 89.391 198.985 89.3972 198.915 89.3876Z" fill="#624AD7"/>
<path d="M261.635 250.551L217.861 244.679L220.987 221.374L264.682 227.236L261.635 250.551Z" fill="#695093"/>
<path d="M274.475 245.252L206.448 236.126C205.801 236.039 205.21 236.469 205.128 237.085L204.502 241.75C204.419 242.367 204.876 242.937 205.523 243.024L273.55 252.15C274.196 252.236 274.788 251.807 274.87 251.19L275.496 246.525C275.579 245.909 275.122 245.339 274.475 245.252Z" fill="#CCB8FF"/>
<path d="M268.705 251.5L210.158 243.645C209.511 243.559 208.92 243.988 208.838 244.605L208.553 246.725C208.47 247.342 208.927 247.912 209.574 247.998L268.121 255.853C268.767 255.939 269.359 255.51 269.441 254.893L269.726 252.773C269.808 252.157 269.351 251.586 268.705 251.5Z" fill="#695093"/>
<path d="M242.112 252.364L235.37 251.459L229.548 294.855L236.29 295.76L242.112 252.364Z" fill="#CCB8FF"/>
<path d="M235.829 299.207L277.109 319.529L277.81 314.306L236.291 295.76L229.549 294.855L184.575 301.798L183.874 307.021L229.086 298.303L235.829 299.207Z" fill="#695093"/>
<path d="M183.727 300.867L180.227 300.397C179.419 300.289 178.68 300.825 178.577 301.596L177.495 309.654C177.392 310.425 177.963 311.137 178.771 311.246L182.271 311.715C183.079 311.824 183.818 311.287 183.921 310.516L185.003 302.458C185.106 301.687 184.535 300.975 183.727 300.867Z" fill="#CCB8FF"/>
<path d="M277.419 324.479L280.919 324.948C281.727 325.057 282.466 324.52 282.569 323.749L283.65 315.691C283.753 314.92 283.182 314.208 282.374 314.1L278.874 313.63C278.066 313.522 277.327 314.058 277.224 314.829L276.143 322.887C276.04 323.658 276.611 324.37 277.419 324.479Z" fill="#CCB8FF"/>
<path d="M236.916 294.208L229.355 293.194C228.709 293.107 228.118 293.536 228.035 294.153L227.418 298.751C227.335 299.368 227.792 299.938 228.439 300.024L236 301.039C236.646 301.125 237.237 300.696 237.32 300.079L237.937 295.481C238.02 294.865 237.562 294.295 236.916 294.208Z" fill="#463D56"/>
<path d="M276.721 168.652L224.47 161.643C221.561 161.252 218.901 163.185 218.529 165.959L212.276 212.569C211.904 215.343 213.961 217.908 216.87 218.298L269.12 225.308C272.029 225.698 274.689 223.766 275.061 220.992L281.314 174.381C281.686 171.607 279.629 169.042 276.721 168.652Z" fill="#CCB8FF"/>
<path d="M226.328 294.098L227.335 310.816C227.335 310.816 217.844 313.324 213.036 302.547L213.552 292.761L226.328 294.098ZM187.82 278.814L179.647 293.469C179.647 293.469 170.217 290.653 171.948 279.043L177.673 271.039L187.82 278.814Z" fill="#907AF9"/>
<path d="M242.011 211.188L272.521 217.36C272.521 217.36 278.01 229.544 277.326 239.912C277.22 241.5 276.774 243.047 276.015 244.456C275.256 245.865 274.201 247.107 272.915 248.106C271.628 249.104 270.138 249.837 268.536 250.26C266.934 250.682 265.254 250.786 263.6 250.563L237.204 247.022L229.995 300.759L208.932 297.934L214.006 251.329L187.697 286.41L169.515 272.649L214.444 210.832C215.5 209.317 217.075 208.204 218.904 207.68C220.733 207.157 222.704 207.256 224.481 207.96L241.524 214.819L242.011 211.188Z" fill="#0D0716"/>
<path d="M245.478 163.482L241.06 166.064L236.622 177.379L263.607 180.667L274.077 168.688C274.077 168.688 260.759 165.907 258.692 158.416L245.478 163.482Z" fill="#907AF9"/>
<path d="M265.992 165.652L282.446 171.798C284.546 172.586 286.369 173.937 287.692 175.688C293.523 183.372 309.821 205.125 311.238 210.041C312.966 216.039 296.606 218.634 293.182 211.788L278.915 192.045L274.007 219.86L234.197 214.52L233.528 204.673C233.528 204.673 231.134 210.383 228.814 211.491C228.814 211.491 215.41 214.306 219.095 201.672L230.73 170.235L244.957 163.787C244.957 163.787 239.87 181.355 258.189 177.289C269.462 174.788 265.992 165.652 265.992 165.652Z" fill="#463D56"/>
<path d="M243.162 159.334C245.387 159.632 247.428 158.106 247.72 155.924C248.013 153.743 246.446 151.732 244.221 151.434C241.996 151.135 239.955 152.662 239.662 154.843C239.37 157.025 240.936 159.035 243.162 159.334Z" fill="#0D0716"/>
<path d="M240.501 163.768C242.726 164.066 244.768 162.54 245.06 160.358C245.353 158.177 243.786 156.166 241.561 155.868C239.336 155.569 237.295 157.096 237.002 159.277C236.71 161.459 238.276 163.469 240.501 163.768Z" fill="#0D0716"/>
<path d="M238.876 169.49C241.101 169.789 243.143 168.262 243.435 166.081C243.728 163.899 242.161 161.889 239.936 161.59C237.711 161.292 235.67 162.818 235.377 165C235.085 167.181 236.651 169.192 238.876 169.49Z" fill="#0D0716"/>
<path d="M238.181 175.132C240.406 175.431 242.447 173.904 242.74 171.723C243.033 169.541 241.466 167.531 239.241 167.232C237.016 166.934 234.975 168.46 234.682 170.642C234.389 172.823 235.956 174.834 238.181 175.132Z" fill="#0D0716"/>
<path d="M226.773 301.963C226.773 301.963 233.072 312.205 228.164 317.086C227.911 317.336 227.599 317.525 227.254 317.637C226.908 317.749 226.538 317.781 226.175 317.73L188.836 312.518C188.663 312.491 188.497 312.429 188.349 312.337C188.202 312.245 188.076 312.124 187.98 311.983C187.884 311.842 187.819 311.684 187.791 311.518C187.763 311.353 187.771 311.184 187.815 311.022C188.284 309.153 189.648 305.842 193.515 304.756C199.013 303.212 202.158 307.745 211.805 301.599C211.805 301.599 222.614 306.271 226.773 301.963ZM183.95 285.693C183.95 285.693 183.776 297.627 176.965 299.2C176.611 299.279 176.241 299.276 175.886 299.191C175.531 299.106 175.202 298.941 174.925 298.71L145.974 274.886C145.841 274.773 145.734 274.636 145.658 274.483C145.583 274.33 145.541 274.164 145.535 273.996C145.53 273.827 145.561 273.66 145.626 273.504C145.691 273.349 145.789 273.208 145.914 273.091C147.323 271.755 150.272 269.665 154.148 270.758C159.659 272.312 159.887 277.78 171.413 277.602C171.413 277.602 178.085 287.173 183.95 285.693Z" fill="#695093"/>
<path d="M260.619 153.795C259.216 153.637 258.08 153.567 257.013 153.339C249.925 151.828 242.171 142.57 244.059 135.041C245.704 128.479 254.077 125.607 256.114 124.908C258.655 123.915 261.433 123.581 264.17 123.941C266.906 124.301 269.504 125.341 271.703 126.956C275.428 129.607 277.305 132.924 277.742 134.594C286.841 169.406 255.73 156.566 260.619 153.795Z" fill="#0D0716"/>
<path d="M247.025 158.408C247.025 158.408 251.821 162.921 258.555 158.951C258.555 158.951 255.412 167.053 245.478 163.482C246.118 162.805 246.588 161.997 246.856 161.119C247.123 160.241 247.181 159.315 247.025 158.408Z" fill="#745EDD"/>
<path d="M244.1 139.154C247.381 129.821 255.319 124.065 261.83 126.298C266.856 128.021 269.56 134 269.025 140.93C269.278 140.811 269.556 140.747 269.839 140.745C270.122 140.743 270.403 140.802 270.66 140.917C272.042 141.642 271.982 144.413 270.525 147.107C269.296 149.382 267.466 150.868 266.093 150.841C262.261 157.99 255.575 162.024 249.951 160.095C243.439 157.862 240.82 148.487 244.1 139.154Z" fill="#907AF9"/>
<path d="M252.262 139.459C252.543 140.629 252.418 141.85 251.905 142.936C251.448 144.033 250.823 145.056 250.049 145.973C249.654 146.439 249.103 146.793 249.109 147.175C249.113 147.422 249.168 147.667 249.271 147.894C249.375 148.121 249.525 148.327 249.713 148.499C250.114 148.886 250.622 149.156 251.176 149.275C251.756 149.421 252.355 149.485 252.952 149.464C252.348 149.648 251.705 149.689 251.077 149.584C250.449 149.479 249.855 149.231 249.346 148.86C249.073 148.649 248.852 148.384 248.699 148.083C248.546 147.782 248.464 147.453 248.459 147.12C248.49 146.76 248.656 146.425 248.926 146.174C249.139 145.949 249.337 145.754 249.525 145.541C250.261 144.664 250.899 143.717 251.429 142.713C251.993 141.717 252.28 140.597 252.262 139.459Z" fill="#745EDD"/>
<path d="M262.917 141.97C262.987 141.944 263.05 141.901 263.1 141.847C263.184 141.754 263.227 141.634 263.22 141.511C263.213 141.387 263.156 141.271 263.061 141.186C262.924 141.065 259.651 138.234 255.916 139.395C255.795 139.436 255.696 139.519 255.639 139.629C255.581 139.738 255.571 139.865 255.609 139.982C255.627 140.04 255.657 140.094 255.697 140.141C255.737 140.188 255.787 140.227 255.843 140.255C255.899 140.283 255.96 140.301 256.023 140.306C256.086 140.312 256.149 140.305 256.208 140.287C259.429 139.286 262.397 141.854 262.427 141.881C262.492 141.938 262.572 141.977 262.659 141.993C262.746 142.009 262.835 142.001 262.917 141.97ZM249.98 139.014C250.056 139.033 250.136 139.033 250.212 139.015C250.288 138.997 250.357 138.961 250.415 138.911C250.509 138.827 250.565 138.712 250.572 138.589C250.579 138.466 250.536 138.345 250.451 138.25C249.107 136.847 247.325 135.897 245.377 135.545C245.25 135.531 245.123 135.564 245.022 135.638C244.922 135.712 244.856 135.821 244.839 135.941C244.822 136.062 244.854 136.185 244.93 136.283C245.006 136.382 245.119 136.45 245.245 136.471C246.968 136.795 248.543 137.636 249.741 138.871C249.804 138.941 249.887 138.99 249.98 139.014ZM261.125 145.137C260.304 144.292 259.311 143.617 258.207 143.157C257.665 142.956 257.085 142.868 256.507 142.897C255.909 142.943 255.323 143.08 254.772 143.302C255.255 142.914 255.836 142.653 256.46 142.545C257.101 142.436 257.763 142.499 258.373 142.726C258.97 142.954 259.517 143.289 259.982 143.714C260.447 144.121 260.834 144.603 261.125 145.137Z" fill="#0D0716"/>
<path d="M256.84 144.756C257.425 144.835 257.962 144.433 258.039 143.859C258.116 143.285 257.704 142.756 257.119 142.678C256.533 142.599 255.996 143.001 255.919 143.575C255.842 144.149 256.254 144.678 256.84 144.756Z" fill="#0D0716"/>
<path d="M246.92 142.167C247.505 142.245 248.042 141.844 248.119 141.27C248.196 140.696 247.784 140.167 247.199 140.088C246.613 140.01 246.076 140.412 245.999 140.985C245.922 141.559 246.334 142.088 246.92 142.167Z" fill="#0D0716"/>
<path d="M250.447 142.668C249.627 141.823 248.633 141.148 247.53 140.688C246.987 140.487 246.408 140.399 245.83 140.429C245.231 140.474 244.646 140.611 244.094 140.833C244.577 140.445 245.159 140.184 245.782 140.076C246.423 139.967 247.085 140.03 247.696 140.257C248.293 140.485 248.839 140.82 249.305 141.245C249.77 141.652 250.156 142.134 250.447 142.668Z" fill="#0D0716"/>
<path d="M270.385 144.261C270.19 143.914 269.957 143.586 269.692 143.284C269.613 143.17 269.493 143.088 269.355 143.053C269.217 143.019 269.072 143.035 268.946 143.098C268.62 143.265 268.324 143.482 268.072 143.74C267.776 144.005 267.488 144.299 267.142 144.567C267.245 144.157 267.418 143.767 267.654 143.411C267.893 143.016 268.246 142.697 268.673 142.491C268.806 142.431 268.951 142.398 269.098 142.393C269.246 142.388 269.393 142.412 269.532 142.464C269.787 142.568 269.997 142.754 270.126 142.989C270.346 143.379 270.436 143.823 270.385 144.261Z" fill="#745EDD"/>
<path d="M268.231 147.172C267.974 146.832 267.825 146.429 267.802 146.012C267.767 145.603 267.8 145.192 267.901 144.794C267.999 144.402 268.15 144.024 268.348 143.669C268.547 143.314 268.802 142.991 269.103 142.711C268.972 143.518 268.739 144.228 268.571 144.951C268.477 145.308 268.401 145.668 268.337 146.032C268.268 146.409 268.233 146.79 268.231 147.172Z" fill="#745EDD"/>
<path d="M268.148 151.876C269.31 152.032 270.376 151.234 270.529 150.095C270.682 148.956 269.864 147.906 268.702 147.75C267.54 147.594 266.474 148.391 266.321 149.531C266.168 150.67 266.986 151.72 268.148 151.876Z" fill="#463D56"/>
<path d="M247.201 154.87C247.201 154.87 251.859 149.735 256.266 152.711L247.201 154.87Z" fill="#0D0716"/>
<path d="M257.611 130.958C258.655 132.056 263.444 142.178 265.481 143.512C265.704 143.676 265.975 143.769 266.255 143.777C267.123 143.769 267.611 142.734 268.761 141.34C269.631 140.286 269.968 140.13 270.472 139.542C271.381 138.367 271.993 137.006 272.262 135.562C272.531 134.119 272.449 132.632 272.024 131.215C271.184 128.858 269.438 126.884 267.143 125.696C262.464 122.949 257.428 124.125 256.151 124.423C248.477 126.215 244.409 132.885 244.639 133.128C244.91 133.414 252.26 125.33 257.611 130.958Z" fill="#0D0716"/>
<path d="M214.007 251.329C214.57 246.564 214.975 241.822 215.749 237.048C216.302 234.636 217.665 232.471 219.63 230.88C221.604 229.288 224.066 228.343 226.658 228.184C229.261 228.006 231.859 228.695 234.012 230.135C235.076 230.847 236.017 231.715 236.799 232.707C237.569 233.694 238.252 234.685 238.983 235.674C241.839 239.647 244.655 243.648 247.429 247.675C244.397 243.819 241.412 239.931 238.476 236.011C237.742 235.038 237.023 234.024 236.277 233.086C235.531 232.154 234.636 231.341 233.625 230.675C231.588 229.35 229.153 228.708 226.709 228.852C224.257 228.984 221.924 229.86 220.046 231.351C218.173 232.859 216.848 234.893 216.253 237.17C215.958 238.298 215.839 239.501 215.652 240.682L215.121 244.233L214.007 251.329ZM241.525 214.819C243.7 215.863 245.836 216.973 247.966 218.093C250.097 219.212 252.196 220.384 254.312 221.526C256.4 222.717 258.502 223.882 260.575 225.098C262.648 226.313 264.715 227.538 266.742 228.83C264.566 227.787 262.43 226.677 260.3 225.557C258.17 224.437 256.07 223.267 253.954 222.123C251.868 220.93 249.764 219.767 247.692 218.551C245.619 217.335 243.552 216.11 241.525 214.819Z" fill="#27104F"/>
<path d="M237.204 247.022C237.081 246.024 237.093 245.016 237.241 244.024C237.358 243.027 237.612 242.051 237.996 241.121C238.121 242.12 238.109 243.128 237.959 244.12C237.84 245.116 237.586 246.092 237.204 247.022ZM247.8 218.306C249.48 218.514 251.144 218.796 252.805 219.09C254.468 219.375 256.119 219.714 257.771 220.053C259.419 220.408 261.066 220.764 262.702 221.173C264.34 221.575 265.975 221.987 267.594 222.475C265.914 222.268 264.25 221.986 262.589 221.693C260.926 221.407 259.274 221.068 257.623 220.728C255.976 220.372 254.328 220.016 252.692 219.607C251.054 219.206 249.419 218.793 247.8 218.306Z" fill="#27104F"/>
<path d="M233.528 204.673C233.252 203.389 233.03 202.1 232.817 200.81C232.603 199.52 232.433 198.225 232.239 196.932C232.086 195.635 231.911 194.341 231.778 193.042C231.645 191.743 231.52 190.443 231.451 189.137C231.728 190.42 231.949 191.709 232.163 193C232.376 194.29 232.547 195.585 232.739 196.877C232.891 198.174 233.068 199.468 233.2 200.768C233.333 202.067 233.458 203.367 233.528 204.673ZM279.235 188.983C279.147 187.583 279.149 186.179 279.239 184.781C279.325 183.379 279.494 181.984 279.745 180.602C280 179.212 280.417 177.855 280.988 176.557C281.288 175.907 281.679 175.3 282.151 174.752C282.622 174.199 283.274 173.814 284.005 173.657C283.327 173.895 282.746 174.33 282.344 174.902C281.928 175.457 281.593 176.063 281.346 176.705C280.843 177.996 280.473 179.332 280.241 180.695C279.956 182.053 279.786 183.434 279.624 184.816C279.465 186.199 279.345 187.588 279.235 188.983Z" fill="#5723B0"/>
<path d="M254.858 193.974C255.731 194.895 256.491 195.862 257.254 196.828L258.704 200.063L261.624 206.525L264.544 212.988L266.003 216.219C266.209 217.409 266.422 218.596 266.537 219.823C265.679 218.895 264.92 217.928 264.152 216.964L262.692 213.733L259.772 207.271L256.852 200.809L255.383 197.581C255.173 196.393 254.959 195.206 254.858 193.974Z" fill="#27104F"/>
<path d="M276.92 212.09L311.238 210.041C311.238 210.041 315.942 215.458 314.051 222.073C313.818 222.911 313.276 223.636 312.524 224.115C311.772 224.595 310.86 224.796 309.957 224.683L276.202 220.155C276.202 220.155 255.71 217.346 254.609 213.414L262.636 208.955C263.162 208.66 263.752 208.483 264.363 208.434C264.974 208.386 265.59 208.468 266.166 208.676L276.92 212.09Z" fill="#907AF9"/>
<path d="M257.258 215.761L256.999 215.344L264.376 211.239L267.287 211.311L267.279 211.792L264.511 211.724L257.258 215.761Z" fill="#745EDD"/>
<path d="M261.278 217.25L261.006 216.841L266.073 213.835L268.453 213.617L268.507 214.096L266.186 214.309L261.278 217.25Z" fill="#745EDD"/>
<path d="M266.174 218.482L265.838 218.119L268.018 216.293L269.867 216.17L269.907 216.651L268.227 216.763L266.174 218.482Z" fill="#745EDD"/>
<path d="M264.902 161.266C267.127 161.564 269.168 160.038 269.461 157.856C269.753 155.675 268.187 153.664 265.962 153.366C263.736 153.067 261.695 154.594 261.403 156.775C261.11 158.957 262.677 160.967 264.902 161.266Z" fill="#0D0716"/>
<path d="M263.997 166.341C266.223 166.64 268.264 165.113 268.556 162.932C268.849 160.75 267.282 158.74 265.057 158.441C262.832 158.143 260.791 159.669 260.498 161.851C260.206 164.032 261.772 166.043 263.997 166.341Z" fill="#0D0716"/>
<path d="M264.52 172.271C266.745 172.569 268.786 171.043 269.079 168.861C269.371 166.68 267.805 164.669 265.58 164.371C263.355 164.072 261.314 165.599 261.021 167.78C260.728 169.962 262.295 171.972 264.52 172.271Z" fill="#0D0716"/>
<path d="M265.886 177.803C268.111 178.102 270.152 176.575 270.445 174.394C270.738 172.212 269.171 170.202 266.946 169.903C264.721 169.605 262.68 171.131 262.387 173.313C262.094 175.494 263.661 177.505 265.886 177.803Z" fill="#0D0716"/>
<path d="M272.442 171.25L270.872 165.519L265.417 169.845L257.637 167.986C257.637 167.986 260.319 174.464 260.485 175.165L265.541 170.107L272.442 171.25ZM245.704 172.087L246.331 166.196L239.647 168.307L233.05 163.837C233.05 163.837 233.191 170.815 233.089 171.527L239.667 168.594L245.704 172.087Z" fill="#0D0716"/>
<path d="M235.765 163.516C239.482 160.63 234.61 155.253 234.61 155.253C234.912 154.576 235.336 153.956 235.863 153.422C236.219 153.051 236.424 152.57 236.442 152.064C236.461 151.558 236.292 151.06 235.964 150.658C231.129 144.791 228.642 151.849 228.642 151.849L228.369 143.949C228.363 143.646 228.235 143.354 228.011 143.135C227.788 142.917 227.486 142.787 227.168 142.774C226.834 142.769 226.514 142.89 226.276 143.112C226.039 143.333 225.905 143.636 225.902 143.955L225.646 157.006L228.348 166.236L219.697 189.098C219.697 189.098 211.479 205.174 217.61 211.206C218.494 212.183 219.654 212.896 220.947 213.26C222.241 213.624 223.612 213.623 224.895 213.256C226.597 212.764 228.107 211.809 229.241 210.506C230.374 209.203 231.083 207.609 231.281 205.917L236.13 169.771L235.765 163.516Z" fill="#907AF9"/>
<path d="M222.151 153.651C222.217 154.024 222.431 154.359 222.747 154.588C223.936 155.385 226.52 159.993 226.52 159.993L225.645 157.006L225.699 154.287C221.925 150.655 221.893 152.427 222.151 153.651Z" fill="#907AF9"/>
<path d="M315.933 242.22L309.296 241.329L297.639 328.225L304.276 329.116L315.933 242.22Z" fill="#695093"/>
<path d="M329.758 226.914L132.593 200.463C131.961 200.379 131.383 200.799 131.302 201.401L130.944 204.072C130.863 204.675 131.31 205.232 131.942 205.317L329.106 231.767C329.739 231.852 330.317 231.432 330.397 230.829L330.756 228.159C330.837 227.556 330.39 226.998 329.758 226.914Z" fill="#695093"/>
<path d="M150.211 211.259L143.573 210.369L130.766 305.839L137.403 306.729L150.211 211.259Z" fill="#695093"/>
<path d="M138.739 206.229L322.763 230.917L321.076 243.496C320.998 244.074 320.682 244.597 320.198 244.949C319.714 245.3 319.101 245.452 318.494 245.371L139.047 221.298C138.441 221.216 137.889 220.908 137.515 220.441C137.141 219.974 136.974 219.387 137.052 218.808L138.739 206.229Z" fill="#9186C3"/>
<path d="M290.403 216.949L236.348 209.697L235.73 214.299L289.785 221.551L290.403 216.949Z" fill="#BEB9D6"/>
<path d="M161.438 197.861L199.06 202.908L198.296 208.604L160.674 203.557C159.993 203.466 159.373 203.12 158.953 202.595C158.533 202.071 158.346 201.411 158.433 200.761L158.539 199.967C158.583 199.645 158.692 199.336 158.861 199.056C159.03 198.776 159.255 198.531 159.525 198.335C159.794 198.14 160.101 197.997 160.43 197.916C160.758 197.834 161.101 197.816 161.438 197.861Z" fill="white"/>
<path d="M199.452 208.907C199.434 209.044 199.359 209.168 199.245 209.251C199.13 209.334 198.986 209.37 198.842 209.351L159.795 204.113C158.304 203.913 157.301 202.189 157.558 200.269C157.816 198.35 159.238 196.951 160.729 197.151L199.776 202.389C199.919 202.408 200.05 202.481 200.138 202.592C200.227 202.702 200.266 202.841 200.248 202.978L200.193 203.384C200.175 203.521 200.1 203.645 199.986 203.728C199.871 203.811 199.726 203.847 199.583 203.827L160.536 198.589C159.661 198.472 158.827 199.293 158.676 200.419C158.524 201.545 159.113 202.557 159.988 202.674L199.035 207.913C199.178 207.932 199.309 208.005 199.397 208.115C199.486 208.225 199.525 208.364 199.507 208.501L199.452 208.907Z" fill="#C6BAFF"/>
<path d="M156.503 190.112L194.124 195.159L193.36 200.855L155.739 195.808C155.057 195.716 154.438 195.37 154.018 194.846C153.597 194.322 153.41 193.662 153.497 193.012L153.604 192.218C153.691 191.568 154.045 190.981 154.589 190.586C155.133 190.191 155.821 190.02 156.503 190.112Z" fill="white"/>
<path d="M194.517 201.158C194.498 201.295 194.424 201.419 194.309 201.502C194.195 201.585 194.05 201.621 193.906 201.602L154.859 196.364C153.369 196.164 152.365 194.439 152.623 192.52C152.88 190.601 154.303 189.202 155.793 189.402L194.84 194.64C194.911 194.65 194.98 194.672 195.042 194.707C195.104 194.742 195.159 194.788 195.203 194.843C195.247 194.897 195.279 194.959 195.298 195.026C195.316 195.092 195.321 195.161 195.312 195.229L195.258 195.635C195.239 195.772 195.165 195.895 195.05 195.979C194.936 196.062 194.791 196.098 194.647 196.078L155.6 190.84C154.726 190.723 153.891 191.544 153.74 192.67C153.589 193.796 154.178 194.808 155.052 194.925L194.099 200.163C194.243 200.183 194.373 200.256 194.462 200.366C194.55 200.476 194.59 200.615 194.571 200.752L194.517 201.158Z" fill="black"/>
<path d="M169.451 184.762L207.072 189.809L206.308 195.505L168.687 190.458C168.005 190.366 167.386 190.02 166.966 189.496C166.545 188.972 166.358 188.312 166.446 187.662L166.552 186.868C166.639 186.218 166.994 185.631 167.537 185.236C168.081 184.841 168.769 184.67 169.451 184.762Z" fill="white"/>
<path d="M207.466 195.808C207.448 195.945 207.373 196.069 207.259 196.152C207.144 196.235 206.999 196.271 206.856 196.252L167.809 191.014C166.318 190.814 165.315 189.089 165.572 187.17C165.83 185.251 167.252 183.852 168.743 184.052L207.79 189.29C207.933 189.309 208.063 189.382 208.152 189.493C208.241 189.603 208.28 189.742 208.262 189.879L208.207 190.285C208.189 190.422 208.114 190.545 208 190.629C207.885 190.712 207.74 190.748 207.597 190.728L168.55 185.49C167.675 185.373 166.84 186.194 166.689 187.32C166.538 188.446 167.127 189.458 168.002 189.575L207.049 194.813C207.192 194.833 207.323 194.906 207.411 195.016C207.5 195.126 207.539 195.265 207.521 195.402L207.466 195.808Z" fill="#C6BAFF"/>
<path d="M474.877 279.158L431.103 273.286L434.229 249.981L477.924 255.843L474.877 279.158Z" fill="#695093"/>
<path d="M487.718 273.859L419.691 264.733C419.045 264.646 418.453 265.076 418.371 265.692L417.745 270.357C417.662 270.974 418.119 271.544 418.766 271.631L486.793 280.757C487.44 280.843 488.031 280.414 488.113 279.797L488.739 275.132C488.822 274.516 488.365 273.946 487.718 273.859Z" fill="#CCB8FF"/>
<path d="M481.948 280.107L423.401 272.253C422.754 272.166 422.163 272.595 422.08 273.212L421.796 275.332C421.713 275.949 422.17 276.519 422.817 276.605L481.364 284.46C482.01 284.546 482.601 284.117 482.684 283.5L482.968 281.38C483.051 280.764 482.594 280.193 481.948 280.107Z" fill="#695093"/>
<path d="M455.355 280.971L448.613 280.066L442.792 323.462L449.533 324.367L455.355 280.971Z" fill="#CCB8FF"/>
<path d="M449.072 327.814L490.352 348.136L491.053 342.913L449.534 324.367L442.792 323.462L397.818 330.405L397.117 335.629L442.329 326.91L449.072 327.814Z" fill="#695093"/>
<path d="M396.969 329.474L393.469 329.004C392.661 328.896 391.922 329.432 391.819 330.203L390.738 338.261C390.634 339.032 391.205 339.744 392.013 339.853L395.514 340.322C396.322 340.431 397.06 339.894 397.164 339.123L398.245 331.065C398.348 330.294 397.777 329.582 396.969 329.474Z" fill="#CCB8FF"/>
<path d="M490.662 353.086L494.162 353.555C494.97 353.664 495.709 353.127 495.812 352.356L496.893 344.298C496.997 343.527 496.425 342.815 495.617 342.707L492.117 342.237C491.309 342.129 490.571 342.665 490.467 343.436L489.386 351.494C489.283 352.265 489.854 352.977 490.662 353.086Z" fill="#CCB8FF"/>
<path d="M450.159 322.815L442.598 321.801C441.951 321.714 441.36 322.143 441.277 322.76L440.661 327.358C440.578 327.975 441.035 328.545 441.682 328.632L449.242 329.646C449.889 329.733 450.48 329.303 450.563 328.687L451.179 324.088C451.262 323.472 450.805 322.902 450.159 322.815Z" fill="#463D56"/>
<path d="M498.954 198.465L446.704 191.456C443.795 191.066 441.135 192.998 440.763 195.772L434.51 242.382C434.138 245.156 436.195 247.721 439.104 248.112L491.354 255.121C494.263 255.511 496.923 253.579 497.295 250.805L503.548 204.195C503.92 201.421 501.863 198.856 498.954 198.465Z" fill="#CCB8FF"/>
<path d="M513.361 241.367L459.306 234.116L458.688 238.717L512.743 245.969L513.361 241.367Z" fill="#BEB9D6"/>
<path d="M485.548 241.341L523.17 246.388L522.406 252.084L484.784 247.037C484.102 246.946 483.483 246.6 483.063 246.076C482.643 245.551 482.456 244.892 482.543 244.242L482.649 243.447C482.736 242.797 483.091 242.21 483.634 241.815C484.178 241.42 484.866 241.25 485.548 241.341Z" fill="white"/>
<path d="M523.563 252.388C523.554 252.456 523.531 252.521 523.495 252.58C523.459 252.639 523.412 252.69 523.355 252.731C523.299 252.773 523.234 252.803 523.165 252.82C523.096 252.837 523.023 252.841 522.952 252.831L483.905 247.593C482.415 247.393 481.411 245.669 481.669 243.749C481.926 241.83 483.348 240.431 484.839 240.631L523.886 245.87C523.957 245.879 524.026 245.902 524.088 245.937C524.15 245.971 524.205 246.017 524.249 246.072C524.292 246.127 524.325 246.189 524.344 246.255C524.362 246.321 524.367 246.39 524.358 246.458L524.304 246.864C524.285 247.001 524.211 247.125 524.096 247.208C523.982 247.291 523.837 247.327 523.693 247.308L484.646 242.07C483.771 241.952 482.937 242.773 482.786 243.899C482.635 245.026 483.223 246.037 484.098 246.155L523.145 251.393C523.216 251.402 523.285 251.425 523.347 251.46C523.409 251.495 523.464 251.541 523.508 251.595C523.552 251.65 523.584 251.712 523.603 251.779C523.621 251.845 523.626 251.914 523.617 251.982L523.563 252.388Z" fill="#C6BAFF"/>
<path d="M480.613 233.592L518.234 238.639L517.47 244.335L479.848 239.288C479.167 239.196 478.548 238.851 478.127 238.326C477.707 237.802 477.52 237.142 477.607 236.492L477.714 235.698C477.801 235.048 478.155 234.461 478.699 234.066C479.243 233.671 479.931 233.501 480.613 233.592Z" fill="white"/>
<path d="M518.627 244.639C518.608 244.776 518.534 244.899 518.419 244.982C518.305 245.066 518.16 245.101 518.016 245.082L478.969 239.844C477.478 239.644 476.475 237.92 476.733 236C476.99 234.081 478.412 232.682 479.903 232.882L518.95 238.12C519.094 238.14 519.224 238.212 519.313 238.323C519.401 238.433 519.441 238.572 519.422 238.709L519.368 239.115C519.349 239.252 519.275 239.376 519.16 239.459C519.046 239.542 518.901 239.578 518.757 239.559L479.71 234.32C478.835 234.203 478.001 235.024 477.85 236.15C477.699 237.276 478.287 238.288 479.162 238.406L518.209 243.644C518.353 243.663 518.483 243.736 518.572 243.846C518.66 243.957 518.7 244.096 518.681 244.232L518.627 244.639Z" fill="black"/>
<path d="M493.561 228.242L531.183 233.289L530.419 238.985L492.797 233.938C492.116 233.847 491.496 233.501 491.076 232.976C490.656 232.452 490.469 231.792 490.556 231.142L490.662 230.348C490.75 229.698 491.104 229.111 491.648 228.716C492.191 228.321 492.88 228.151 493.561 228.242Z" fill="white"/>
<path d="M531.576 239.289C531.558 239.426 531.483 239.549 531.368 239.632C531.254 239.716 531.109 239.751 530.966 239.732L491.919 234.494C490.428 234.294 489.424 232.57 489.682 230.65C489.939 228.731 491.362 227.332 492.852 227.532L531.9 232.77C532.043 232.79 532.173 232.862 532.262 232.973C532.35 233.083 532.39 233.222 532.371 233.359L532.317 233.765C532.299 233.902 532.224 234.026 532.109 234.109C531.995 234.192 531.85 234.228 531.707 234.209L492.66 228.97C491.785 228.853 490.95 229.674 490.799 230.8C490.648 231.926 491.237 232.938 492.111 233.056L531.159 238.294C531.302 238.313 531.432 238.386 531.521 238.496C531.609 238.607 531.649 238.746 531.63 238.882L531.576 239.289Z" fill="#C6BAFF"/>
<path d="M461.591 162.668C461.591 162.668 446.028 165.502 447.777 188.559C449.527 211.615 432.995 215.053 428.465 210.466C428.465 210.466 452.185 228.443 460.934 174.57L461.591 162.668Z" fill="#0D0716"/>
<path d="M460.4 178.125C460.205 179.775 459.936 181.41 459.591 183.031C459.266 184.666 458.842 186.281 458.321 187.866C458.246 188.068 458.168 188.267 458.067 188.478C458.009 188.605 457.935 188.725 457.847 188.835C457.801 188.889 457.748 188.937 457.687 188.975C457.619 189.018 457.542 189.045 457.46 189.053C457.36 189.068 457.258 189.049 457.17 189C457.057 188.946 456.969 188.855 456.921 188.743C456.898 188.697 456.88 188.648 456.868 188.598C456.793 188.147 456.777 187.688 456.82 187.234C456.878 186.394 456.962 185.569 457.083 184.747C457.304 183.103 457.621 181.475 458.003 179.858C457.971 181.52 457.889 183.173 457.787 184.818C457.751 185.641 457.684 186.463 457.677 187.274C457.658 187.644 457.673 188.015 457.722 188.384C457.722 188.384 457.731 188.417 457.72 188.386C457.688 188.347 457.739 188.365 457.57 188.247C457.502 188.218 457.427 188.205 457.353 188.209C457.299 188.216 457.247 188.233 457.2 188.259C457.172 188.268 457.141 188.311 457.154 188.291C457.191 188.234 457.224 188.175 457.251 188.113C457.328 187.949 457.397 187.76 457.465 187.574C458.003 186.051 458.427 184.443 458.906 182.866C459.366 181.28 459.864 179.7 460.4 178.125Z" fill="#463D56"/>
<path d="M441.707 323.7L442.785 340.119C442.785 340.119 433.22 342.546 428.331 331.947L428.817 322.34L441.707 323.7Z" fill="#907AF9"/>
<path d="M442.186 331.423C442.186 331.423 448.576 341.503 443.644 346.278C443.386 346.524 443.071 346.709 442.723 346.817C442.375 346.926 442.004 346.955 441.641 346.903L403.959 341.649C403.787 341.624 403.621 341.565 403.473 341.476C403.325 341.386 403.198 341.268 403.101 341.129C403.003 340.99 402.937 340.834 402.907 340.67C402.876 340.505 402.882 340.337 402.925 340.176C403.391 338.343 404.755 335.096 408.651 334.044C414.191 332.548 417.38 337.011 427.088 331.011C427.088 331.011 438.007 335.639 442.186 331.423Z" fill="#695093"/>
<path d="M401.031 308.312L392.263 322.352C392.263 322.352 382.858 319.204 385.021 307.888L391.082 300.272L401.031 308.312Z" fill="#907AF9"/>
<path d="M396.883 314.901C396.883 314.901 396.278 326.598 389.354 327.863C388.994 327.926 388.622 327.908 388.268 327.81C387.914 327.713 387.588 327.537 387.315 327.299L358.984 302.75C358.854 302.637 358.751 302.5 358.68 302.347C358.609 302.194 358.573 302.029 358.573 301.863C358.574 301.696 358.611 301.532 358.682 301.381C358.754 301.23 358.858 301.096 358.988 300.987C360.456 299.734 363.505 297.805 367.374 299.035C372.874 300.785 372.906 306.156 384.534 306.453C384.534 306.453 390.916 316.112 396.883 314.901Z" fill="#695093"/>
<path d="M460.54 194.014L456.093 196.533L451.657 207.626L478.888 210.954L489.405 199.23C489.405 199.23 475.961 196.451 473.849 189.089L460.54 194.014Z" fill="#907AF9"/>
<path d="M462.082 189.037C462.082 189.037 466.936 193.486 473.713 189.613C473.713 189.613 470.573 197.557 460.54 194.014C461.18 193.357 461.651 192.567 461.918 191.704C462.185 190.841 462.241 189.929 462.082 189.037Z" fill="#745EDD"/>
<path d="M457.477 240.654L488.273 246.826C488.273 246.826 495.214 263.001 492.444 274.149C491.838 276.469 490.355 278.483 488.279 279.805C486.202 281.128 483.678 281.665 481.19 281.316L452.538 277.472L445.685 328.557L424.43 325.706L429.377 279.965L402.969 314.313L384.58 300.736L429.671 240.204C430.763 238.71 432.358 237.621 434.195 237.116C436.033 236.61 438.003 236.718 439.784 237.421L456.999 244.218L457.477 240.654Z" fill="black"/>
<path d="M429.378 279.965C429.608 277.481 429.895 275.004 430.153 272.524L430.586 268.809C430.693 267.548 430.92 266.3 431.266 265.081C432.109 262.619 433.795 260.507 436.054 259.082C438.313 257.658 441.015 257.002 443.731 257.219C446.456 257.442 449.031 258.545 451.03 260.347C451.977 261.254 452.828 262.247 453.573 263.311C454.341 264.329 455.099 265.353 455.847 266.385L460.363 272.557C461.842 274.632 463.346 276.69 464.802 278.781C463.18 276.804 461.605 274.795 460.004 272.802L455.284 266.771C454.495 265.767 453.713 264.758 452.94 263.744C452.215 262.729 451.388 261.782 450.471 260.919C448.598 259.266 446.199 258.265 443.67 258.081L443.201 258.028L442.73 258.041L441.787 258.063C441.162 258.109 440.545 258.24 439.926 258.337C439.322 258.5 438.728 258.692 438.145 258.914C437.567 259.145 437.011 259.426 436.487 259.753C434.355 261.054 432.749 263.004 431.926 265.293C431.554 266.464 431.295 267.667 431.152 268.885L430.591 272.583C430.185 275.043 429.81 277.508 429.378 279.965ZM457 244.218C459.214 245.217 461.381 246.299 463.54 247.393C465.704 248.478 467.833 249.622 469.963 250.767C472.082 251.93 474.2 253.094 476.284 254.316L479.408 256.152C480.433 256.791 481.474 257.405 482.486 258.067C481.374 257.575 480.29 257.035 479.192 256.52L475.945 254.894C473.781 253.808 471.651 252.663 469.522 251.518C467.404 250.354 465.286 249.191 463.202 247.968C461.114 246.754 459.032 245.527 457 244.218Z" fill="#4B2AE6"/>
<path d="M452.539 277.472C452.349 276.494 452.329 275.496 452.478 274.516C452.59 273.531 452.873 272.573 453.315 271.681C453.507 272.658 453.527 273.657 453.376 274.637C453.262 275.621 452.979 276.579 452.539 277.472ZM463.342 247.665C466.728 248.057 470.092 248.611 473.424 249.325C476.763 250 480.067 250.836 483.322 251.83C479.937 251.44 476.572 250.886 473.241 250.17C469.902 249.493 466.598 248.657 463.342 247.665Z" fill="#4B2AE6"/>
<path d="M453.083 195.589C448.921 196.001 445.036 197.718 442.033 200.472L417.518 222.956C417.518 222.956 410.949 224.744 409.116 227.516C409.116 227.516 402.123 236.095 409.576 238.604L423.797 237.842L443.974 220.817C443.974 220.817 445.28 243.746 448.424 244.804C451.568 245.862 498.957 251.001 498.957 251.001C498.957 251.001 504.336 250.896 503.112 240.686C503.112 240.686 499.719 199.047 486.048 195.704L478.277 194.661C478.277 194.661 477.635 203.977 468.442 203.556C459.248 203.135 459.677 194.488 459.677 194.488L453.083 195.589Z" fill="#463D56"/>
<path d="M462.508 238.103L491.121 236.543C492.289 236.475 493.463 236.634 494.572 237.01C495.68 237.386 496.7 237.972 497.57 238.731C498.441 239.491 499.143 240.41 499.635 241.431C500.127 242.453 500.399 243.556 500.434 244.675C500.48 246.893 499.878 249.071 498.697 250.966L461.814 246.018C461.814 246.018 441.135 243.186 440.01 239.321L448.09 234.972C448.624 234.684 449.22 234.512 449.835 234.467C450.449 234.422 451.069 234.505 451.649 234.711L462.508 238.103Z" fill="#907AF9"/>
<path d="M442.684 241.64L442.433 241.22L449.857 237.218L452.79 237.298L452.782 237.778L449.988 237.7L442.684 241.64Z" fill="#745EDD"/>
<path d="M446.746 243.116L446.482 242.705L451.577 239.773L453.979 239.566L454.029 240.044L451.686 240.245L446.746 243.116Z" fill="#745EDD"/>
<path d="M451.687 244.344L451.359 243.977L453.551 242.193L455.413 242.079L455.45 242.558L453.754 242.662L451.687 244.344Z" fill="#745EDD"/>
<path d="M443.974 220.818C443.975 219.868 444.034 218.92 444.15 217.978C444.255 217.035 444.414 216.098 444.617 215.168C444.819 214.235 445.097 213.319 445.449 212.429C445.749 211.509 446.329 210.697 447.116 210.097C446.773 210.427 446.502 210.819 446.32 211.252C446.119 211.674 445.95 212.109 445.814 212.555C445.536 213.447 445.315 214.359 445.108 215.274C444.895 216.189 444.725 217.114 444.531 218.036L443.974 220.818ZM481.459 205.418C481.377 204.612 481.417 203.8 481.578 203.007C481.723 202.2 482.003 201.422 482.409 200.703C482.827 199.976 483.419 199.355 484.137 198.891C484.864 198.458 485.703 198.223 486.564 198.211C485.769 198.398 485.021 198.732 484.363 199.193C483.748 199.679 483.234 200.271 482.848 200.939C482.465 201.622 482.164 202.345 481.953 203.094C481.733 203.856 481.568 204.633 481.459 205.418ZM482.973 214.094C483.307 215.805 483.599 217.52 483.892 219.234L484.747 224.377C485.007 226.095 485.303 227.807 485.595 229.519C485.738 230.375 485.892 231.23 486.07 232.079C486.191 232.937 486.436 233.775 486.798 234.571C486.538 234.209 486.342 233.808 486.221 233.385C486.078 232.97 485.95 232.55 485.83 232.129C485.602 231.284 485.405 230.433 485.215 229.582C484.843 227.877 484.55 226.16 484.251 224.445C483.991 222.725 483.724 221.006 483.511 219.28C483.298 217.555 483.101 215.828 482.973 214.094Z" fill="#5723B0"/>
<path d="M378.262 240.67L443.213 254.839L469.53 247.675L418.525 238.551L378.262 240.67Z" fill="#BEB9D6"/>
<path d="M410.235 247.991L410.271 247.678C410.557 245.187 409.952 243.323 408.472 242.137C406.247 240.356 402.06 240.157 396.987 241.588C389.733 243.638 385.261 242.453 385.074 242.402L385.208 241.94C385.254 241.953 389.736 243.134 396.839 241.129C402.08 239.649 406.436 239.883 408.792 241.772C410.347 243.017 411.022 244.917 410.802 247.425L443.143 242.805L443.224 243.28L410.235 247.991Z" fill="#9E9AB2"/>
<path d="M439.208 237.675L395.201 231.772L394.606 236.211L438.612 242.115L439.208 237.675Z" fill="#BEB9D6"/>
<path d="M414.064 237.813L410.867 236.123C410.32 235.835 409.876 235.396 409.592 234.865C409.307 234.334 409.198 233.735 409.276 233.147C409.505 231.453 409.943 229.177 410.714 228.311L414.831 225.248C415.371 224.845 416.039 224.628 416.728 224.633C417.417 224.638 418.087 224.864 418.631 225.274C420.14 226.423 421.978 228.037 422.044 229.134C422.044 229.134 430.349 227.114 425.35 233.524L426.581 237.055L425.082 238.247C425.082 238.247 416.667 239.189 414.064 237.813Z" fill="#907AF9"/>
<path d="M418.619 229.951C419.24 230.584 419.818 231.248 420.388 231.917C420.964 232.582 421.507 233.27 422.051 233.958C422.585 234.652 423.118 235.347 423.621 236.064C424.127 236.778 424.627 237.497 425.082 238.247C424.46 237.614 423.882 236.95 423.312 236.282C422.737 235.616 422.193 234.929 421.65 234.241C421.116 233.546 420.583 232.851 420.081 232.134C419.575 231.42 419.075 230.701 418.619 229.951ZM415.948 232.843C416.467 233.251 416.946 233.694 417.418 234.141C417.894 234.586 418.341 235.055 418.789 235.524C419.227 236.001 419.664 236.478 420.073 236.98C420.485 237.479 420.892 237.983 421.257 238.522C420.737 238.115 420.259 237.672 419.786 237.224C419.31 236.78 418.863 236.311 418.416 235.841C417.978 235.364 417.541 234.886 417.132 234.384C416.72 233.886 416.313 233.382 415.948 232.843ZM413.253 233.874C413.674 234.198 414.074 234.545 414.452 234.913C414.838 235.27 415.195 235.652 415.551 236.034C415.898 236.424 416.245 236.814 416.562 237.228C416.891 237.637 417.195 238.064 417.471 238.506C417.051 238.183 416.65 237.836 416.272 237.468C415.886 237.111 415.53 236.729 415.174 236.346C414.827 235.956 414.48 235.566 414.163 235.152C413.834 234.743 413.531 234.317 413.253 233.874Z" fill="#745EDD"/>
<path d="M412.788 214.661C413.769 215.457 414.645 216.312 415.523 217.165L417.381 220.162L421.111 226.147L424.842 232.132L426.708 235.124C427.068 236.268 427.436 237.408 427.712 238.6C426.745 237.796 425.869 236.941 424.985 236.091L423.12 233.098L419.389 227.113L415.658 221.129L413.784 218.141C413.419 217 413.051 215.86 412.788 214.661Z" fill="#27104F"/>
<path d="M489.326 166.389C489.326 166.389 503.592 173.225 495.827 195.005C488.063 216.785 503.104 224.459 508.683 221.227C508.683 221.227 481.064 232.317 486.822 178.043L489.326 166.389Z" fill="#0D0716"/>
<path d="M471.64 184.031C464.485 182.521 456.63 173.403 458.506 166.017C460.141 159.58 468.576 156.79 470.629 156.112C473.201 155.146 475.997 154.83 478.75 155.192C481.504 155.554 484.124 156.583 486.359 158.18C489.07 160.118 491.185 162.718 492.479 165.701C493.852 168.631 492.092 179.842 484.55 184.744C480.754 187.211 472.717 184.258 471.64 184.031Z" fill="#0D0716"/>
<path d="M459.061 170.122C462.336 160.97 470.321 155.348 476.897 157.564C481.973 159.274 484.722 165.155 484.208 171.958C484.464 171.841 484.744 171.78 485.029 171.779C485.314 171.777 485.596 171.836 485.856 171.951C487.253 172.667 487.203 175.388 485.743 178.028C484.511 180.257 482.671 181.709 481.286 181.678C477.447 188.683 470.718 192.619 465.039 190.705C458.463 188.489 455.786 179.274 459.061 170.122Z" fill="#907AF9"/>
<path d="M467.295 170.452C467.582 171.611 467.453 172.824 466.927 173.895C466.465 174.979 465.83 175.987 465.044 176.882C464.839 177.101 464.612 177.308 464.422 177.5C464.338 177.569 464.269 177.654 464.22 177.75C464.171 177.845 464.142 177.949 464.135 178.055C464.169 178.549 464.404 179.013 464.791 179.346C465.203 179.718 465.712 179.976 466.264 180.09C466.841 180.23 467.434 180.293 468.027 180.277C467.428 180.454 466.793 180.496 466.17 180.399C465.548 180.302 464.956 180.069 464.44 179.718C464.163 179.518 463.934 179.263 463.769 178.971C463.605 178.68 463.508 178.358 463.487 178.028C463.498 177.664 463.654 177.32 463.924 177.066L464.531 176.443C465.277 175.588 465.922 174.658 466.456 173.668C467.03 172.689 467.32 171.579 467.295 170.452ZM485.592 175.232C485.395 174.89 485.16 174.568 484.891 174.272C484.808 174.161 484.685 174.081 484.547 174.047C484.408 174.014 484.262 174.028 484.135 174.089C483.807 174.248 483.51 174.459 483.255 174.711C482.958 174.971 482.669 175.259 482.322 175.522C482.428 175.115 482.605 174.729 482.845 174.379C483.088 173.989 483.445 173.677 483.873 173.481C484.006 173.424 484.148 173.393 484.294 173.389C484.439 173.386 484.585 173.41 484.721 173.46C484.974 173.561 485.185 173.742 485.317 173.972C485.543 174.356 485.639 174.797 485.592 175.232Z" fill="#745EDD"/>
<path d="M483.429 178.084C483.171 177.752 483.02 177.356 482.996 176.946C482.96 176.542 482.992 176.137 483.093 175.745C483.191 175.36 483.341 174.989 483.54 174.641C483.738 174.294 483.992 173.978 484.293 173.706C484.159 174.499 483.926 175.195 483.759 175.904C483.665 176.254 483.591 176.607 483.528 176.964C483.461 177.333 483.428 177.708 483.429 178.084Z" fill="#745EDD"/>
<path d="M472.659 162.125C473.715 163.207 478.583 173.162 480.643 174.479C480.87 174.642 481.143 174.734 481.425 174.742C482.3 174.738 482.788 173.723 483.944 172.359C484.817 171.327 485.157 171.175 485.662 170.6C486.573 169.456 487.186 168.121 487.453 166.702C487.719 165.282 487.632 163.819 487.197 162.429C486.322 160.093 484.555 158.151 482.254 156.993C477.525 154.279 472.449 155.415 471.162 155.703C463.429 157.434 459.35 163.968 459.583 164.208C459.857 164.489 467.241 156.579 472.659 162.125Z" fill="#0D0716"/>
<path d="M478.416 173.267C478.492 173.239 478.56 173.193 478.612 173.132C478.664 173.072 478.699 173 478.713 172.923C478.728 172.846 478.721 172.766 478.694 172.691C478.667 172.617 478.62 172.55 478.559 172.497C478.419 172.378 475.108 169.586 471.345 170.713C471.285 170.731 471.23 170.76 471.182 170.799C471.134 170.837 471.094 170.885 471.066 170.938C471.037 170.991 471.02 171.05 471.015 171.11C471.01 171.17 471.018 171.23 471.037 171.288C471.057 171.345 471.088 171.399 471.129 171.445C471.17 171.492 471.22 171.53 471.276 171.558C471.333 171.586 471.394 171.603 471.457 171.608C471.52 171.614 471.583 171.607 471.643 171.589C474.888 170.618 477.891 173.151 477.921 173.177C477.987 173.234 478.069 173.272 478.156 173.288C478.243 173.304 478.333 173.296 478.416 173.267ZM465.789 169.856C465.891 169.844 465.986 169.8 466.059 169.732C466.133 169.664 466.181 169.575 466.198 169.478C466.214 169.381 466.197 169.281 466.149 169.194C466.102 169.106 466.026 169.034 465.933 168.99C464.124 168.184 462.098 167.95 460.155 168.324C460.031 168.353 459.925 168.427 459.86 168.531C459.794 168.634 459.775 168.759 459.806 168.878C459.837 168.996 459.916 169.098 460.026 169.162C460.135 169.226 460.266 169.246 460.39 169.217C462.113 168.898 463.905 169.106 465.512 169.811C465.598 169.852 465.694 169.868 465.789 169.856ZM476.619 176.369C475.783 175.532 474.777 174.867 473.664 174.416C473.117 174.218 472.535 174.129 471.953 174.156C471.352 174.197 470.762 174.328 470.205 174.545C470.696 174.162 471.282 173.908 471.908 173.805C472.551 173.7 473.213 173.763 473.826 173.986C474.426 174.209 474.978 174.539 475.451 174.958C475.924 175.36 476.319 175.838 476.619 176.369Z" fill="#0D0716"/>
<path d="M472.297 175.979C472.887 176.059 473.427 175.666 473.502 175.103C473.578 174.54 473.16 174.02 472.57 173.94C471.98 173.861 471.44 174.253 471.364 174.816C471.289 175.379 471.706 175.9 472.297 175.979Z" fill="#0D0716"/>
<path d="M462.282 173.401C462.872 173.48 463.412 173.088 463.488 172.525C463.563 171.962 463.146 171.441 462.555 171.362C461.965 171.283 461.425 171.675 461.35 172.238C461.274 172.801 461.691 173.322 462.282 173.401Z" fill="#0D0716"/>
<path d="M465.841 173.906C465.005 173.069 463.999 172.404 462.885 171.953C462.338 171.755 461.756 171.666 461.175 171.693C460.573 171.734 459.983 171.865 459.427 172.081C459.917 171.699 460.504 171.445 461.13 171.342C461.772 171.237 462.434 171.3 463.047 171.523C463.648 171.746 464.2 172.076 464.673 172.495C465.145 172.897 465.541 173.375 465.841 173.906Z" fill="#0D0716"/>
<path d="M483.485 179.722C483.465 181.384 483.369 183.039 483.197 184.687C483.046 186.347 482.794 187.996 482.443 189.625C482.389 189.833 482.333 190.04 482.255 190.259C482.21 190.391 482.149 190.518 482.073 190.636C482.034 190.694 481.986 190.747 481.93 190.791C481.867 190.84 481.792 190.874 481.712 190.89C481.614 190.914 481.511 190.905 481.418 190.865C481.3 190.822 481.203 190.739 481.143 190.633C481.116 190.589 481.093 190.542 481.076 190.494C480.954 190.051 480.89 189.596 480.885 189.14C480.855 188.297 480.851 187.467 480.885 186.637C480.932 184.977 481.076 183.326 481.286 181.678C481.428 183.337 481.521 184.992 481.592 186.64C481.643 187.463 481.663 188.288 481.741 189.097C481.76 189.467 481.814 189.836 481.902 190.198C481.902 190.198 481.914 190.231 481.9 190.201C481.864 190.165 481.917 190.178 481.736 190.077C481.665 190.055 481.59 190.048 481.517 190.059C481.464 190.071 481.414 190.093 481.37 190.124C481.343 190.136 481.317 190.181 481.328 190.161C481.359 190.1 481.385 190.038 481.406 189.974C481.465 189.802 481.513 189.608 481.561 189.416C481.936 187.847 482.189 186.205 482.499 184.588C482.79 182.964 483.119 181.342 483.485 179.722Z" fill="#463D56"/>
<path d="M468.099 186.944C469.578 187.142 470.931 186.159 471.12 184.749C471.309 183.338 470.263 182.034 468.784 181.835C467.305 181.637 465.952 182.619 465.763 184.03C465.574 185.441 466.619 186.745 468.099 186.944Z" fill="#0D0716"/>
<path d="M530.326 262.253L523.689 261.363L510.881 356.832L517.519 357.723L530.326 262.253Z" fill="#695093"/>
<path d="M543 255.521L345.835 229.071C345.203 228.986 344.625 229.406 344.544 230.009L344.186 232.679C344.105 233.282 344.552 233.84 345.184 233.924L542.349 260.375C542.981 260.459 543.559 260.039 543.64 259.437L543.998 256.766C544.079 256.163 543.632 255.606 543 255.521Z" fill="#695093"/>
<path d="M363.454 239.867L356.816 238.976L344.009 334.446L350.646 335.337L363.454 239.867Z" fill="#695093"/>
<path d="M351.982 234.837L536.006 259.524L534.318 272.103C534.241 272.681 533.925 273.204 533.441 273.556C532.957 273.907 532.344 274.059 531.737 273.978L352.29 249.905C351.683 249.823 351.132 249.515 350.758 249.048C350.383 248.581 350.217 247.994 350.294 247.415L351.982 234.837Z" fill="#9186C3"/>
<path d="M98.4678 300.821L548.026 361.13" stroke="#695093" stroke-width="2" stroke-linecap="round" stroke-linejoin="round"/>
</svg>
