<svg width="252" height="210" viewBox="0 0 252 210" fill="none" xmlns="http://www.w3.org/2000/svg">
<g clip-path="url(#clip0_117_535)">
<path fill-rule="evenodd" clip-rule="evenodd" d="M197.4 210H54.6001C47.4259 210.012 40.3195 208.843 33.6886 206.561C27.0578 204.279 21.033 200.928 15.9601 196.7C10.8872 192.473 6.86592 187.452 4.12709 181.926C1.38826 176.401 -0.0142273 170.479 0.000108805 164.5V45.5001C-0.0142273 39.5216 1.38826 33.5996 4.12709 28.0739C6.86592 22.5482 10.8872 17.5275 15.9601 13.3001C21.033 9.07265 27.0578 5.7216 33.6886 3.43924C40.3195 1.15688 47.4259 -0.0118561 54.6001 9.0671e-05H197.4C204.574 -0.0118561 211.681 1.15688 218.312 3.43924C224.942 5.7216 230.967 9.07265 236.04 13.3001C241.113 17.5275 245.134 22.5482 247.873 28.0739C250.612 33.5996 252.014 39.5216 252 45.5001V164.5C252.014 170.479 250.612 176.401 247.873 181.926C245.134 187.452 241.113 192.473 236.04 196.7C230.967 200.928 224.942 204.279 218.312 206.561C211.681 208.843 204.574 210.012 197.4 210Z" fill="#141414"/>
<path d="M125.322 68.7578C99.3095 68.7578 75.0751 63.2271 57.0871 53.1839C56.1835 52.6792 58.3772 49.9523 59.2789 50.457C76.6266 60.1414 100.08 65.475 125.322 65.475C150.564 65.475 174.018 60.1414 191.366 50.457C192.268 49.9515 194.461 52.6792 193.558 53.1839C175.57 63.2271 151.335 68.7578 125.322 68.7578Z" fill="#C6BAFF"/>
<path d="M125.322 26.1C106.632 26.0998 88.3608 30.7183 72.8201 39.3715C57.2794 48.0246 45.1668 60.3238 38.0141 74.7136C30.8614 89.1034 28.9898 104.938 32.636 120.214C36.2823 135.49 45.2825 149.522 58.4987 160.536C71.7149 171.549 88.5533 179.05 106.885 182.088C125.216 185.127 144.217 183.568 161.485 177.607C178.753 171.647 193.512 161.553 203.896 148.602C214.28 135.652 219.822 120.426 219.822 104.851C219.794 83.9721 209.829 63.9551 192.113 49.1916C174.397 34.428 150.377 26.1235 125.322 26.1ZM191.837 155.998C183.26 151.494 173.953 148.039 164.198 145.739C168.531 132.967 170.753 119.763 170.803 106.491H215.835C215.376 124.885 206.837 142.499 191.837 155.998ZM34.8098 106.491H79.842C79.8916 119.763 82.1135 132.967 86.4462 145.739C76.6918 148.039 67.3841 151.494 58.8073 155.998C43.8072 142.499 35.2689 124.885 34.8098 106.491ZM127.291 29.4727C149 31.3205 166.396 63.5468 166.866 103.21H127.291V29.4727ZM123.354 103.21H83.7785C84.2484 63.5468 101.645 31.3205 123.354 29.4727V103.21ZM83.7785 106.491H123.354V141.303C112.142 141.394 100.984 142.602 90.1161 144.9C85.9548 132.39 83.8233 119.473 83.7785 106.491ZM123.354 143.919V180.229C109.936 179.087 98.1648 166.341 91.0168 147.406C101.592 145.18 112.447 144.01 123.354 143.919ZM127.291 143.919C138.198 144.01 149.053 145.18 159.628 147.406C152.48 166.341 140.709 179.087 127.291 180.229V143.919ZM127.291 141.303V106.491H166.866C166.821 119.473 164.69 132.39 160.528 144.9C149.661 142.602 138.503 141.394 127.291 141.303ZM215.835 103.21H170.803C170.401 69.4773 157.691 40.9025 140.139 30.4097C160.949 33.3111 179.893 42.1686 193.71 55.4568C207.527 68.745 215.351 85.6322 215.835 103.21ZM110.506 30.4098C92.9537 40.9025 80.2439 69.4773 79.842 103.21H34.8098C35.2938 85.6322 43.1179 68.745 56.9347 55.4568C70.7514 42.1686 89.696 33.3111 110.506 30.4098ZM61.0147 157.927C69.2139 153.686 78.086 150.424 87.3722 148.236C92.8549 162.552 100.966 173.589 110.506 179.292C91.7205 176.691 74.4002 169.214 61.0147 157.927ZM140.139 179.292C149.679 173.589 157.79 162.552 163.272 148.236C172.558 150.424 181.431 153.686 189.63 157.927C176.244 169.214 158.924 176.691 140.139 179.292Z" fill="#C6BAFF"/>
<path d="M102.972 37.5851H32.0972C27.92 37.5851 23.914 38.9679 20.9603 41.4293C18.0066 43.8908 16.3472 47.2291 16.3472 50.7101V86.8038C16.3472 90.2848 18.0066 93.6232 20.9603 96.0846C23.914 98.546 27.92 99.9288 32.0972 99.9288H39.9722V111.973C39.9721 112.615 40.1979 113.243 40.6217 113.779C41.0455 114.315 41.6486 114.735 42.3563 114.989C43.0641 115.242 43.8454 115.316 44.6035 115.203C45.3617 115.09 46.0634 114.794 46.6218 114.352L64.8406 99.9288H102.972C107.149 99.9288 111.155 98.546 114.109 96.0846C117.063 93.6232 118.722 90.2848 118.722 86.8038V50.7101C118.722 47.2291 117.063 43.8907 114.109 41.4293C111.155 38.9679 107.149 37.5851 102.972 37.5851Z" fill="#F0EAFF"/>
<path d="M80.2065 83.2455C79.6082 83.2454 79.024 83.0938 78.5313 82.8109C78.0386 82.5279 77.6607 82.1269 77.4476 81.6609L67.5923 60.1253L57.6179 81.6698C57.3359 82.2787 56.7752 82.7693 56.0591 83.0337C55.3431 83.2981 54.5303 83.3147 53.7996 83.0797C53.0689 82.8447 52.4801 82.3774 52.1628 81.7807C51.8456 81.184 51.8257 80.5067 52.1077 79.8978L64.3297 53.4996C64.5444 53.0359 64.9225 52.6373 65.4143 52.3562C65.9061 52.0751 66.4884 51.9246 67.0848 51.9246H68.1269C68.7251 51.9246 69.3092 52.0761 69.8019 52.3589C70.2945 52.6417 70.6725 53.0425 70.8858 53.5083L82.9655 79.9065C83.1355 80.2792 83.1944 80.6807 83.1372 81.0765C83.08 81.4723 82.9083 81.8507 82.637 82.179C82.3657 82.5074 82.0028 82.776 81.5794 82.9618C81.1561 83.1475 80.685 83.2449 80.2065 83.2455Z" fill="#282829"/>
<path d="M76.4688 75.1978H59.7345C58.9533 75.1978 58.2041 74.9392 57.6518 74.4788C57.0994 74.0185 56.7891 73.3942 56.7891 72.7432C56.7891 72.0922 57.0994 71.4679 57.6518 71.0076C58.2041 70.5473 58.9533 70.2887 59.7345 70.2887H76.4689C77.2501 70.2887 77.9992 70.5473 78.5516 71.0076C79.104 71.4679 79.4143 72.0922 79.4143 72.7432C79.4143 73.3942 79.104 74.0185 78.5516 74.4788C77.9992 74.9392 77.25 75.1978 76.4688 75.1978Z" fill="#282829"/>
<path d="M148.273 109.773H219.148C223.325 109.773 227.331 111.155 230.285 113.617C233.239 116.078 234.898 119.417 234.898 122.898V158.991C234.898 162.472 233.239 165.811 230.285 168.272C227.331 170.733 223.325 172.116 219.148 172.116H211.273V184.161C211.273 184.802 211.047 185.43 210.623 185.966C210.2 186.502 209.597 186.923 208.889 187.176C208.181 187.429 207.4 187.504 206.642 187.391C205.883 187.278 205.182 186.982 204.623 186.54L186.404 172.116H148.273C144.096 172.116 140.09 170.733 137.136 168.272C134.182 165.811 132.523 162.472 132.523 158.991V122.898C132.523 119.417 134.182 116.078 137.136 113.617C140.09 111.155 144.096 109.773 148.273 109.773Z" fill="#8943FF"/>
<path d="M180.741 128.896C181.083 129.482 181.69 129.931 182.429 130.145C183.167 130.359 183.977 130.32 184.681 130.036C185.385 129.753 185.926 129.248 186.184 128.633C186.443 128.018 186.398 127.343 186.059 126.756L184.158 123.474C183.99 123.183 183.754 122.921 183.465 122.705C183.176 122.49 182.838 122.323 182.471 122.217C182.105 122.11 181.716 122.064 181.329 122.082C180.941 122.101 180.561 122.183 180.211 122.323C179.862 122.464 179.549 122.661 179.29 122.903C179.032 123.144 178.834 123.426 178.706 123.732C178.579 124.038 178.525 124.361 178.548 124.685C178.571 125.008 178.67 125.324 178.84 125.615L180.741 128.896ZM200.398 152.979C196.157 152.54 192.107 151.248 188.597 149.215C192.393 145.718 195.025 141.456 196.235 136.849H199.702C200.485 136.849 201.237 136.59 201.79 136.129C202.344 135.667 202.655 135.041 202.655 134.388C202.655 133.736 202.344 133.11 201.79 132.648C201.237 132.187 200.485 131.927 199.702 131.927H167.718C166.934 131.927 166.183 132.187 165.63 132.648C165.076 133.11 164.765 133.736 164.765 134.388C164.765 135.041 165.076 135.667 165.63 136.129C166.183 136.59 166.934 136.849 167.718 136.849H172.039C173.205 141.353 175.743 145.53 179.409 148.978C179.498 149.062 179.599 149.135 179.689 149.218C175.918 151.394 171.534 152.717 166.966 153.059C166.208 153.115 165.505 153.411 165.004 153.888C164.502 154.364 164.241 154.983 164.273 155.617C164.306 156.25 164.631 156.848 165.179 157.287C165.728 157.725 166.459 157.971 167.22 157.972C167.306 157.972 167.393 157.968 167.481 157.962C173.524 157.508 179.293 155.65 184.133 152.601C188.668 155.466 194.031 157.282 199.679 157.864C199.8 157.877 199.921 157.883 200.042 157.883C200.794 157.882 201.518 157.643 202.065 157.213C202.612 156.783 202.942 156.196 202.988 155.57C203.033 154.945 202.79 154.329 202.309 153.847C201.828 153.366 201.145 153.055 200.398 152.979ZM178.12 136.849H190.146C189.046 140.249 186.987 143.38 184.141 145.983C184.04 145.891 183.93 145.81 183.831 145.717C181.128 143.17 179.173 140.134 178.12 136.849Z" fill="#F0EAFF"/>
</g>
<defs>
<clipPath id="clip0_117_535">
<rect width="252" height="210" fill="white"/>
</clipPath>
</defs>
</svg>
