<svg width="443" height="366" viewBox="0 0 443 366" fill="none" xmlns="http://www.w3.org/2000/svg">
<g clip-path="url(#clip0_117_257)">
<path opacity="0.18" d="M70.4831 298.933C70.4831 298.933 30.7958 288.774 31.2769 245.182C31.7579 201.591 100.264 152.093 124.933 119.476C149.602 86.8588 171.974 34.1687 251.06 23.8175C330.145 13.4662 337.044 60.8104 376.811 71.7819C416.577 82.7533 391.958 148.345 397.625 162.099C403.293 175.853 452.19 212.052 407.145 250.35C362.1 288.649 70.4831 298.933 70.4831 298.933Z" fill="#7162B8"/>
<path d="M48.2295 345.662L50.3447 358.199C50.3447 358.199 53.4502 365.747 69.7127 362.56C85.9751 359.373 431.417 301.536 431.417 301.536C431.417 301.536 440.04 298.755 440.716 292.008L438.655 279.792L48.2295 345.662Z" fill="#7162B8"/>
<path d="M48.2295 345.662L50.3447 358.199C50.3447 358.199 53.4502 365.747 69.7127 362.56C85.9751 359.373 431.417 301.536 431.417 301.536C431.417 301.536 440.04 298.755 440.716 292.008L438.655 279.792L48.2295 345.662Z" fill="url(#paint0_linear_117_257)"/>
<path d="M378.475 225.587L82.4308 275.534C75.4172 276.717 68.8733 272.591 67.8969 266.804L40.543 104.67C39.4008 97.9002 44.2279 91.8508 51.2415 90.6675L347.286 40.721C350.651 40.1587 354.078 40.8149 356.815 42.5454C359.551 44.2759 361.373 46.9393 361.881 49.9511L389.235 212.084C389.743 215.096 388.896 218.209 386.878 220.741C384.861 223.273 381.839 225.016 378.475 225.587Z" fill="#7162B8"/>
<path d="M341.698 48.5392L58.9577 96.241C52.4297 97.3424 47.937 102.973 48.9229 108.817L73.7175 255.78C74.7034 261.624 80.7947 265.469 87.3228 264.367L370.063 216.665C376.591 215.564 381.084 209.934 380.098 204.09L355.303 57.1266C354.317 51.2825 348.226 47.4378 341.698 48.5392Z" fill="#7162B8"/>
<path d="M342.879 48.3397L60.1394 96.0416C53.6114 97.1429 49.1186 102.773 50.1046 108.617L74.8991 255.58C75.8851 261.425 81.9764 265.269 88.5044 264.168L371.244 216.466C377.773 215.365 382.265 209.734 381.279 203.89L356.485 56.9271C355.499 51.0831 349.408 47.2384 342.879 48.3397Z" fill="url(#paint1_linear_117_257)"/>
<path d="M182.897 149.653C182.897 149.653 178.457 146.116 175.99 150.071C173.523 154.025 179.432 161.425 186.644 160.358C193.856 159.291 182.897 149.653 182.897 149.653Z" fill="url(#paint2_linear_117_257)"/>
<path d="M69.0996 108.476L153.162 94.294L163.21 153.852L79.1477 168.034L69.0996 108.476Z" fill="url(#paint3_linear_117_257)"/>
<path d="M128.201 117.913C128.338 118.243 128.38 118.601 128.325 118.955C128.282 119.593 128.074 120.218 127.717 120.78C127.535 121.059 127.29 121.302 127 121.493C126.709 121.684 126.38 121.82 126.032 121.89C125.985 121.903 125.935 121.906 125.887 121.899C125.838 121.892 125.793 121.875 125.754 121.849C125.709 121.806 125.68 121.752 125.67 121.693C125.468 120.768 125.179 119.362 125.703 118.469C126.194 117.695 127.645 116.8 128.201 117.913Z" fill="url(#paint4_linear_117_257)"/>
<path d="M101.584 122.353C101.349 122.533 101.169 122.766 101.064 123.025C100.959 123.285 100.932 123.563 100.986 123.831C101.058 124.394 101.349 124.909 101.808 125.286C102.21 125.581 102.666 125.812 103.157 125.971C103.751 126.246 104.425 126.362 105.103 126.308C105.197 126.301 105.289 126.275 105.372 126.232C105.454 126.188 105.525 126.129 105.579 126.057C105.639 125.941 105.656 125.811 105.627 125.688C105.45 124.233 104.014 120.772 101.584 122.353Z" fill="url(#paint5_linear_117_257)"/>
<path d="M104.396 124.478C104.189 124.543 103.967 124.555 103.756 124.513C103.546 124.472 103.354 124.377 103.204 124.24C102.7 123.779 102.445 123.156 101.933 123.537C101.421 123.917 101.969 124.944 102.546 125.46C103.123 125.977 104.773 126.163 104.973 125.711C105.174 125.259 104.396 124.478 104.396 124.478Z" fill="url(#paint6_linear_117_257)"/>
<path d="M125.49 120.248C125.703 120.241 125.912 120.18 126.092 120.072C126.273 119.964 126.417 119.814 126.51 119.638C126.84 119.035 126.871 118.365 127.481 118.561C128.09 118.757 127.913 119.896 127.532 120.574C127.151 121.252 125.665 121.972 125.327 121.606C124.989 121.241 125.49 120.248 125.49 120.248Z" fill="url(#paint7_linear_117_257)"/>
<path d="M150.176 253.763L151.195 253.591C150.78 254.713 150.176 253.763 150.176 253.763Z" stroke="#8943FF" stroke-width="0.74" stroke-miterlimit="10"/>
<path d="M240.511 178.652C240.511 178.652 240.276 183.849 247.552 187.021C246.309 189.351 242.685 194.031 235.688 197.084C232.575 198.42 229.256 199.29 225.867 199.659C220.081 200.336 214.659 198.997 210.184 197.096L209.481 196.786C205.995 195.203 202.759 193.226 199.846 190.902C204.213 187.349 207.64 183.042 202.858 180.548C202.829 180.529 202.797 180.514 202.764 180.502C202.718 180.474 202.669 180.45 202.619 180.429L202.53 180.382C184.512 171.935 179.292 133.241 179.292 133.241C186.258 74.8153 230.756 93.1376 239.94 94.6415C249.124 96.1455 258.423 113.495 257.944 134.526C257.367 158.87 240.511 178.652 240.511 178.652Z" fill="url(#paint8_linear_117_257)"/>
<path d="M322.082 224.76L151.224 253.586C151.623 252.539 151.845 249.685 151.274 242.546C148.717 210.695 191.046 196.797 191.046 196.797C193.075 195.66 195.038 194.428 196.928 193.107L204.802 198.999C207.016 200.653 212.221 201.317 212.221 201.317C239.674 208.177 248.592 192.978 250.695 188.095C261.076 190.924 286.634 193.657 301.582 200.476C317.995 207.945 322.082 224.76 322.082 224.76Z" fill="#7162B8"/>
<path d="M316.497 225.703L314.006 173.411L340.638 168.918L351.882 220.202L316.497 225.703Z" fill="#7162B8"/>
<path d="M315.857 212.21L316.502 225.702L151.195 253.591C151.595 252.544 151.816 249.69 151.245 242.55C148.717 210.695 191.046 196.797 191.046 196.797C193.074 195.66 195.038 194.428 196.928 193.107L204.801 198.999C207.016 200.653 212.221 201.317 212.221 201.317C239.673 208.177 248.592 192.978 250.695 188.095C261.076 190.924 286.633 193.657 301.582 200.476C307.408 203.203 312.318 207.239 315.857 212.21Z" fill="url(#paint9_linear_117_257)"/>
<path d="M351.883 220.202L316.502 225.702L315.857 212.21L314.006 173.411L340.638 168.918L351.883 220.202Z" fill="url(#paint10_linear_117_257)"/>
<path d="M351.034 126.583C350.784 127.734 348.881 131.821 347.201 135.797C345.749 139.245 344.477 142.601 344.613 143.883C344.909 146.628 342.897 159.258 339.058 163.65C336.692 166.36 338.475 169.278 338.475 169.278L332.806 170.405L315.525 173.836C315.525 173.836 316.533 171.211 314.342 170.585C312.151 169.959 290.674 153.235 290.674 153.235C290.674 153.235 291.012 147.211 299.468 149.766C307.925 152.321 309.745 155.217 311.628 154.564C313.511 153.911 309.185 127.212 309.185 127.212C309.185 127.212 307.537 114.952 310.773 112.106C314.009 109.259 315.112 119.688 315.112 119.688L319.859 133.277C319.859 133.277 321.964 110.068 323.559 108.767C325.155 107.467 328.772 107.733 328.631 112.156C328.598 113.193 329.293 124.449 329.293 124.449L329.553 131.863C329.553 131.863 335.724 112.507 337.302 111.648C338.88 110.788 341.644 111.054 341.351 114.204C341.059 117.353 339.638 133.519 339.597 134.027C339.873 133.614 346.309 123.817 348.05 122.662C349.791 121.506 351.496 124.442 351.034 126.583Z" fill="url(#paint11_linear_117_257)"/>
<path d="M251.239 186.642C251.239 186.642 250.258 199.748 234.04 203.263C208.779 208.742 195.704 192.168 195.704 192.168L198.406 189.706C198.406 189.706 198.905 190.174 199.83 190.91C203.524 193.851 213.957 201.055 225.872 199.689C239.489 198.104 245.822 190.289 247.556 187.046C247.699 186.783 247.827 186.513 247.939 186.239L251.239 186.642Z" fill="#F0EAFF"/>
<path d="M89.3543 166.312C89.3543 166.312 85.6012 150.657 99.238 141.435C112.875 132.213 148.761 132.1 150.942 155.921L89.3543 166.312Z" fill="#7162B8"/>
<path d="M109.411 128.284L110.199 132.953C110.378 134.012 110.132 135.108 109.504 136.046C108.877 136.983 107.908 137.702 106.771 138.075L103.2 139.24C103.2 139.24 110.213 148.64 120.8 144.053C131.388 139.466 131.412 136.641 131.412 136.641L128.647 136.267C127.495 136.11 126.439 135.634 125.623 134.903C124.808 134.172 124.273 133.223 124.093 132.187L123.018 125.988L109.411 128.284Z" fill="url(#paint12_linear_117_257)"/>
<path d="M102.761 119.085C102.761 119.085 103.522 125.884 108.921 130.6C114.773 135.714 121.679 135.668 124.987 127.889C125.948 125.664 126.528 114.487 124.931 110.925C123.333 107.362 105.532 99.4517 102.761 119.085Z" fill="url(#paint13_linear_117_257)"/>
<path d="M99.7481 114.137C100.055 113.895 100.321 113.614 100.535 113.302C100.693 112.868 100.725 112.407 100.626 111.967C100.371 108.915 102.951 106.112 105.886 104.452C111.144 101.465 118.242 101.16 123.35 104.084C125.198 105.134 126.894 106.581 129.096 106.792C129.538 106.778 129.973 106.864 130.36 107.043C131.137 107.52 130.811 108.659 130.202 109.349C130.05 109.495 129.937 109.67 129.873 109.859C129.75 110.395 130.555 110.693 131.178 110.763C130.752 111.505 130.171 112.169 129.468 112.717C129.866 112.686 130.08 113.171 129.929 113.506C129.731 113.824 129.462 114.103 129.14 114.325C128.264 115.113 127.948 116.244 127.476 117.267C127.003 118.291 126.168 119.35 124.969 119.485C125.276 116.915 124.529 114.367 122.868 112.325C117.623 114.566 111.621 113.959 105.922 113.544C105.493 113.466 105.041 113.542 104.662 113.756C104.022 114.236 104.405 115.136 104.836 115.744C104.147 115.86 103.931 116.665 103.893 117.295C103.844 118.237 103.883 119.177 104.011 120.107C104.104 120.659 104.861 122.414 104.641 122.853C104.21 123.715 103.187 122.634 102.595 122.13C100.694 120.496 97.3619 116.556 99.7481 114.137Z" fill="#7162B8"/>
<path d="M82.4308 275.534L48.8426 341.308C48.2497 342.47 48.0122 343.744 48.1554 344.994C48.2986 346.244 48.8171 347.423 49.6557 348.405C50.4943 349.388 51.6216 350.137 52.9175 350.574C54.2134 351.011 55.6294 351.118 57.0146 350.884L432.102 287.602C433.521 287.364 434.852 286.778 435.948 285.909C437.044 285.04 437.862 283.922 438.309 282.681C438.757 281.439 438.818 280.123 438.484 278.878C438.15 277.633 437.436 276.509 436.42 275.63L378.485 225.575L82.4308 275.534Z" fill="#7162B8"/>
<path d="M82.4308 275.534L48.8426 341.308C48.2497 342.47 48.0122 343.744 48.1554 344.994C48.2986 346.244 48.8171 347.423 49.6557 348.405C50.4943 349.388 51.6216 350.137 52.9175 350.574C54.2134 351.011 55.6294 351.118 57.0146 350.884L432.102 287.602C433.521 287.364 434.852 286.778 435.948 285.909C437.044 285.04 437.862 283.922 438.309 282.681C438.757 281.439 438.817 280.123 438.484 278.878C438.15 277.633 437.436 276.509 436.42 275.63L378.485 225.575L82.4308 275.534Z" fill="url(#paint14_linear_117_257)"/>
<path d="M372.542 237.373L90.2894 284.993L92.084 279.955L367.911 233.42L372.542 237.373Z" fill="url(#paint15_linear_117_257)"/>
<path d="M379.315 243.162L87.6625 292.368L90.2899 284.993L372.543 237.373L379.315 243.162Z" fill="url(#paint16_linear_117_257)"/>
<path d="M386.472 249.284L84.8869 300.165L87.6619 292.368L379.315 243.162L386.472 249.284Z" fill="url(#paint17_linear_117_257)"/>
<path d="M392.915 254.789L82.3889 307.178L84.8872 300.165L386.472 249.284L392.915 254.789Z" fill="url(#paint18_linear_117_257)"/>
<path d="M187.475 294.024L289.754 276.768L307.74 295.504L183.842 316.407L187.475 294.024Z" fill="url(#paint19_linear_117_257)"/>
<path d="M170.622 99.8841C170.823 100.768 171.217 101.635 171.129 102.548C170.961 103.402 170.608 104.224 170.091 104.966C165.247 113.34 166.616 123.228 168.114 132.378C168.503 134.685 168.9 137.037 170.011 139.119C171.105 141.126 172.828 142.77 174.53 144.391C175.348 145.171 181.684 149.739 182.908 149.651C184.547 149.535 175.721 126.179 207.55 118.411C210.731 117.632 213.985 117.454 217.234 117.004C219.153 116.737 221.027 116.199 222.949 115.942C226.189 115.514 229.449 115.918 232.651 116.322C238.449 117.051 244.639 117.951 248.762 121.593L251.589 119.568L253.735 129.486L254.257 131.863L257.4 146.29L262.867 135.532C266.275 128.824 269.616 120.689 265.264 114.703C263.21 111.883 259.719 110.079 257.869 107.136C255.293 103.037 256.483 97.7613 255.112 93.1856C252.455 84.2675 240.679 80.2043 230.336 80.9487C228.031 81.1158 225.727 81.4582 223.422 81.4601C221.133 81.4008 218.857 81.1936 216.612 80.8401C211.999 80.2361 206.744 79.9261 203.098 82.6971C201.673 83.7782 200.649 85.2559 199.081 86.2064C196.376 87.8645 192.879 87.526 189.663 87.7591C183.332 88.2393 168.826 91.9348 170.622 99.8841Z" fill="#7162B8"/>
<path d="M255.882 140.362C255.882 140.362 258.915 135.565 262.537 138.492C266.16 141.419 263.011 150.347 255.853 151.704C248.696 153.061 255.882 140.362 255.882 140.362Z" fill="url(#paint20_linear_117_257)"/>
<path d="M235.687 197.084C235.687 197.084 225.675 203.885 210.184 197.096L209.48 196.787C206.026 195.157 202.795 193.184 199.846 190.902C204.213 187.35 207.64 183.042 202.858 180.548C205.207 181.699 219.368 188.29 227.484 184.795C236.245 181.027 235.703 196.767 235.687 197.084Z" fill="url(#paint21_linear_117_257)"/>
<path d="M347.202 135.802C345.75 139.25 344.478 142.606 344.613 143.888C344.91 146.633 342.898 159.263 339.059 163.655C336.693 166.365 338.476 169.283 338.476 169.283L332.806 170.41L332.238 170.454C332.238 170.454 333.062 162.635 327.223 160.232C321.385 157.828 314.551 155.293 314.664 151.148C314.777 147.003 317.456 137.411 328.995 140.478C340.534 143.544 347.202 135.802 347.202 135.802Z" fill="url(#paint22_linear_117_257)"/>
<path d="M319.798 77.6975C322.793 77.1922 324.854 74.6092 324.402 71.9282C323.949 69.2471 321.155 67.4833 318.16 67.9886C315.165 68.4938 313.104 71.0769 313.556 73.7579C314.009 76.439 316.803 78.2028 319.798 77.6975Z" fill="#F0EAFF"/>
</g>
<defs>
<linearGradient id="paint0_linear_117_257" x1="240.189" y1="299.675" x2="265.099" y2="416.686" gradientUnits="userSpaceOnUse">
<stop stop-opacity="0"/>
<stop offset="0.97"/>
</linearGradient>
<linearGradient id="paint1_linear_117_257" x1="190.872" y1="23.5843" x2="243.825" y2="312.27" gradientUnits="userSpaceOnUse">
<stop stop-color="white"/>
<stop offset="1" stop-color="white" stop-opacity="0"/>
</linearGradient>
<linearGradient id="paint2_linear_117_257" x1="184.459" y1="153.521" x2="168.901" y2="161.474" gradientUnits="userSpaceOnUse">
<stop stop-color="#CFC4EC"/>
<stop offset="0.42" stop-color="#DAD1EF"/>
<stop offset="1" stop-color="#D5C9F2"/>
</linearGradient>
<linearGradient id="paint3_linear_117_257" x1="110.942" y1="84.7629" x2="125.555" y2="203.165" gradientUnits="userSpaceOnUse">
<stop stop-color="white"/>
<stop offset="1" stop-color="white" stop-opacity="0"/>
</linearGradient>
<linearGradient id="paint4_linear_117_257" x1="125.35" y1="119.864" x2="128.493" y2="119.334" gradientUnits="userSpaceOnUse">
<stop stop-color="#CFC4EC"/>
<stop offset="0.42" stop-color="#DAD1EF"/>
<stop offset="1" stop-color="#D5C9F2"/>
</linearGradient>
<linearGradient id="paint5_linear_117_257" x1="101.115" y1="124.593" x2="105.339" y2="123.88" gradientUnits="userSpaceOnUse">
<stop stop-color="#CFC4EC"/>
<stop offset="0.42" stop-color="#DAD1EF"/>
<stop offset="1" stop-color="#D5C9F2"/>
</linearGradient>
<linearGradient id="paint6_linear_117_257" x1="103.426" y1="124.564" x2="103.37" y2="126.609" gradientUnits="userSpaceOnUse">
<stop stop-color="#CFC4EC"/>
<stop offset="0.42" stop-color="#DAD1EF"/>
<stop offset="1" stop-color="#D5C9F2"/>
</linearGradient>
<linearGradient id="paint7_linear_117_257" x1="126.435" y1="120.012" x2="127.154" y2="121.925" gradientUnits="userSpaceOnUse">
<stop stop-color="#CFC4EC"/>
<stop offset="0.42" stop-color="#DAD1EF"/>
<stop offset="1" stop-color="#D5C9F2"/>
</linearGradient>
<linearGradient id="paint8_linear_117_257" x1="182.324" y1="151.483" x2="259.815" y2="138.409" gradientUnits="userSpaceOnUse">
<stop stop-color="#CFC4EC"/>
<stop offset="0.42" stop-color="#DAD1EF"/>
<stop offset="1" stop-color="#D5C9F2"/>
</linearGradient>
<linearGradient id="paint9_linear_117_257" x1="226.296" y1="187.451" x2="252.814" y2="352.183" gradientUnits="userSpaceOnUse">
<stop stop-opacity="0"/>
<stop offset="0.97"/>
</linearGradient>
<linearGradient id="paint10_linear_117_257" x1="333.177" y1="185.309" x2="334.683" y2="277.402" gradientUnits="userSpaceOnUse">
<stop stop-opacity="0"/>
<stop offset="0.97"/>
</linearGradient>
<linearGradient id="paint11_linear_117_257" x1="289.501" y1="146.182" x2="352.803" y2="135.502" gradientUnits="userSpaceOnUse">
<stop stop-color="#CFC4EC"/>
<stop offset="0.42" stop-color="#DAD1EF"/>
<stop offset="1" stop-color="#D5C9F2"/>
</linearGradient>
<linearGradient id="paint12_linear_117_257" x1="115.666" y1="134.109" x2="118.815" y2="142.503" gradientUnits="userSpaceOnUse">
<stop stop-color="#CFC4EC"/>
<stop offset="0.42" stop-color="#DAD1EF"/>
<stop offset="1" stop-color="#D5C9F2"/>
</linearGradient>
<linearGradient id="paint13_linear_117_257" x1="106.735" y1="108.971" x2="118.876" y2="126.06" gradientUnits="userSpaceOnUse">
<stop stop-color="#CFC4EC"/>
<stop offset="0.42" stop-color="#DAD1EF"/>
<stop offset="1" stop-color="#D5C9F2"/>
</linearGradient>
<linearGradient id="paint14_linear_117_257" x1="266.23" y1="168.067" x2="251.009" y2="326.446" gradientUnits="userSpaceOnUse">
<stop stop-color="white"/>
<stop offset="0.89" stop-color="white" stop-opacity="0"/>
</linearGradient>
<linearGradient id="paint15_linear_117_257" x1="226.949" y1="233.971" x2="246.56" y2="352.782" gradientUnits="userSpaceOnUse">
<stop stop-opacity="0"/>
<stop offset="0.97"/>
</linearGradient>
<linearGradient id="paint16_linear_117_257" x1="221.033" y1="181.113" x2="240.215" y2="310.107" gradientUnits="userSpaceOnUse">
<stop stop-color="white"/>
<stop offset="0.6" stop-color="white" stop-opacity="0.48"/>
<stop offset="0.87" stop-color="white" stop-opacity="0.13"/>
<stop offset="1" stop-color="white" stop-opacity="0"/>
</linearGradient>
<linearGradient id="paint17_linear_117_257" x1="228.933" y1="233.642" x2="248.549" y2="352.457" gradientUnits="userSpaceOnUse">
<stop stop-opacity="0"/>
<stop offset="0.97"/>
</linearGradient>
<linearGradient id="paint18_linear_117_257" x1="224.051" y1="186.365" x2="243.229" y2="315.365" gradientUnits="userSpaceOnUse">
<stop stop-color="white"/>
<stop offset="1" stop-color="white" stop-opacity="0"/>
</linearGradient>
<linearGradient id="paint19_linear_117_257" x1="239.698" y1="260.673" x2="264.12" y2="433.513" gradientUnits="userSpaceOnUse">
<stop stop-opacity="0"/>
<stop offset="0.97"/>
</linearGradient>
<linearGradient id="paint20_linear_117_257" x1="255.674" y1="144.529" x2="272.981" y2="146.937" gradientUnits="userSpaceOnUse">
<stop stop-color="#CFC4EC"/>
<stop offset="0.42" stop-color="#DAD1EF"/>
<stop offset="1" stop-color="#D5C9F2"/>
</linearGradient>
<linearGradient id="paint21_linear_117_257" x1="217.775" y1="191.173" x2="220.125" y2="268.753" gradientUnits="userSpaceOnUse">
<stop stop-color="#CFC4EC"/>
<stop offset="0.42" stop-color="#DAD1EF"/>
<stop offset="1" stop-color="#D5C9F2"/>
</linearGradient>
<linearGradient id="paint22_linear_117_257" x1="323.458" y1="138.219" x2="364.07" y2="184.031" gradientUnits="userSpaceOnUse">
<stop stop-color="#CFC4EC"/>
<stop offset="0.42" stop-color="#DAD1EF"/>
<stop offset="1" stop-color="#D5C9F2"/>
</linearGradient>
<clipPath id="clip0_117_257">
<rect width="397" height="304" fill="white" transform="translate(0 66.0455) rotate(-9.57634)"/>
</clipPath>
</defs>
</svg>
